<svg width="1439" height="831" viewBox="0 0 1439 831" fill="none" xmlns="http://www.w3.org/2000/svg">
<rect width="1440" height="830" transform="translate(0 0.402344)" fill="#FE840E"/>
<mask id="mask0_1_3635" style="mask-type:alpha" maskUnits="userSpaceOnUse" x="0" y="0" width="1440" height="831">
<rect y="0.402344" width="1440" height="830" fill="#FE840E"/>
</mask>
<g mask="url(#mask0_1_3635)">
<path d="M346.049 -14.1306C391.438 30.6484 402.849 104.72 401.952 178.071C401.054 251.302 387.72 323.813 342.459 369.192C297.199 414.572 219.756 433.06 148.468 427.417C77.1791 421.655 11.9169 392.002 -37.703 346.623C-87.3228 301.123 -121.172 240.017 -127.07 173.389C-132.968 106.761 -110.786 34.6101 -61.2948 -10.1689C-11.675 -55.068 65.3832 -72.4755 143.467 -73.5559C221.679 -74.5163 300.789 -59.0297 346.049 -14.1306Z" fill="#C81F56"/>
<path d="M1460.57 563.077C1553.74 678.47 1570.05 884.19 1485.16 1000.29C1400.04 1116.39 1213.71 1142.64 1047.95 1130.82C881.955 1118.99 736.533 1069.1 667.014 961.748C597.258 854.632 603.406 690.293 676.236 586.96C748.829 483.391 888.103 440.828 1042.75 432.079C1197.39 423.093 1367.41 447.922 1460.57 563.077Z" fill="#FEB447"/>
<path d="M1828.17 48.4042C1902.67 136.496 1939.17 260.025 1918.08 377.704C1896.81 495.215 1817.96 606.876 1711.81 655.686C1605.49 704.496 1471.88 690.455 1367.4 633.454C1262.76 576.453 1187.58 476.493 1159.96 363.495C1132.33 250.497 1152.42 124.461 1221.74 37.539C1291.06 -49.3827 1409.76 -96.8553 1525.46 -94.5151C1640.98 -92.0077 1753.66 -39.5204 1828.17 48.4042Z" fill="#F06C46"/>
</g>
</svg>
