<svg width="1440" height="1408" viewBox="0 0 1440 1408" fill="none" xmlns="http://www.w3.org/2000/svg">
<path opacity="0.5" d="M1594.09 1039.25C1571.09 1163.93 1446.7 1288.75 1324.12 1297.97C1201.4 1307.04 1080.64 1200.37 996.035 1085.96C911.295 971.401 862.706 849.087 893.653 744.261C924.314 639.412 1034.36 552.182 1141.94 542.203C1249.55 531.939 1354.7 598.926 1446.47 694.685C1538.39 790.313 1616.93 914.712 1594.09 1039.25Z" fill="#FEB447"/>
<path d="M975.112 722.39L975.109 722.384C905.933 616.159 912.015 452.93 984.279 350.4L984.283 350.395C1056.19 247.806 1194.44 205.313 1348.89 196.575L1348.89 196.575C1503.41 187.597 1672.28 212.506 1764.63 326.65C1810.82 383.868 1838.06 463.622 1843.14 543.577C1848.23 623.545 1831.15 703.368 1789.15 760.816C1747.05 818.224 1679.81 853.585 1602.18 873.101C1524.58 892.614 1436.84 896.223 1354.13 890.323C1188.33 878.514 1043.96 828.71 975.112 722.39Z" stroke="#FE840E" stroke-width="5"/>
<path d="M490.878 696.847C434.047 776.711 340.018 832.814 238.66 840.328C137.404 847.669 28.8198 806.421 -33.7621 729.459C-96.3792 652.359 -112.994 539.544 -88.0872 441.607C-63.2159 343.532 3.24732 260.61 90.4757 214.027C177.704 167.444 285.733 157.339 371.932 195.966C458.131 234.594 522.26 322.163 544.732 417.777C567.031 513.288 547.571 617.017 490.878 696.847Z" fill="#FE840E"/>
<path d="M167.272 633.078L167.277 633.083C200.539 668.131 209.136 726.469 208.464 785.095C207.793 843.59 197.79 900.747 164.574 936.316C131.368 971.873 74.2318 986.586 21.3005 982.111C-31.4898 977.553 -79.8399 954.098 -116.616 918.178C-153.401 882.152 -178.449 833.812 -182.812 781.172C-187.183 728.43 -170.708 671.513 -134.297 636.329L-134.297 636.329C-97.8001 601.058 -40.8523 587.182 17.3791 586.321C75.7775 585.555 134.115 597.948 167.272 633.078Z" stroke="#FEB447" stroke-width="5"/>
</svg>
