<svg width="1440" height="2409" viewBox="0 0 1440 2409" fill="none" xmlns="http://www.w3.org/2000/svg">
<path d="M1981 921.5C1981 1321.08 2932 2456 965.5 2404.5C-164 2374.92 -1056 1321.08 -1056 921.5C-1056 521.922 -376.144 198 462.5 198C1301.14 198 1981 521.922 1981 921.5Z" fill="#FE840E"/>
<path d="M1981 921.5C1981 1321.08 2932 2456 965.5 2404.5C-164 2374.92 -1056 1321.08 -1056 921.5C-1056 521.922 -376.144 198 462.5 198C1301.14 198 1981 521.922 1981 921.5Z" fill="url(#paint0_linear_1_4045)"/>
<path d="M549.873 1996.47C596.754 2058.46 611.097 2131.71 591.442 2194.96C571.786 2258.33 518.132 2311.58 443.096 2353.09C367.927 2394.61 271.509 2424.39 195.277 2399.55C118.913 2374.71 62.7353 2295.48 63.0009 2225.32C63.1337 2155.29 119.71 2094.22 176.153 2030.4C232.463 1966.57 288.508 1899.87 356.107 1891.82C423.839 1883.89 503.125 1934.49 549.873 1996.47Z" fill="#FE840E"/>
<path d="M1737.79 1262.95C1793.5 1321.64 1807.5 1418.73 1806.4 1514.88C1805.3 1610.86 1788.93 1705.91 1733.39 1765.39C1677.84 1824.87 1582.79 1849.1 1495.3 1841.71C1407.81 1834.16 1327.72 1795.29 1266.82 1735.81C1205.92 1676.17 1164.38 1596.07 1157.14 1508.74C1149.9 1421.41 1177.13 1326.83 1237.87 1268.14C1298.76 1209.29 1393.34 1186.47 1489.17 1185.05C1585.15 1183.8 1682.24 1204.1 1737.79 1262.95Z" fill="#C81F56"/>
<path d="M20.3187 343.356C115.419 326.282 220.339 351.596 296.919 416.19C373.308 480.836 421.357 584.762 412.374 682.127C403.322 779.613 337.239 870.538 252.166 922.354C167.022 974.292 63.0283 986.877 -30.5367 959.547C-124.102 932.216 -207.168 864.848 -241.254 778.203C-275.341 691.557 -260.135 585.654 -210.038 502.807C-159.891 420.151 -74.6606 360.499 20.3187 343.356Z" fill="#F06C46"/>
<defs>
<linearGradient id="paint0_linear_1_4045" x1="977" y1="3000" x2="738" y2="933.5" gradientUnits="userSpaceOnUse">
<stop stop-color="#C81F56"/>
<stop offset="1" stop-color="#C81F56" stop-opacity="0"/>
</linearGradient>
</defs>
</svg>
