<svg width="1164" height="346" viewBox="0 0 1164 346" fill="none" xmlns="http://www.w3.org/2000/svg">
<mask id="mask0_1_3855" style="mask-type:alpha" maskUnits="userSpaceOnUse" x="0" y="0" width="1164" height="346">
<rect width="1164" height="346" rx="40" fill="#FEB447"/>
</mask>
<g mask="url(#mask0_1_3855)">
<path d="M1028.57 -26.325C1121.74 89.0673 1138.05 294.787 1053.16 410.889C968.039 526.991 781.708 553.238 615.95 541.415C449.955 529.592 304.533 479.699 235.014 372.346C165.258 265.23 171.406 100.89 244.236 -2.4425C316.829 -106.012 456.103 -148.575 610.748 -157.324C765.393 -166.309 935.407 -141.481 1028.57 -26.325Z" fill="#FE840E"/>
<path d="M339.322 16.797C382.056 61.8245 392.8 136.307 391.955 210.065C391.11 283.703 378.555 356.616 335.942 402.247C293.329 447.878 220.416 466.469 153.297 460.795C86.1781 455 24.733 425.183 -21.9845 379.552C-68.702 333.8 -100.571 272.355 -106.124 205.357C-111.677 138.359 -90.7933 65.8082 -44.1965 20.7807C2.5211 -24.3676 75.0721 -41.8716 148.589 -42.958C222.226 -43.9238 296.709 -28.3512 339.322 16.797Z" fill="#C81F56"/>
<path d="M1203.96 -21.3992C1263.85 70.0461 1282.18 178.118 1257.07 271.429C1231.96 364.91 1163.42 443.462 1067.56 504.708C971.534 565.954 848.363 609.895 750.98 573.249C653.427 536.603 581.662 419.71 582.001 316.219C582.171 212.897 654.445 122.809 726.549 28.6497C798.484 -65.51 870.079 -163.911 956.435 -175.787C1042.96 -187.494 1144.25 -112.844 1203.96 -21.3992Z" fill="#F06C46"/>
<rect width="1164" height="160" fill="url(#paint0_linear_1_3855)"/>
</g>
<defs>
<linearGradient id="paint0_linear_1_3855" x1="582" y1="0" x2="582" y2="160" gradientUnits="userSpaceOnUse">
<stop stop-color="#FEB447"/>
<stop offset="1" stop-color="#FE840E" stop-opacity="0"/>
</linearGradient>
</defs>
</svg>
