<svg width="1440" height="799" viewBox="0 0 1440 799" fill="none" xmlns="http://www.w3.org/2000/svg">
<mask id="mask0_1_4224" style="mask-type:alpha" maskUnits="userSpaceOnUse" x="0" y="0" width="1440" height="799">
<rect width="1440" height="799" fill="#F06C46"/>
</mask>
<g mask="url(#mask0_1_4224)">
<rect width="1440" height="799" fill="#F06C46"/>
<path d="M265.243 562.549C309.743 615.249 331.543 689.149 318.943 759.549C306.243 829.849 259.143 896.649 195.743 925.849C132.243 955.049 52.4428 946.649 -9.9572 912.549C-72.4572 878.449 -117.357 818.649 -133.857 751.049C-150.357 683.449 -138.357 608.049 -96.9572 556.049C-55.5572 504.049 15.3428 475.649 84.4428 477.049C153.443 478.549 220.743 509.949 265.243 562.549Z" fill="#C81F56"/>
<path d="M1572.57 312.675C1665.74 428.067 1682.05 633.787 1597.16 749.889C1512.04 865.991 1325.71 892.238 1159.95 880.415C993.955 868.592 848.533 818.699 779.014 711.346C709.258 604.23 715.406 439.89 788.236 336.557C860.829 232.988 1000.1 190.425 1154.75 181.676C1309.39 172.691 1479.41 197.519 1572.57 312.675Z" fill="#FEB447"/>
<path d="M1466.32 16.797C1509.06 61.8245 1519.8 136.307 1518.95 210.065C1518.11 283.703 1505.56 356.616 1462.94 402.247C1420.33 447.878 1347.42 466.469 1280.3 460.795C1213.18 455 1151.73 425.183 1105.02 379.552C1058.3 333.8 1026.43 272.355 1020.88 205.357C1015.32 138.359 1036.21 65.8082 1082.8 20.7807C1129.52 -24.3676 1202.07 -41.8716 1275.59 -42.958C1349.23 -43.9238 1423.71 -28.3512 1466.32 16.797Z" fill="#C81F56"/>
<path d="M1114.96 133.601C1174.85 225.046 1193.18 333.118 1168.07 426.429C1142.96 519.91 1074.42 598.462 978.56 659.708C882.534 720.954 759.363 764.895 661.98 728.249C564.427 691.603 492.662 574.71 493.001 471.219C493.171 367.897 565.445 277.809 637.549 183.65C709.484 89.49 781.079 -8.91121 867.435 -20.7872C953.96 -32.4936 1055.25 42.1556 1114.96 133.601Z" fill="#FE840E"/>
</g>
</svg>
