<svg width="911" height="1070" viewBox="0 0 911 1070" fill="none" xmlns="http://www.w3.org/2000/svg">
<path d="M767.988 686.82C713.864 761.604 634.108 808.597 552.922 816.876C471.603 825.207 388.989 794.773 311.806 737.577C234.571 680.247 162.819 596.289 162.417 508.418C161.964 420.413 232.592 328.597 314.352 297.709C395.928 266.737 488.769 296.643 584.771 325.189C680.723 353.601 779.919 380.469 815.287 445.031C850.572 509.779 822.163 612.17 767.988 686.82Z" fill="#FE840E"/>
<path d="M277.209 371.226C345.099 359.038 419.998 377.109 474.666 423.221C529.198 469.369 563.498 543.559 557.086 613.065C550.624 682.658 503.45 747.566 442.718 784.556C381.937 821.633 307.698 830.618 240.905 811.107C174.112 791.596 114.814 743.504 90.4802 681.651C66.1469 619.797 77.0017 544.196 112.764 485.054C148.563 426.048 209.406 383.464 277.209 371.226Z" fill="#FEB447"/>
</svg>
