<svg width="453" height="349" viewBox="0 0 453 349" fill="none" xmlns="http://www.w3.org/2000/svg">
<mask id="mask0_27_1301" style="mask-type:alpha" maskUnits="userSpaceOnUse" x="0" y="0" width="453" height="349">
<rect y="0.402466" width="453" height="348" rx="20" fill="#FE840E"/>
</mask>
<g mask="url(#mask0_27_1301)">
<rect y="0.402466" width="453" height="348" fill="white"/>
<circle cx="95.5" cy="2.90247" r="1.5" fill="#E3E3E3"/>
<circle cx="113.5" cy="2.90247" r="1.5" fill="#E3E3E3"/>
<circle cx="131.5" cy="2.90247" r="1.5" fill="#E3E3E3"/>
<circle cx="149.5" cy="2.90247" r="1.5" fill="#E3E3E3"/>
<circle cx="167.5" cy="2.90247" r="1.5" fill="#E3E3E3"/>
<circle cx="185.5" cy="2.90247" r="1.5" fill="#E3E3E3"/>
<circle cx="203.5" cy="2.90247" r="1.5" fill="#E3E3E3"/>
<circle cx="221.5" cy="2.90247" r="1.5" fill="#E3E3E3"/>
<circle cx="239.5" cy="2.90247" r="1.5" fill="#E3E3E3"/>
<circle cx="257.5" cy="2.90247" r="1.5" fill="#E3E3E3"/>
<circle cx="275.5" cy="2.90247" r="1.5" fill="#E3E3E3"/>
<circle cx="293.5" cy="2.90247" r="1.5" fill="#E3E3E3"/>
<circle cx="311.5" cy="2.90247" r="1.5" fill="#E3E3E3"/>
<circle cx="329.5" cy="2.90247" r="1.5" fill="#E3E3E3"/>
<circle cx="347.5" cy="2.90247" r="1.5" fill="#E3E3E3"/>
<circle cx="365.5" cy="2.90247" r="1.5" fill="#E3E3E3"/>
<circle cx="383.5" cy="2.90247" r="1.5" fill="#E3E3E3"/>
<circle cx="401.5" cy="2.90247" r="1.5" fill="#E3E3E3"/>
<circle cx="419.5" cy="2.90247" r="1.5" fill="#E3E3E3"/>
<circle cx="437.5" cy="2.90247" r="1.5" fill="#E3E3E3"/>
<circle cx="95.5" cy="20.9025" r="1.5" fill="#E3E3E3"/>
<circle cx="113.5" cy="20.9025" r="1.5" fill="#E3E3E3"/>
<circle cx="131.5" cy="20.9025" r="1.5" fill="#E3E3E3"/>
<circle cx="149.5" cy="20.9025" r="1.5" fill="#E3E3E3"/>
<circle cx="167.5" cy="20.9025" r="1.5" fill="#E3E3E3"/>
<circle cx="185.5" cy="20.9025" r="1.5" fill="#E3E3E3"/>
<circle cx="203.5" cy="20.9025" r="1.5" fill="#E3E3E3"/>
<circle cx="221.5" cy="20.9025" r="1.5" fill="#E3E3E3"/>
<circle cx="239.5" cy="20.9025" r="1.5" fill="#E3E3E3"/>
<circle cx="257.5" cy="20.9025" r="1.5" fill="#E3E3E3"/>
<circle cx="275.5" cy="20.9025" r="1.5" fill="#E3E3E3"/>
<circle cx="293.5" cy="20.9025" r="1.5" fill="#E3E3E3"/>
<circle cx="311.5" cy="20.9025" r="1.5" fill="#E3E3E3"/>
<circle cx="329.5" cy="20.9025" r="1.5" fill="#E3E3E3"/>
<circle cx="347.5" cy="20.9025" r="1.5" fill="#E3E3E3"/>
<circle cx="365.5" cy="20.9025" r="1.5" fill="#E3E3E3"/>
<circle cx="383.5" cy="20.9025" r="1.5" fill="#E3E3E3"/>
<circle cx="401.5" cy="20.9025" r="1.5" fill="#E3E3E3"/>
<circle cx="419.5" cy="20.9025" r="1.5" fill="#E3E3E3"/>
<circle cx="437.5" cy="20.9025" r="1.5" fill="#E3E3E3"/>
<circle cx="95.5" cy="38.9025" r="1.5" fill="#E3E3E3"/>
<circle cx="113.5" cy="38.9025" r="1.5" fill="#E3E3E3"/>
<circle cx="131.5" cy="38.9025" r="1.5" fill="#E3E3E3"/>
<circle cx="149.5" cy="38.9025" r="1.5" fill="#E3E3E3"/>
<circle cx="167.5" cy="38.9025" r="1.5" fill="#E3E3E3"/>
<circle cx="185.5" cy="38.9025" r="1.5" fill="#E3E3E3"/>
<circle cx="203.5" cy="38.9025" r="1.5" fill="#E3E3E3"/>
<circle cx="221.5" cy="38.9025" r="1.5" fill="#E3E3E3"/>
<circle cx="239.5" cy="38.9025" r="1.5" fill="#E3E3E3"/>
<circle cx="257.5" cy="38.9025" r="1.5" fill="#E3E3E3"/>
<circle cx="275.5" cy="38.9025" r="1.5" fill="#E3E3E3"/>
<circle cx="293.5" cy="38.9025" r="1.5" fill="#E3E3E3"/>
<circle cx="311.5" cy="38.9025" r="1.5" fill="#E3E3E3"/>
<circle cx="329.5" cy="38.9025" r="1.5" fill="#E3E3E3"/>
<circle cx="347.5" cy="38.9025" r="1.5" fill="#E3E3E3"/>
<circle cx="365.5" cy="38.9025" r="1.5" fill="#E3E3E3"/>
<circle cx="383.5" cy="38.9025" r="1.5" fill="#E3E3E3"/>
<circle cx="401.5" cy="38.9025" r="1.5" fill="#E3E3E3"/>
<circle cx="419.5" cy="38.9025" r="1.5" fill="#E3E3E3"/>
<circle cx="437.5" cy="38.9025" r="1.5" fill="#E3E3E3"/>
<circle cx="95.5" cy="56.9025" r="1.5" fill="#E3E3E3"/>
<circle cx="113.5" cy="56.9025" r="1.5" fill="#E3E3E3"/>
<circle cx="131.5" cy="56.9025" r="1.5" fill="#E3E3E3"/>
<circle cx="149.5" cy="56.9025" r="1.5" fill="#E3E3E3"/>
<circle cx="167.5" cy="56.9025" r="1.5" fill="#E3E3E3"/>
<circle cx="185.5" cy="56.9025" r="1.5" fill="#E3E3E3"/>
<circle cx="203.5" cy="56.9025" r="1.5" fill="#E3E3E3"/>
<circle cx="221.5" cy="56.9025" r="1.5" fill="#E3E3E3"/>
<circle cx="239.5" cy="56.9025" r="1.5" fill="#E3E3E3"/>
<circle cx="257.5" cy="56.9025" r="1.5" fill="#E3E3E3"/>
<circle cx="275.5" cy="56.9025" r="1.5" fill="#E3E3E3"/>
<circle cx="293.5" cy="56.9025" r="1.5" fill="#E3E3E3"/>
<circle cx="311.5" cy="56.9025" r="1.5" fill="#E3E3E3"/>
<circle cx="329.5" cy="56.9025" r="1.5" fill="#E3E3E3"/>
<circle cx="347.5" cy="56.9025" r="1.5" fill="#E3E3E3"/>
<circle cx="365.5" cy="56.9025" r="1.5" fill="#E3E3E3"/>
<circle cx="383.5" cy="56.9025" r="1.5" fill="#E3E3E3"/>
<circle cx="401.5" cy="56.9025" r="1.5" fill="#E3E3E3"/>
<circle cx="419.5" cy="56.9025" r="1.5" fill="#E3E3E3"/>
<circle cx="437.5" cy="56.9025" r="1.5" fill="#E3E3E3"/>
<circle cx="95.5" cy="74.9025" r="1.5" fill="#E3E3E3"/>
<circle cx="113.5" cy="74.9025" r="1.5" fill="#E3E3E3"/>
<circle cx="131.5" cy="74.9025" r="1.5" fill="#E3E3E3"/>
<circle cx="149.5" cy="74.9025" r="1.5" fill="#E3E3E3"/>
<circle cx="167.5" cy="74.9025" r="1.5" fill="#E3E3E3"/>
<circle cx="185.5" cy="74.9025" r="1.5" fill="#E3E3E3"/>
<circle cx="203.5" cy="74.9025" r="1.5" fill="#E3E3E3"/>
<circle cx="221.5" cy="74.9025" r="1.5" fill="#E3E3E3"/>
<circle cx="239.5" cy="74.9025" r="1.5" fill="#E3E3E3"/>
<circle cx="257.5" cy="74.9025" r="1.5" fill="#E3E3E3"/>
<circle cx="275.5" cy="74.9025" r="1.5" fill="#E3E3E3"/>
<circle cx="293.5" cy="74.9025" r="1.5" fill="#E3E3E3"/>
<circle cx="311.5" cy="74.9025" r="1.5" fill="#E3E3E3"/>
<circle cx="329.5" cy="74.9025" r="1.5" fill="#E3E3E3"/>
<circle cx="347.5" cy="74.9025" r="1.5" fill="#E3E3E3"/>
<circle cx="365.5" cy="74.9025" r="1.5" fill="#E3E3E3"/>
<circle cx="383.5" cy="74.9025" r="1.5" fill="#E3E3E3"/>
<circle cx="401.5" cy="74.9025" r="1.5" fill="#E3E3E3"/>
<circle cx="419.5" cy="74.9025" r="1.5" fill="#E3E3E3"/>
<circle cx="437.5" cy="74.9025" r="1.5" fill="#E3E3E3"/>
<circle cx="95.5" cy="92.9025" r="1.5" fill="#E3E3E3"/>
<circle cx="113.5" cy="92.9025" r="1.5" fill="#E3E3E3"/>
<circle cx="131.5" cy="92.9025" r="1.5" fill="#E3E3E3"/>
<circle cx="149.5" cy="92.9025" r="1.5" fill="#E3E3E3"/>
<circle cx="167.5" cy="92.9025" r="1.5" fill="#E3E3E3"/>
<circle cx="185.5" cy="92.9025" r="1.5" fill="#E3E3E3"/>
<circle cx="203.5" cy="92.9025" r="1.5" fill="#E3E3E3"/>
<circle cx="221.5" cy="92.9025" r="1.5" fill="#E3E3E3"/>
<circle cx="239.5" cy="92.9025" r="1.5" fill="#E3E3E3"/>
<circle cx="257.5" cy="92.9025" r="1.5" fill="#E3E3E3"/>
<circle cx="275.5" cy="92.9025" r="1.5" fill="#E3E3E3"/>
<circle cx="293.5" cy="92.9025" r="1.5" fill="#E3E3E3"/>
<circle cx="311.5" cy="92.9025" r="1.5" fill="#E3E3E3"/>
<circle cx="329.5" cy="92.9025" r="1.5" fill="#E3E3E3"/>
<circle cx="347.5" cy="92.9025" r="1.5" fill="#E3E3E3"/>
<circle cx="365.5" cy="92.9025" r="1.5" fill="#E3E3E3"/>
<circle cx="383.5" cy="92.9025" r="1.5" fill="#E3E3E3"/>
<circle cx="401.5" cy="92.9025" r="1.5" fill="#E3E3E3"/>
<circle cx="419.5" cy="92.9025" r="1.5" fill="#E3E3E3"/>
<circle cx="437.5" cy="92.9025" r="1.5" fill="#E3E3E3"/>
<circle cx="95.5" cy="110.902" r="1.5" fill="#E3E3E3"/>
<circle cx="113.5" cy="110.902" r="1.5" fill="#E3E3E3"/>
<circle cx="131.5" cy="110.902" r="1.5" fill="#E3E3E3"/>
<circle cx="149.5" cy="110.902" r="1.5" fill="#E3E3E3"/>
<circle cx="167.5" cy="110.902" r="1.5" fill="#E3E3E3"/>
<circle cx="185.5" cy="110.902" r="1.5" fill="#E3E3E3"/>
<circle cx="203.5" cy="110.902" r="1.5" fill="#E3E3E3"/>
<circle cx="221.5" cy="110.902" r="1.5" fill="#E3E3E3"/>
<circle cx="239.5" cy="110.902" r="1.5" fill="#E3E3E3"/>
<circle cx="257.5" cy="110.902" r="1.5" fill="#E3E3E3"/>
<circle cx="275.5" cy="110.902" r="1.5" fill="#E3E3E3"/>
<circle cx="293.5" cy="110.902" r="1.5" fill="#E3E3E3"/>
<circle cx="311.5" cy="110.902" r="1.5" fill="#E3E3E3"/>
<circle cx="329.5" cy="110.902" r="1.5" fill="#E3E3E3"/>
<circle cx="347.5" cy="110.902" r="1.5" fill="#E3E3E3"/>
<circle cx="365.5" cy="110.902" r="1.5" fill="#E3E3E3"/>
<circle cx="383.5" cy="110.902" r="1.5" fill="#E3E3E3"/>
<circle cx="401.5" cy="110.902" r="1.5" fill="#E3E3E3"/>
<circle cx="419.5" cy="110.902" r="1.5" fill="#E3E3E3"/>
<circle cx="437.5" cy="110.902" r="1.5" fill="#E3E3E3"/>
<circle cx="95.5" cy="128.902" r="1.5" fill="#E3E3E3"/>
<circle cx="113.5" cy="128.902" r="1.5" fill="#E3E3E3"/>
<circle cx="131.5" cy="128.902" r="1.5" fill="#E3E3E3"/>
<circle cx="149.5" cy="128.902" r="1.5" fill="#E3E3E3"/>
<circle cx="167.5" cy="128.902" r="1.5" fill="#E3E3E3"/>
<circle cx="185.5" cy="128.902" r="1.5" fill="#E3E3E3"/>
<circle cx="203.5" cy="128.902" r="1.5" fill="#E3E3E3"/>
<circle cx="221.5" cy="128.902" r="1.5" fill="#E3E3E3"/>
<circle cx="239.5" cy="128.902" r="1.5" fill="#E3E3E3"/>
<circle cx="257.5" cy="128.902" r="1.5" fill="#E3E3E3"/>
<circle cx="275.5" cy="128.902" r="1.5" fill="#E3E3E3"/>
<circle cx="293.5" cy="128.902" r="1.5" fill="#E3E3E3"/>
<circle cx="311.5" cy="128.902" r="1.5" fill="#E3E3E3"/>
<circle cx="329.5" cy="128.902" r="1.5" fill="#E3E3E3"/>
<circle cx="347.5" cy="128.902" r="1.5" fill="#E3E3E3"/>
<circle cx="365.5" cy="128.902" r="1.5" fill="#E3E3E3"/>
<circle cx="383.5" cy="128.902" r="1.5" fill="#E3E3E3"/>
<circle cx="401.5" cy="128.902" r="1.5" fill="#E3E3E3"/>
<circle cx="419.5" cy="128.902" r="1.5" fill="#E3E3E3"/>
<circle cx="437.5" cy="128.902" r="1.5" fill="#E3E3E3"/>
<circle cx="95.5" cy="146.902" r="1.5" fill="#E3E3E3"/>
<circle cx="113.5" cy="146.902" r="1.5" fill="#E3E3E3"/>
<circle cx="131.5" cy="146.902" r="1.5" fill="#E3E3E3"/>
<circle cx="149.5" cy="146.902" r="1.5" fill="#E3E3E3"/>
<circle cx="167.5" cy="146.902" r="1.5" fill="#E3E3E3"/>
<circle cx="185.5" cy="146.902" r="1.5" fill="#E3E3E3"/>
<circle cx="203.5" cy="146.902" r="1.5" fill="#E3E3E3"/>
<circle cx="221.5" cy="146.902" r="1.5" fill="#E3E3E3"/>
<circle cx="239.5" cy="146.902" r="1.5" fill="#E3E3E3"/>
<circle cx="257.5" cy="146.902" r="1.5" fill="#E3E3E3"/>
<circle cx="275.5" cy="146.902" r="1.5" fill="#E3E3E3"/>
<circle cx="293.5" cy="146.902" r="1.5" fill="#E3E3E3"/>
<circle cx="311.5" cy="146.902" r="1.5" fill="#E3E3E3"/>
<circle cx="329.5" cy="146.902" r="1.5" fill="#E3E3E3"/>
<circle cx="347.5" cy="146.902" r="1.5" fill="#E3E3E3"/>
<circle cx="365.5" cy="146.902" r="1.5" fill="#E3E3E3"/>
<circle cx="383.5" cy="146.902" r="1.5" fill="#E3E3E3"/>
<circle cx="401.5" cy="146.902" r="1.5" fill="#E3E3E3"/>
<circle cx="419.5" cy="146.902" r="1.5" fill="#E3E3E3"/>
<circle cx="437.5" cy="146.902" r="1.5" fill="#E3E3E3"/>
<circle cx="95.5" cy="164.902" r="1.5" fill="#E3E3E3"/>
<circle cx="113.5" cy="164.902" r="1.5" fill="#E3E3E3"/>
<circle cx="131.5" cy="164.902" r="1.5" fill="#E3E3E3"/>
<circle cx="149.5" cy="164.902" r="1.5" fill="#E3E3E3"/>
<circle cx="167.5" cy="164.902" r="1.5" fill="#E3E3E3"/>
<circle cx="185.5" cy="164.902" r="1.5" fill="#E3E3E3"/>
<circle cx="203.5" cy="164.902" r="1.5" fill="#E3E3E3"/>
<circle cx="221.5" cy="164.902" r="1.5" fill="#E3E3E3"/>
<circle cx="239.5" cy="164.902" r="1.5" fill="#E3E3E3"/>
<circle cx="257.5" cy="164.902" r="1.5" fill="#E3E3E3"/>
<circle cx="275.5" cy="164.902" r="1.5" fill="#E3E3E3"/>
<circle cx="293.5" cy="164.902" r="1.5" fill="#E3E3E3"/>
<circle cx="311.5" cy="164.902" r="1.5" fill="#E3E3E3"/>
<circle cx="329.5" cy="164.902" r="1.5" fill="#E3E3E3"/>
<circle cx="347.5" cy="164.902" r="1.5" fill="#E3E3E3"/>
<circle cx="365.5" cy="164.902" r="1.5" fill="#E3E3E3"/>
<circle cx="383.5" cy="164.902" r="1.5" fill="#E3E3E3"/>
<circle cx="401.5" cy="164.902" r="1.5" fill="#E3E3E3"/>
<circle cx="419.5" cy="164.902" r="1.5" fill="#E3E3E3"/>
<circle cx="437.5" cy="164.902" r="1.5" fill="#E3E3E3"/>
<circle cx="95.5" cy="182.902" r="1.5" fill="#E3E3E3"/>
<circle cx="113.5" cy="182.902" r="1.5" fill="#E3E3E3"/>
<circle cx="131.5" cy="182.902" r="1.5" fill="#E3E3E3"/>
<circle cx="149.5" cy="182.902" r="1.5" fill="#E3E3E3"/>
<circle cx="167.5" cy="182.902" r="1.5" fill="#E3E3E3"/>
<circle cx="185.5" cy="182.902" r="1.5" fill="#E3E3E3"/>
<circle cx="203.5" cy="182.902" r="1.5" fill="#E3E3E3"/>
<circle cx="221.5" cy="182.902" r="1.5" fill="#E3E3E3"/>
<circle cx="239.5" cy="182.902" r="1.5" fill="#E3E3E3"/>
<circle cx="257.5" cy="182.902" r="1.5" fill="#E3E3E3"/>
<circle cx="275.5" cy="182.902" r="1.5" fill="#E3E3E3"/>
<circle cx="293.5" cy="182.902" r="1.5" fill="#E3E3E3"/>
<circle cx="311.5" cy="182.902" r="1.5" fill="#E3E3E3"/>
<circle cx="329.5" cy="182.902" r="1.5" fill="#E3E3E3"/>
<circle cx="347.5" cy="182.902" r="1.5" fill="#E3E3E3"/>
<circle cx="365.5" cy="182.902" r="1.5" fill="#E3E3E3"/>
<circle cx="383.5" cy="182.902" r="1.5" fill="#E3E3E3"/>
<circle cx="401.5" cy="182.902" r="1.5" fill="#E3E3E3"/>
<circle cx="419.5" cy="182.902" r="1.5" fill="#E3E3E3"/>
<circle cx="437.5" cy="182.902" r="1.5" fill="#E3E3E3"/>
<circle cx="95.5" cy="200.902" r="1.5" fill="#E3E3E3"/>
<circle cx="113.5" cy="200.902" r="1.5" fill="#E3E3E3"/>
<circle cx="131.5" cy="200.902" r="1.5" fill="#E3E3E3"/>
<circle cx="149.5" cy="200.902" r="1.5" fill="#E3E3E3"/>
<circle cx="167.5" cy="200.902" r="1.5" fill="#E3E3E3"/>
<circle cx="185.5" cy="200.902" r="1.5" fill="#E3E3E3"/>
<circle cx="203.5" cy="200.902" r="1.5" fill="#E3E3E3"/>
<circle cx="221.5" cy="200.902" r="1.5" fill="#E3E3E3"/>
<circle cx="239.5" cy="200.902" r="1.5" fill="#E3E3E3"/>
<circle cx="257.5" cy="200.902" r="1.5" fill="#E3E3E3"/>
<circle cx="275.5" cy="200.902" r="1.5" fill="#E3E3E3"/>
<circle cx="293.5" cy="200.902" r="1.5" fill="#E3E3E3"/>
<circle cx="311.5" cy="200.902" r="1.5" fill="#E3E3E3"/>
<circle cx="329.5" cy="200.902" r="1.5" fill="#E3E3E3"/>
<circle cx="347.5" cy="200.902" r="1.5" fill="#E3E3E3"/>
<circle cx="365.5" cy="200.902" r="1.5" fill="#E3E3E3"/>
<circle cx="383.5" cy="200.902" r="1.5" fill="#E3E3E3"/>
<circle cx="401.5" cy="200.902" r="1.5" fill="#E3E3E3"/>
<circle cx="419.5" cy="200.902" r="1.5" fill="#E3E3E3"/>
<circle cx="437.5" cy="200.902" r="1.5" fill="#E3E3E3"/>
<circle cx="95.5" cy="218.902" r="1.5" fill="#E3E3E3"/>
<circle cx="113.5" cy="218.902" r="1.5" fill="#E3E3E3"/>
<circle cx="131.5" cy="218.902" r="1.5" fill="#E3E3E3"/>
<circle cx="149.5" cy="218.902" r="1.5" fill="#E3E3E3"/>
<circle cx="167.5" cy="218.902" r="1.5" fill="#E3E3E3"/>
<circle cx="185.5" cy="218.902" r="1.5" fill="#E3E3E3"/>
<circle cx="203.5" cy="218.902" r="1.5" fill="#E3E3E3"/>
<circle cx="221.5" cy="218.902" r="1.5" fill="#E3E3E3"/>
<circle cx="239.5" cy="218.902" r="1.5" fill="#E3E3E3"/>
<circle cx="257.5" cy="218.902" r="1.5" fill="#E3E3E3"/>
<circle cx="275.5" cy="218.902" r="1.5" fill="#E3E3E3"/>
<circle cx="293.5" cy="218.902" r="1.5" fill="#E3E3E3"/>
<circle cx="311.5" cy="218.902" r="1.5" fill="#E3E3E3"/>
<circle cx="329.5" cy="218.902" r="1.5" fill="#E3E3E3"/>
<circle cx="347.5" cy="218.902" r="1.5" fill="#E3E3E3"/>
<circle cx="365.5" cy="218.902" r="1.5" fill="#E3E3E3"/>
<circle cx="383.5" cy="218.902" r="1.5" fill="#E3E3E3"/>
<circle cx="401.5" cy="218.902" r="1.5" fill="#E3E3E3"/>
<circle cx="419.5" cy="218.902" r="1.5" fill="#E3E3E3"/>
<circle cx="437.5" cy="218.902" r="1.5" fill="#E3E3E3"/>
<circle cx="95.5" cy="236.902" r="1.5" fill="#E3E3E3"/>
<circle cx="113.5" cy="236.902" r="1.5" fill="#E3E3E3"/>
<circle cx="131.5" cy="236.902" r="1.5" fill="#E3E3E3"/>
<circle cx="149.5" cy="236.902" r="1.5" fill="#E3E3E3"/>
<circle cx="167.5" cy="236.902" r="1.5" fill="#E3E3E3"/>
<circle cx="185.5" cy="236.902" r="1.5" fill="#E3E3E3"/>
<circle cx="203.5" cy="236.902" r="1.5" fill="#E3E3E3"/>
<circle cx="221.5" cy="236.902" r="1.5" fill="#E3E3E3"/>
<circle cx="239.5" cy="236.902" r="1.5" fill="#E3E3E3"/>
<circle cx="257.5" cy="236.902" r="1.5" fill="#E3E3E3"/>
<circle cx="275.5" cy="236.902" r="1.5" fill="#E3E3E3"/>
<circle cx="293.5" cy="236.902" r="1.5" fill="#E3E3E3"/>
<circle cx="311.5" cy="236.902" r="1.5" fill="#E3E3E3"/>
<circle cx="329.5" cy="236.902" r="1.5" fill="#E3E3E3"/>
<circle cx="347.5" cy="236.902" r="1.5" fill="#E3E3E3"/>
<circle cx="365.5" cy="236.902" r="1.5" fill="#E3E3E3"/>
<circle cx="383.5" cy="236.902" r="1.5" fill="#E3E3E3"/>
<circle cx="401.5" cy="236.902" r="1.5" fill="#E3E3E3"/>
<circle cx="419.5" cy="236.902" r="1.5" fill="#E3E3E3"/>
<circle cx="437.5" cy="236.902" r="1.5" fill="#E3E3E3"/>
<circle cx="95.5" cy="254.902" r="1.5" fill="#E3E3E3"/>
<circle cx="113.5" cy="254.902" r="1.5" fill="#E3E3E3"/>
<circle cx="131.5" cy="254.902" r="1.5" fill="#E3E3E3"/>
<circle cx="149.5" cy="254.902" r="1.5" fill="#E3E3E3"/>
<circle cx="167.5" cy="254.902" r="1.5" fill="#E3E3E3"/>
<circle cx="185.5" cy="254.902" r="1.5" fill="#E3E3E3"/>
<circle cx="203.5" cy="254.902" r="1.5" fill="#E3E3E3"/>
<circle cx="221.5" cy="254.902" r="1.5" fill="#E3E3E3"/>
<circle cx="239.5" cy="254.902" r="1.5" fill="#E3E3E3"/>
<circle cx="257.5" cy="254.902" r="1.5" fill="#E3E3E3"/>
<circle cx="275.5" cy="254.902" r="1.5" fill="#E3E3E3"/>
<circle cx="293.5" cy="254.902" r="1.5" fill="#E3E3E3"/>
<circle cx="311.5" cy="254.902" r="1.5" fill="#E3E3E3"/>
<circle cx="329.5" cy="254.902" r="1.5" fill="#E3E3E3"/>
<circle cx="347.5" cy="254.902" r="1.5" fill="#E3E3E3"/>
<circle cx="365.5" cy="254.902" r="1.5" fill="#E3E3E3"/>
<circle cx="383.5" cy="254.902" r="1.5" fill="#E3E3E3"/>
<circle cx="401.5" cy="254.902" r="1.5" fill="#E3E3E3"/>
<circle cx="419.5" cy="254.902" r="1.5" fill="#E3E3E3"/>
<circle cx="437.5" cy="254.902" r="1.5" fill="#E3E3E3"/>
<circle cx="95.5" cy="272.902" r="1.5" fill="#E3E3E3"/>
<circle cx="113.5" cy="272.902" r="1.5" fill="#E3E3E3"/>
<circle cx="131.5" cy="272.902" r="1.5" fill="#E3E3E3"/>
<circle cx="149.5" cy="272.902" r="1.5" fill="#E3E3E3"/>
<circle cx="167.5" cy="272.902" r="1.5" fill="#E3E3E3"/>
<circle cx="185.5" cy="272.902" r="1.5" fill="#E3E3E3"/>
<circle cx="203.5" cy="272.902" r="1.5" fill="#E3E3E3"/>
<circle cx="221.5" cy="272.902" r="1.5" fill="#E3E3E3"/>
<circle cx="239.5" cy="272.902" r="1.5" fill="#E3E3E3"/>
<circle cx="257.5" cy="272.902" r="1.5" fill="#E3E3E3"/>
<circle cx="275.5" cy="272.902" r="1.5" fill="#E3E3E3"/>
<circle cx="293.5" cy="272.902" r="1.5" fill="#E3E3E3"/>
<circle cx="311.5" cy="272.902" r="1.5" fill="#E3E3E3"/>
<circle cx="329.5" cy="272.902" r="1.5" fill="#E3E3E3"/>
<circle cx="347.5" cy="272.902" r="1.5" fill="#E3E3E3"/>
<circle cx="365.5" cy="272.902" r="1.5" fill="#E3E3E3"/>
<circle cx="383.5" cy="272.902" r="1.5" fill="#E3E3E3"/>
<circle cx="401.5" cy="272.902" r="1.5" fill="#E3E3E3"/>
<circle cx="419.5" cy="272.902" r="1.5" fill="#E3E3E3"/>
<circle cx="437.5" cy="272.902" r="1.5" fill="#E3E3E3"/>
<circle cx="95.5" cy="290.902" r="1.5" fill="#E3E3E3"/>
<circle cx="113.5" cy="290.902" r="1.5" fill="#E3E3E3"/>
<circle cx="131.5" cy="290.902" r="1.5" fill="#E3E3E3"/>
<circle cx="149.5" cy="290.902" r="1.5" fill="#E3E3E3"/>
<circle cx="167.5" cy="290.902" r="1.5" fill="#E3E3E3"/>
<circle cx="185.5" cy="290.902" r="1.5" fill="#E3E3E3"/>
<circle cx="203.5" cy="290.902" r="1.5" fill="#E3E3E3"/>
<circle cx="221.5" cy="290.902" r="1.5" fill="#E3E3E3"/>
<circle cx="239.5" cy="290.902" r="1.5" fill="#E3E3E3"/>
<circle cx="257.5" cy="290.902" r="1.5" fill="#E3E3E3"/>
<circle cx="275.5" cy="290.902" r="1.5" fill="#E3E3E3"/>
<circle cx="293.5" cy="290.902" r="1.5" fill="#E3E3E3"/>
<circle cx="311.5" cy="290.902" r="1.5" fill="#E3E3E3"/>
<circle cx="329.5" cy="290.902" r="1.5" fill="#E3E3E3"/>
<circle cx="347.5" cy="290.902" r="1.5" fill="#E3E3E3"/>
<circle cx="365.5" cy="290.902" r="1.5" fill="#E3E3E3"/>
<circle cx="383.5" cy="290.902" r="1.5" fill="#E3E3E3"/>
<circle cx="401.5" cy="290.902" r="1.5" fill="#E3E3E3"/>
<circle cx="419.5" cy="290.902" r="1.5" fill="#E3E3E3"/>
<circle cx="437.5" cy="290.902" r="1.5" fill="#E3E3E3"/>
<circle cx="95.5" cy="308.902" r="1.5" fill="#E3E3E3"/>
<circle cx="113.5" cy="308.902" r="1.5" fill="#E3E3E3"/>
<circle cx="131.5" cy="308.902" r="1.5" fill="#E3E3E3"/>
<circle cx="149.5" cy="308.902" r="1.5" fill="#E3E3E3"/>
<circle cx="167.5" cy="308.902" r="1.5" fill="#E3E3E3"/>
<circle cx="185.5" cy="308.902" r="1.5" fill="#E3E3E3"/>
<circle cx="203.5" cy="308.902" r="1.5" fill="#E3E3E3"/>
<circle cx="221.5" cy="308.902" r="1.5" fill="#E3E3E3"/>
<circle cx="239.5" cy="308.902" r="1.5" fill="#E3E3E3"/>
<circle cx="257.5" cy="308.902" r="1.5" fill="#E3E3E3"/>
<circle cx="275.5" cy="308.902" r="1.5" fill="#E3E3E3"/>
<circle cx="293.5" cy="308.902" r="1.5" fill="#E3E3E3"/>
<circle cx="311.5" cy="308.902" r="1.5" fill="#E3E3E3"/>
<circle cx="329.5" cy="308.902" r="1.5" fill="#E3E3E3"/>
<circle cx="347.5" cy="308.902" r="1.5" fill="#E3E3E3"/>
<circle cx="365.5" cy="308.902" r="1.5" fill="#E3E3E3"/>
<circle cx="383.5" cy="308.902" r="1.5" fill="#E3E3E3"/>
<circle cx="401.5" cy="308.902" r="1.5" fill="#E3E3E3"/>
<circle cx="419.5" cy="308.902" r="1.5" fill="#E3E3E3"/>
<circle cx="437.5" cy="308.902" r="1.5" fill="#E3E3E3"/>
<circle cx="95.5" cy="326.902" r="1.5" fill="#E3E3E3"/>
<circle cx="113.5" cy="326.902" r="1.5" fill="#E3E3E3"/>
<circle cx="131.5" cy="326.902" r="1.5" fill="#E3E3E3"/>
<circle cx="149.5" cy="326.902" r="1.5" fill="#E3E3E3"/>
<circle cx="167.5" cy="326.902" r="1.5" fill="#E3E3E3"/>
<circle cx="185.5" cy="326.902" r="1.5" fill="#E3E3E3"/>
<circle cx="203.5" cy="326.902" r="1.5" fill="#E3E3E3"/>
<circle cx="221.5" cy="326.902" r="1.5" fill="#E3E3E3"/>
<circle cx="239.5" cy="326.902" r="1.5" fill="#E3E3E3"/>
<circle cx="257.5" cy="326.902" r="1.5" fill="#E3E3E3"/>
<circle cx="275.5" cy="326.902" r="1.5" fill="#E3E3E3"/>
<circle cx="293.5" cy="326.902" r="1.5" fill="#E3E3E3"/>
<circle cx="311.5" cy="326.902" r="1.5" fill="#E3E3E3"/>
<circle cx="329.5" cy="326.902" r="1.5" fill="#E3E3E3"/>
<circle cx="347.5" cy="326.902" r="1.5" fill="#E3E3E3"/>
<circle cx="365.5" cy="326.902" r="1.5" fill="#E3E3E3"/>
<circle cx="383.5" cy="326.902" r="1.5" fill="#E3E3E3"/>
<circle cx="401.5" cy="326.902" r="1.5" fill="#E3E3E3"/>
<circle cx="419.5" cy="326.902" r="1.5" fill="#E3E3E3"/>
<circle cx="437.5" cy="326.902" r="1.5" fill="#E3E3E3"/>
<circle cx="95.5" cy="344.902" r="1.5" fill="#E3E3E3"/>
<circle cx="113.5" cy="344.902" r="1.5" fill="#E3E3E3"/>
<circle cx="131.5" cy="344.902" r="1.5" fill="#E3E3E3"/>
<circle cx="149.5" cy="344.902" r="1.5" fill="#E3E3E3"/>
<circle cx="167.5" cy="344.902" r="1.5" fill="#E3E3E3"/>
<circle cx="185.5" cy="344.902" r="1.5" fill="#E3E3E3"/>
<circle cx="203.5" cy="344.902" r="1.5" fill="#E3E3E3"/>
<circle cx="221.5" cy="344.902" r="1.5" fill="#E3E3E3"/>
<circle cx="239.5" cy="344.902" r="1.5" fill="#E3E3E3"/>
<circle cx="257.5" cy="344.902" r="1.5" fill="#E3E3E3"/>
<circle cx="275.5" cy="344.902" r="1.5" fill="#E3E3E3"/>
<circle cx="293.5" cy="344.902" r="1.5" fill="#E3E3E3"/>
<circle cx="311.5" cy="344.902" r="1.5" fill="#E3E3E3"/>
<circle cx="329.5" cy="344.902" r="1.5" fill="#E3E3E3"/>
<circle cx="347.5" cy="344.902" r="1.5" fill="#E3E3E3"/>
<circle cx="365.5" cy="344.902" r="1.5" fill="#E3E3E3"/>
<circle cx="383.5" cy="344.902" r="1.5" fill="#E3E3E3"/>
<circle cx="401.5" cy="344.902" r="1.5" fill="#E3E3E3"/>
<circle cx="419.5" cy="344.902" r="1.5" fill="#E3E3E3"/>
<circle cx="437.5" cy="344.902" r="1.5" fill="#E3E3E3"/>
<rect y="0.402466" width="453" height="348" fill="url(#paint0_radial_27_1301)"/>
<path d="M-11.5696 292.32C-26.6742 289.609 -39.6847 276.351 -50.2744 261.541C-60.8466 246.756 -68.9739 230.401 -67.1171 215.079C-65.2603 199.757 -53.4063 185.385 -39.1707 176.693C-24.9175 168.024 -8.29361 164.969 7.69483 167.217C23.7009 169.49 39.0298 177.06 49.9116 189.588C60.7934 202.115 67.2039 219.617 64.4633 235.401C61.7161 251.227 49.7761 265.33 35.2484 276.305C20.679 287.274 3.52846 295.073 -11.5696 292.32Z" fill="#FE840E"/>
</g>
<defs>
<radialGradient id="paint0_radial_27_1301" cx="0" cy="0" r="1" gradientUnits="userSpaceOnUse" gradientTransform="translate(317.5 162.402) rotate(180) scale(218 283.776)">
<stop stop-color="white" stop-opacity="0"/>
<stop offset="1" stop-color="white"/>
</radialGradient>
</defs>
</svg>
