<svg width="756" height="1071" viewBox="0 0 756 1071" fill="none" xmlns="http://www.w3.org/2000/svg">
<path d="M767.988 687.597C713.864 762.381 634.108 809.373 552.922 817.653C471.603 825.983 388.989 795.549 311.806 738.354C234.571 681.024 162.819 597.066 162.417 509.195C161.964 421.189 232.592 329.373 314.352 298.485C395.928 267.514 488.769 297.42 584.771 325.966C680.723 354.378 779.919 381.245 815.287 445.808C850.572 510.555 822.163 612.946 767.988 687.597Z" fill="#FE840E"/>
<path d="M277.209 372.003C345.099 359.814 419.998 377.885 474.666 423.997C529.198 470.146 563.498 544.335 557.086 613.841C550.624 683.434 503.45 748.343 442.718 785.333C381.937 822.409 307.698 831.394 240.905 811.883C174.112 792.373 114.814 744.28 90.4802 682.427C66.1469 620.574 77.0017 544.972 112.764 485.83C148.563 426.824 209.406 384.241 277.209 372.003Z" fill="#FEB447"/>
</svg>
