<svg width="222" height="204" viewBox="0 0 222 204" fill="none" xmlns="http://www.w3.org/2000/svg">
<path d="M31.8165 91.7251C31.8165 91.7251 69.1982 82.3474 108.697 88.0022C119.808 89.5938 129.652 96.059 135.647 105.55C146.453 122.649 161.73 153.12 158.499 184.901L141.538 189.095C141.538 189.095 129.817 151.381 116.625 136.031C116.625 136.031 101.001 171.642 101.793 191.198C101.814 191.751 101.85 192.291 101.899 192.818C103.692 211.95 26.9033 196.387 26.9033 196.387L31.8165 91.7251Z" fill="url(#paint0_linear_1_3816)"/>
<path d="M61.9824 59.588L63.6875 86.1033C63.8458 88.5698 65.444 90.6602 67.6809 91.3226C72.8356 92.8482 82.571 94.6892 92.1163 90.8436C93.8609 90.1402 94.7583 88.0709 94.1711 86.1851L81.5495 45.6401L61.9824 59.588Z" fill="url(#paint1_linear_1_3816)"/>
<path d="M57.7159 21.1865C57.7159 21.1865 49.6526 39.7084 49.1102 49.4306C48.5678 59.1528 46.4735 65.4609 57.7159 67.4193C68.9584 69.3778 78.4272 63.777 83.5568 54.0931C83.5568 54.0931 91.5964 39.17 89.7924 33.0598C87.991 26.9483 57.7159 21.1865 57.7159 21.1865Z" fill="url(#paint2_linear_1_3816)"/>
<path d="M79.7162 47.13H78.2962C78.2962 47.13 84.1503 35.1195 79.0048 33.0093C73.8607 30.8991 53.4806 26.7434 49.0848 19.5128C44.8446 12.5409 48.6268 3.53662 54.2817 1.01732C54.6393 0.857638 55.063 1.02524 55.2451 1.37232L55.7122 2.25915C56.0329 2.86621 56.9303 2.77515 57.1204 2.11531C57.3025 1.48845 58.1458 1.35252 58.4902 1.90415C59.8363 4.06713 63.48 7.58412 73.2563 9.38814C87.1262 11.947 96.2941 17.561 96.5211 27.1473C96.5343 27.7543 97.1836 28.0895 97.7022 27.7728C98.7276 27.1486 100.365 26.8569 102.556 28.6979C106.366 31.9008 104.806 40.2082 96.4578 47.0403C96.0605 47.3649 96.0632 47.9852 96.4934 48.265C98.0058 49.2508 100.261 51.5933 94.4162 54.7209C88.4367 57.9172 84.8973 57.5688 83.5604 57.2257C83.2015 57.1346 82.9586 56.8074 82.9824 56.4365L83.5076 47.9403C83.534 47.5009 83.1856 47.13 82.7449 47.13H79.7162Z" fill="url(#paint3_linear_1_3816)"/>
<path d="M79.3682 48.9076C79.3682 48.9076 82.4444 37.0753 87.7495 40.393C93.0547 43.712 84.9967 53.6506 80.7314 54.094L79.3682 48.9076Z" fill="url(#paint4_linear_1_3816)"/>
<path d="M32.05 167.964C30.3951 156.272 42.5033 139.083 47.5129 132.561C48.9447 130.696 49.7445 128.414 49.7656 126.063C49.9121 109.502 42.9599 98.8678 31.8178 91.7256C31.8178 91.7256 -8.61765 138.833 1.6786 175.067C2.78978 178.977 4.51066 182.337 6.69475 185.223C8.31665 171.572 24.0989 168.594 32.05 167.964Z" fill="url(#paint5_linear_1_3816)"/>
<path d="M32.8051 163.441L31.2637 163.265C32.5702 151.798 42.6302 137.642 46.8968 132.089L48.1267 133.034C43.9406 138.485 34.0667 152.361 32.8051 163.441Z" fill="url(#paint6_linear_1_3816)"/>
<path d="M32.3663 169.583C32.2264 169.059 32.1261 168.514 32.0496 167.963C24.0985 168.594 8.31624 171.571 6.69434 185.224C24.7398 209.089 74.4751 200.479 74.4751 200.479V191.194C74.4764 191.194 36.2766 184.097 32.3663 169.583Z" fill="url(#paint7_linear_1_3816)"/>
<path d="M69.6953 197.916C69.6953 197.916 77.0381 180.587 89.9777 186.734C102.92 192.88 101.901 196.902 101.901 196.902L69.6953 197.916Z" fill="url(#paint8_linear_1_3816)"/>
<path d="M68.0458 201.511C68.1487 202.822 69.2665 203.819 70.5796 203.775L137.635 201.436C138.678 201.399 139.584 200.709 139.895 199.713L141.842 193.485C142.318 191.955 141.228 190.384 139.627 190.299L115.175 189.001C114.953 188.989 114.73 189.007 114.512 189.056L69.9646 198.922C68.7663 199.185 67.9495 200.291 68.0458 201.511Z" fill="url(#paint9_linear_1_3816)"/>
<path d="M112.993 199.064L114.838 190.467L139.956 191.666L138.304 198.798L112.993 199.064Z" fill="url(#paint10_linear_1_3816)"/>
<path d="M100.116 106.524C98.6938 118.14 92.2986 165.334 90.4682 178.817C90.2108 180.713 91.7166 182.38 93.6302 182.326L202.11 179.221C203.53 179.18 204.742 178.181 205.049 176.794L221.924 100.795C222.37 98.7869 220.772 96.9089 218.717 97.029L103.009 103.807C101.517 103.895 100.297 105.037 100.116 106.524Z" fill="url(#paint11_linear_1_3816)"/>
<path d="M143.722 154.182L127.69 199.689L164.972 200.48L168.076 154.457C168.222 152.296 166.431 150.504 164.271 150.647L146.86 151.803C145.431 151.898 144.2 152.833 143.722 154.182Z" fill="url(#paint12_linear_1_3816)"/>
<path d="M112.575 200.337C112.165 201.59 113.098 202.878 114.416 202.878H172.8C173.87 202.878 174.736 202.012 174.736 200.942V198.438C174.736 197.336 173.818 196.456 172.718 196.504L114.334 199.007C113.525 199.043 112.827 199.572 112.575 200.337Z" fill="url(#paint13_linear_1_3816)"/>
<path d="M98.4787 154.535L97.708 154.437L103.038 112.402C103.368 109.795 105.513 107.789 108.136 107.63L208.124 101.591L208.17 102.366L108.182 108.405C105.932 108.541 104.091 110.263 103.809 112.501L98.4787 154.535Z" fill="#FEB447"/>
<path d="M96.9692 166.508L96.1982 166.409L95.0271 175.506L95.798 175.605L96.9692 166.508Z" fill="#FEB447"/>
<defs>
<linearGradient id="paint0_linear_1_3816" x1="57.7508" y1="115.671" x2="153.15" y2="258.77" gradientUnits="userSpaceOnUse">
<stop stop-color="#FEB447"/>
<stop offset="1" stop-color="#D93C65"/>
</linearGradient>
<linearGradient id="paint1_linear_1_3816" x1="78.8688" y1="121.18" x2="78.0932" y2="68.4374" gradientUnits="userSpaceOnUse">
<stop stop-color="#F9B776"/>
<stop offset="1" stop-color="#F47960"/>
</linearGradient>
<linearGradient id="paint2_linear_1_3816" x1="56.0268" y1="37.4895" x2="102.123" y2="72.7601" gradientUnits="userSpaceOnUse">
<stop stop-color="#F9B776"/>
<stop offset="1" stop-color="#F47960"/>
</linearGradient>
<linearGradient id="paint3_linear_1_3816" x1="88.4131" y1="9.64548" x2="46.6714" y2="63.388" gradientUnits="userSpaceOnUse">
<stop stop-color="#CB236D"/>
<stop offset="1" stop-color="#F06C46"/>
</linearGradient>
<linearGradient id="paint4_linear_1_3816" x1="61.7439" y1="30.0195" x2="107.838" y2="65.2885" gradientUnits="userSpaceOnUse">
<stop stop-color="#F9B776"/>
<stop offset="1" stop-color="#F47960"/>
</linearGradient>
<linearGradient id="paint5_linear_1_3816" x1="22.0263" y1="139.488" x2="117.425" y2="282.585" gradientUnits="userSpaceOnUse">
<stop stop-color="#FEB447"/>
<stop offset="1" stop-color="#D93C65"/>
</linearGradient>
<linearGradient id="paint6_linear_1_3816" x1="50.0005" y1="131.776" x2="31.0005" y2="166.276" gradientUnits="userSpaceOnUse">
<stop stop-color="#FDF53F"/>
<stop offset="1" stop-color="#FEB447"/>
</linearGradient>
<linearGradient id="paint7_linear_1_3816" x1="27.7982" y1="154.559" x2="57.2725" y2="232.123" gradientUnits="userSpaceOnUse">
<stop stop-color="#F9B776"/>
<stop offset="1" stop-color="#F47960"/>
</linearGradient>
<linearGradient id="paint8_linear_1_3816" x1="64.3682" y1="140.662" x2="93.8423" y2="218.226" gradientUnits="userSpaceOnUse">
<stop stop-color="#F9B776"/>
<stop offset="1" stop-color="#F47960"/>
</linearGradient>
<linearGradient id="paint9_linear_1_3816" x1="128.339" y1="168.828" x2="113.085" y2="188.477" gradientUnits="userSpaceOnUse">
<stop stop-color="#F5FA72"/>
<stop offset="1" stop-color="#C81F56"/>
</linearGradient>
<linearGradient id="paint10_linear_1_3816" x1="139.736" y1="177.676" x2="124.482" y2="197.325" gradientUnits="userSpaceOnUse">
<stop stop-color="#FEB447"/>
<stop offset="1" stop-color="#FE840E"/>
</linearGradient>
<linearGradient id="paint11_linear_1_3816" x1="144.896" y1="110.723" x2="172.043" y2="180.142" gradientUnits="userSpaceOnUse">
<stop stop-color="#C81F56"/>
<stop offset="1" stop-color="#F73866"/>
</linearGradient>
<linearGradient id="paint12_linear_1_3816" x1="141.63" y1="138.322" x2="157.143" y2="233.726" gradientUnits="userSpaceOnUse">
<stop stop-color="#C81F56"/>
<stop offset="1" stop-color="#F73865"/>
</linearGradient>
<linearGradient id="paint13_linear_1_3816" x1="134.645" y1="193.815" x2="180.409" y2="223.807" gradientUnits="userSpaceOnUse">
<stop stop-color="#C81F56"/>
<stop offset="1" stop-color="#C81F56"/>
</linearGradient>
</defs>
</svg>
