<svg width="118" height="147" fill="none" xmlns="http://www.w3.org/2000/svg"><circle cx="58.659" cy="59.061" r="57.159" stroke="url(#paint0_linear_1_3765)" stroke-width="3"/><path d="M54.715 145.403h9.843l-2.029-55.686-1.273-34.966-1.006-27.627-.614-16.835-.393 10.792-.896 24.605-.99 27.196-.944 25.9-1.698 46.621z" fill="#fff"/><path d="M33.688 145.403h51.45m-67.11-85.006l12.08 12.08m26.305 26.305l-1.698 46.621h9.843l-2.029-55.686m-6.116 9.065l.944-25.9m-.944 25.9L35.03 77.398m65.767-25.948L89.165 63.081M62.529 89.717L61.256 54.75m1.273 34.966L73.507 78.74M40.398 55.923l8.948 8.948m8.01 8.01l.991-27.195m-.99 27.196l-8.01-8.01m25.948-24.16l-5.9 5.901m-8.14 8.138L60.25 27.124m1.006 27.627l8.138-8.138m14.402-14.401l-4.25 4.25M38.16 25.5l9.396 9.396m10.79 10.79l.896-24.605m-.896 24.605l-10.79-10.79M70.82 16.553L60.25 27.124m0 0l-.614-16.835-.393 10.792m-6.318-6.318l6.318 6.318M33.687 34.896h13.87m1.79 16.553v13.422m28.185-10.12l-8.138-8.138m19.77 4.837v11.632m0 0L73.507 78.74m27.291-9.396H83.796m-2.237 17.449l-8.053-8.053M30.108 60.397v12.08m0 0l4.922 4.921m-21.475 0h6.263m6.264 0h8.948" stroke="url(#paint1_linear_1_3765)" stroke-width="3" stroke-linecap="round" stroke-linejoin="round"/><defs><linearGradient id="paint0_linear_1_3765" x1="58.659" y1=".402" x2="58.659" y2="117.72" gradientUnits="userSpaceOnUse"><stop stop-color="#C81F56"/><stop offset="1" stop-color="#FE840E"/></linearGradient><linearGradient id="paint1_linear_1_3765" x1="57.176" y1="10.289" x2="57.176" y2="145.403" gradientUnits="userSpaceOnUse"><stop stop-color="#C81F56"/><stop offset="1" stop-color="#FE840E"/></linearGradient></defs></svg>