<svg width="130" height="131" fill="none" xmlns="http://www.w3.org/2000/svg"><path d="M65.001 80.335c7.97 0 14.432-6.46 14.432-14.431 0-7.97-6.461-14.432-14.432-14.432-7.97 0-14.432 6.461-14.432 14.432 0 7.97 6.462 14.431 14.432 14.431z" stroke="#C81F56" stroke-width="3" stroke-miterlimit="10" stroke-linecap="round" stroke-linejoin="round"/><path d="M64.998 94.765c15.941 0 28.864-12.923 28.864-28.864 0-15.94-12.923-28.863-28.864-28.863-15.94 0-28.863 12.922-28.863 28.863 0 15.941 12.922 28.864 28.863 28.864z" stroke="#F06C46" stroke-width="3" stroke-miterlimit="10" stroke-linecap="round" stroke-linejoin="round"/><path d="M65 109.198c23.911 0 43.295-19.384 43.295-43.295 0-23.912-19.384-43.296-43.295-43.296-23.912 0-43.296 19.384-43.296 43.296 0 23.91 19.384 43.295 43.296 43.295z" stroke="#FE840E" stroke-width="3" stroke-miterlimit="10" stroke-linecap="round" stroke-linejoin="round"/><path d="M65 123.63c31.883 0 57.728-25.845 57.728-57.727 0-31.882-25.845-57.727-57.727-57.727-31.882 0-57.728 25.845-57.728 57.727 0 31.882 25.846 57.727 57.728 57.727zm0-109.682V2.402m0 127.001v-11.546m51.954-51.954H128.5m-127 0h11.546" stroke="#FEB447" stroke-width="3" stroke-miterlimit="10" stroke-linecap="round" stroke-linejoin="round"/><path stroke="#C81F56" stroke-width="3" stroke-linecap="round" stroke-linejoin="round" d="M64.568 65.941l50.187-50.187"/><path d="M103.073 12.122l9.445-9.444V18.66l-9.445 9.444V12.122zm9.445 6.538l-9.445 9.445h15.983l9.445-9.445h-15.983z" stroke="#C81F56" stroke-width="3" stroke-linejoin="round"/></svg>