<svg width="213" height="111" fill="none" xmlns="http://www.w3.org/2000/svg"><path opacity=".2" d="M13.554 7.462v95.881a5.56 5.56 0 01-11.118 0V7.462a5.56 5.56 0 0111.118 0zm21.968 0v95.881a5.56 5.56 0 01-11.119 0V7.462a5.56 5.56 0 0111.12 0zm21.964 0v95.881a5.56 5.56 0 01-11.119 0V7.462a5.56 5.56 0 1111.119 0zm21.972 0v95.881a5.56 5.56 0 01-11.12 0V7.462a5.56 5.56 0 1111.12 0zm21.964 0v95.881a5.56 5.56 0 01-11.12 0V7.462a5.56 5.56 0 0111.12 0zm21.963 0v95.881a5.56 5.56 0 01-11.118 0V7.462a5.56 5.56 0 1111.118 0zm21.965 0v95.881a5.56 5.56 0 01-11.119 0V7.462a5.56 5.56 0 0111.119 0zm21.974 0v95.881a5.56 5.56 0 01-11.119 0V7.462a5.56 5.56 0 1111.119 0zm21.965 0v95.881a5.56 5.56 0 01-11.119 0V7.462a5.56 5.56 0 1111.119 0zm21.965 0v95.881a5.56 5.56 0 01-11.119 0V7.462a5.56 5.56 0 1111.119 0z" stroke="#9EA7B3" stroke-width="3"/><path d="M13.554 84.061v19.264a5.56 5.56 0 11-11.118 0V84.061a5.56 5.56 0 1111.118 0z" stroke="#C81F56" stroke-width="3"/><path d="M35.522 56.263v47.067a5.56 5.56 0 11-11.119 0V56.263a5.56 5.56 0 0111.12 0z" stroke="#FE840E" stroke-width="3"/><path d="M57.486 19.675v83.666a5.56 5.56 0 01-11.119 0V19.675a5.56 5.56 0 1111.119 0z" stroke="#FEB447" stroke-width="3"/><path d="M79.457 84.061v19.264a5.56 5.56 0 11-11.12 0V84.061a5.56 5.56 0 1111.12 0z" stroke="#FE840E" stroke-width="3"/><path d="M101.422 64.36v38.981a5.56 5.56 0 11-11.12 0V64.36a5.56 5.56 0 0111.12 0z" stroke="#C81F56" stroke-width="3"/><path d="M123.386 19.675v83.666a5.56 5.56 0 01-11.118 0V19.675a5.56 5.56 0 1111.118 0z" stroke="#FE840E" stroke-width="3"/><path d="M145.35 87.109v16.222a5.56 5.56 0 01-11.119 0V87.109a5.56 5.56 0 0111.119 0z" stroke="#FEB447" stroke-width="3"/><path d="M167.324 37.754v65.571a5.56 5.56 0 11-11.119 0V37.754a5.56 5.56 0 1111.119 0z" stroke="#FE840E" stroke-width="3"/><path d="M189.289 64.36v38.981a5.56 5.56 0 11-11.119 0V64.36a5.56 5.56 0 1111.119 0z" stroke="#C81F56" stroke-width="3"/><path d="M211.254 84.061v19.264a5.56 5.56 0 11-11.119 0V84.061a5.56 5.56 0 1111.119 0z" stroke="#FE840E" stroke-width="3"/></svg>