<svg width="196" height="132" fill="none" xmlns="http://www.w3.org/2000/svg"><path d="M2.017 2.402H20.06a10 10 0 016.522 2.42l58.46 50.306a10 10 0 006.523 2.42h13.157a9.999 9.999 0 006.522-2.42l58.46-50.306a10 10 0 016.523-2.42h18.043m-.001 128h-18.044a9.996 9.996 0 01-6.522-2.42l-58.46-50.306a9.999 9.999 0 00-6.522-2.42H91.564a10 10 0 00-6.523 2.42l-58.46 50.306a9.996 9.996 0 01-6.522 2.42H2.016" stroke="#E3E3E3" stroke-width="3" stroke-linecap="round" stroke-linejoin="round"/><circle cx="98.142" cy="66.149" r="2.547" stroke="#C81F56" stroke-width="3"/><circle cx="116.356" cy="66.149" r="2.547" stroke="#C81F56" stroke-width="3"/><circle cx="134.569" cy="66.149" r="2.547" stroke="#C81F56" stroke-width="3"/><circle cx="153.794" cy="66.149" r="2.547" stroke="#C81F56" stroke-width="3"/><circle cx="172.008" cy="66.149" r="2.547" stroke="#C81F56" stroke-width="3"/><circle cx="190.221" cy="66.149" r="2.547" stroke="#C81F56" stroke-width="3"/><circle cx="79.929" cy="66.149" r="2.547" stroke="#C81F56" stroke-width="3"/><circle cx="61.715" cy="66.15" r="2.547" stroke="#C81F56" stroke-width="3"/><circle cx="61.715" cy="50.971" r="2.547" stroke="#C81F56" stroke-width="3"/><circle cx="61.715" cy="81.328" r="2.547" stroke="#C81F56" stroke-width="3"/><circle cx="42.49" cy="66.15" r="2.547" stroke="#F06C46" stroke-width="3"/><circle cx="42.49" cy="50.972" r="2.547" stroke="#F06C46" stroke-width="3"/><circle cx="42.49" cy="81.328" r="2.547" stroke="#F06C46" stroke-width="3"/><circle cx="42.49" cy="35.794" r="2.547" stroke="#F06C46" stroke-width="3"/><circle cx="42.49" cy="96.506" r="2.547" stroke="#F06C46" stroke-width="3"/><circle cx="6.063" cy="66.149" r="2.547" stroke="#FEB447" stroke-width="3"/><circle cx="6.063" cy="50.971" r="2.547" stroke="#FEB447" stroke-width="3"/><circle cx="6.063" cy="81.327" r="2.547" stroke="#FEB447" stroke-width="3"/><circle cx="6.063" cy="35.794" r="2.547" stroke="#FEB447" stroke-width="3"/><circle cx="6.063" cy="96.505" r="2.547" stroke="#FEB447" stroke-width="3"/><circle cx="6.064" cy="20.616" r="2.547" stroke="#FEB447" stroke-width="3"/><circle cx="6.063" cy="111.683" r="2.547" stroke="#FEB447" stroke-width="3"/><circle cx="24.277" cy="66.149" r="2.547" stroke="#FE840E" stroke-width="3"/><circle cx="24.277" cy="50.971" r="2.547" stroke="#FE840E" stroke-width="3"/><circle cx="24.277" cy="81.327" r="2.547" stroke="#FE840E" stroke-width="3"/><circle cx="24.277" cy="35.794" r="2.547" stroke="#FE840E" stroke-width="3"/><circle cx="24.277" cy="96.505" r="2.547" stroke="#FE840E" stroke-width="3"/><circle cx="24.277" cy="20.616" r="2.547" stroke="#FE840E" stroke-width="3"/><circle cx="24.277" cy="111.683" r="2.547" stroke="#FE840E" stroke-width="3"/></svg>