<svg width="129" height="128" fill="none" xmlns="http://www.w3.org/2000/svg"><g clip-path="url(#clip0_1_3691)" stroke-width="3" stroke-miterlimit="10" stroke-linecap="round" stroke-linejoin="round"><path d="M48.403 13.482V1.665h51.891l27.445 27.426v85.799h-22.027" stroke="#C81F56"/><path d="M100.314 29.091h27.425L100.314 1.665V29.09zM78.853 78.782h35.165M73.407 66.743h40.611M78.853 54.707h35.165" stroke="#C81F56"/><path d="M95.543 126.135s0-28.227-13.966-35.753L58.88 79.095m-57.617 47.04s0-28.227 13.966-35.753l22.697-11.287" stroke="#FE840E"/><path d="M65.86 82.856l1.753 15.053c-11.355-3.007-15.721-11.287-15.721-11.287m-20.948-3.766l-1.75 15.053c11.354-3.007 15.72-11.287 15.72-11.287" stroke="#FE840E"/><path d="M51.893 86.622s4.196 6.777 0 11.287c0 0 3.497 22.208 3.497 28.231m-13.974 0c0-6.024 3.498-28.231 3.498-28.231-4.198-4.51 0-11.287 0-11.287M55.39 73.448c9.772-4.51 10.997-14.111 12.046-23.517.527-5.083.703-10.539-1.574-15.243-2.093-4.332-5.936-7.343-10.124-8.846-2.27-.943-4.713-1.315-7.333-1.315-2.622 0-5.064.372-7.336 1.315-4.19 1.504-8.03 4.514-10.124 8.846-2.276 4.704-2.098 10.161-1.574 15.243 1.05 9.406 2.096 19.006 12.046 23.517" stroke="#FE840E"/><path d="M58.88 71.567v3.762c0 6.213-4.716 11.293-10.476 11.293-5.762 0-10.477-5.08-10.477-11.293v-3.762" stroke="#FE840E"/></g><defs><clipPath id="clip0_1_3691"><path fill="#fff" transform="translate(0 .402)" d="M0 0h129v127H0z"/></clipPath></defs></svg>