<svg width="140" height="157" fill="none" xmlns="http://www.w3.org/2000/svg"><path d="M46.404 64.382h0c-.949-2.783-1.486-6.256-1.315-9.714.17-3.451 1.054-7.012 3.072-9.866l-1.757 19.58zm0 0c2.053 6.013 5.664 10.983 9.323 16.02l.061.084c3.472 4.78 7.928 13.194 11.407 22.997 3.48 9.804 5.934 20.861 5.519 30.94l-.001.024M46.405 64.381l26.308 70.066m0 0v.025m0-.025v.025m0 0l-.188 20.43H31.336v-20.627c0-10.056-1.073-16.831-2.817-22.088-1.74-5.244-4.125-8.894-6.577-12.648l-.026-.04c-.685-1.05-1.609-2.975-2.667-5.506-1.046-2.5-2.187-5.5-3.312-8.63-2.252-6.267-4.425-13.01-5.637-17.259-4.452-15.6-2.496-29.367 5.421-39.976 8.264-11.074 22.85-17.945 40.674-19l1.411-.084m14.906 125.428L57.806 9.044m0 0V7.63m0 1.414V7.63m0 0V5.449m0 2.181V5.449m0 0c0-1.157.556-2.235 1.484-2.898m-1.484 2.898L59.29 2.55m0 0a3.467 3.467 0 013.179-.449m-3.18.449l3.18-.449m0 0s0 0 0 0m0 0h0m0 0L98.64 14.96M62.469 2.102L98.64 14.96m0 0a3.546 3.546 0 012.343 3.346V35.45c0 1.97-1.581 3.546-3.503 3.546H61.31c-5.806 0-10.356 1.858-13.148 5.807l50.48-29.843z" fill="#fff" stroke="#FEB447" stroke-width="3"/><path d="M85.55 96.89h0c1.984 5.806 5.476 10.604 9.009 15.458l.06.084h.001l.002.003v.001c6.865 9.434 14.426 19.838 13.624 39.241l-.134 3.225H68.386v-3.365c0-9.7-1.037-16.238-2.724-21.314-1.683-5.063-3.99-8.588-6.358-12.207l-.025-.039v-.001l-.01-.014h0c-2.948-4.509-6.198-9.487-8.493-17.516-4.295-15.028-2.406-28.282 5.228-38.495 7.969-10.661 22.04-17.282 39.245-18.3l1.412-.083v-3.517c0-1.096.528-2.12 1.41-2.75a3.303 3.303 0 013.025-.425s0 0 0 0l34.935 12.396h.001s0 0 0 0a3.365 3.365 0 012.228 3.175v16.53c0 1.867-1.503 3.364-3.332 3.364H99.992c-5.617 0-10.03 1.796-12.739 5.621-1.957 2.762-2.812 6.208-2.977 9.542-.166 3.342.354 6.697 1.273 9.386z" fill="#fff" stroke="#C81F56" stroke-width="3"/><path d="M30.638 112.74h0c-.745-2.182-1.164-4.896-1.03-7.601.133-2.696.824-5.506 2.426-7.77l-1.396 15.371zm0 0c1.595 4.676 4.4 8.535 7.205 12.396l.06.084h.001m-7.266-12.48l7.266 12.48m0 0l.001.002v-.002zm2.178-54.832l-1.411.083c-13.64.808-24.752 6.063-31.03 14.477m32.441-14.56l-2.176 54.835c5.285 7.276 11.048 15.222 10.834 29.672l-31.188-.148c-.1-6.949-.907-11.784-2.175-15.606-1.353-4.077-3.208-6.916-5.092-9.801l-.026-.039h0l-.007-.012s0 0 0 0c-2.345-3.593-4.912-7.532-6.727-13.892-3.4-11.92-1.897-22.392 4.115-30.449m32.442-14.56v-1.414m0 1.414v-1.414M7.64 84.948l-1.202-.897 1.202.897zm32.442-15.974v-1.678m0 1.678v-1.678m0 0c0-.778.374-1.503.996-1.947m-.996 1.947l.996-1.947m0 0a2.321 2.321 0 012.129-.3m-2.129.3l2.129-.3m0 0s0 0 0 0m0 0h0m0 0l27.824 9.889-27.824-9.89zm29.396 12.137a2.38 2.38 0 00-1.572-2.248l1.572 2.248zm0 0v13.187m0-13.187v13.187m0 0c0 1.327-1.064 2.381-2.348 2.381m2.348-2.381l-2.348 2.381m0 0H42.43m27.825 0H42.43m0 0c-4.54 0-8.165 1.458-10.396 4.614l10.396-4.614z" fill="#fff" stroke="#FE840E" stroke-width="3"/></svg>