<svg width="237" height="129" fill="none" xmlns="http://www.w3.org/2000/svg"><rect x="215.161" y=".402" width="2.648" height="128" rx="1.324" fill="#E3E3E3"/><rect x="151.603" y=".402" width="2.648" height="128" rx="1.324" fill="#E3E3E3"/><rect x="88.044" y=".402" width="2.648" height="128" rx="1.324" fill="#E3E3E3"/><rect x="24.485" y=".402" width="2.648" height="128" rx="1.324" fill="#E3E3E3"/><path d="M2.417 71.698c5.794 0 10.004-7.91 14.072-15.564 4.552-8.558 9.232-17.372 17.127-16.436C43.7 40.94 47.56 57.258 51.648 74.533c3.17 13.399 6.765 28.584 12.876 29.188 5.574.499 10.024-11.795 13.89-22.693 4.53-12.772 8.81-24.837 16.742-25.333 7.371-.46 11.625 7.953 15.752 16.088 4.129 8.14 8.359 16.592 15.143 15.928 6.816-.633 10.693-16.981 14.111-31.404 3.978-16.782 7.737-32.632 17.03-32.632 10.02 0 13.081 18.693 16.626 40.337 3.048 18.607 6.502 39.698 14.329 39.698 5.475 0 10.61-13.292 14.737-23.973 4.984-12.903 9.289-24.047 16.22-24.047 4.885 0 7.577 4.99 9.954 9.393 1.754 3.253 3.57 6.615 5.525 6.615" stroke="url(#paint0_linear_1_3749)" stroke-width="3" stroke-linecap="round" stroke-linejoin="round"/><defs><linearGradient id="paint0_linear_1_3749" x1="137.336" y1="23.675" x2="137.336" y2="103.736" gradientUnits="userSpaceOnUse"><stop stop-color="#FE840E"/><stop offset="1" stop-color="#C81F56"/></linearGradient></defs></svg>