<svg width="176" height="235" fill="none" xmlns="http://www.w3.org/2000/svg"><path d="M89.93 213.553h14.26l22.418-65.94-62.31-3.782 25.631 69.722z" fill="url(#paint0_linear_1_3679)"/><path d="M164.536 25.108c.067 5.567.067 114.533-55.246 132.227-55.317 17.694-80.3-74.502-78.319-140.165l133.565 7.938z" fill="url(#paint1_linear_1_3679)"/><path d="M141.278 223.555H52.844v10.736h88.434v-10.736z" fill="url(#paint2_linear_1_3679)"/><path d="M52.844 223.555h88.434l-22.384-12.007h-43.67l-22.38 12.007z" fill="url(#paint3_linear_1_3679)"/><path d="M170.945 9.645c4.857.296 8.83 3.89 8.83 7.987v8.384c0 4.097-3.976 7.237-8.836 6.976l-151.6-8.157c-4.855-.261-8.832-3.829-8.832-7.925V7.336c0-4.097 3.973-7.21 8.83-6.914l151.608 9.223z" fill="url(#paint4_linear_1_3679)"/><path d="M70.12 165.996c3.53 0 6.578-2.233 6.99-5.259.44-3.254-2.337-6.194-6.2-6.567-.732-.073-51.608-5.446-56.433-33.289-.815-4.694-.723-10.829 4.327-13.388 4.164-2.116 10.986-1.442 15.864 1.562 2.77 1.707 5.81 4.697 4.518 9.252-.905 3.186 1.433 6.384 5.216 7.144 3.783.763 7.584-1.206 8.491-4.392 2.344-8.255-1.362-16.322-9.906-21.58-9.491-5.844-22.424-6.73-31.46-2.15-5.28 2.675-13.726 9.515-10.998 25.262 2.698 15.568 15.698 28.039 37.596 36.067 15.722 5.763 30.555 7.239 31.18 7.298.273.028.544.04.814.04z" fill="url(#paint5_linear_1_3679)"/><path d="M122.881 165.996c-3.534 0-6.581-2.233-6.987-5.259-.446-3.254 2.331-6.194 6.194-6.567.738-.073 51.61-5.446 56.436-33.289.812-4.694.719-10.829-4.324-13.388-4.168-2.116-10.992-1.442-15.867 1.562-2.771 1.707-5.81 4.697-4.518 9.252.904 3.186-1.433 6.384-5.216 7.144-3.783.763-7.587-1.206-8.492-4.392-2.34-8.255 1.36-16.322 9.904-21.58 9.494-5.844 22.429-6.73 31.459-2.15 5.281 2.675 13.729 9.515 11.001 25.262-2.7 15.568-15.697 28.039-37.595 36.067-15.725 5.763-30.559 7.239-31.183 7.298-.274.028-.544.04-.812.04z" fill="url(#paint6_linear_1_3679)"/><defs><linearGradient id="paint0_linear_1_3679" x1="74.436" y1="143.761" x2="238.887" y2="354.491" gradientUnits="userSpaceOnUse"><stop stop-color="#FEB447"/><stop offset="1" stop-color="#FE840E"/></linearGradient><linearGradient id="paint1_linear_1_3679" x1="41.354" y1="-7.317" x2="158.246" y2="204.412" gradientUnits="userSpaceOnUse"><stop stop-color="#FEB447"/><stop offset="1" stop-color="#FE840E"/></linearGradient><linearGradient id="paint2_linear_1_3679" x1="96.219" y1="215.11" x2="101.463" y2="300.997" gradientUnits="userSpaceOnUse"><stop stop-color="#FEB447"/><stop offset="1" stop-color="#FE840E"/></linearGradient><linearGradient id="paint3_linear_1_3679" x1="57.805" y1="180.675" x2="115.728" y2="238.598" gradientUnits="userSpaceOnUse"><stop stop-color="#FEB447"/><stop offset="1" stop-color="#FE840E"/></linearGradient><linearGradient id="paint4_linear_1_3679" x1="20.401" y1="-44.259" x2="189.123" y2="80.806" gradientUnits="userSpaceOnUse"><stop stop-color="#FEB447"/><stop offset="1" stop-color="#FE840E"/></linearGradient><linearGradient id="paint5_linear_1_3679" x1=".169" y1="86.238" x2="143.812" y2="265.977" gradientUnits="userSpaceOnUse"><stop stop-color="#FEB447"/><stop offset="1" stop-color="#FE840E"/></linearGradient><linearGradient id="paint6_linear_1_3679" x1="116.015" y1="86.238" x2="259.66" y2="265.974" gradientUnits="userSpaceOnUse"><stop stop-color="#FEB447"/><stop offset="1" stop-color="#FE840E"/></linearGradient></defs></svg>