<svg width="453" height="349" fill="none" xmlns="http://www.w3.org/2000/svg"><mask id="mask0_1_3672" style="mask-type:alpha" maskUnits="userSpaceOnUse" x="0" y="0" width="453" height="349"><rect y=".402" width="453" height="348" rx="20" fill="#FE840E"/></mask><g mask="url(#mask0_1_3672)"><path fill="url(#paint0_linear_1_3672)" d="M0 .402h453v348H0z"/><path d="M392.648 616.976c-65.61-11.778-122.124-69.366-168.123-133.695-45.922-64.224-81.224-135.265-73.159-201.818 8.065-66.553 59.555-128.981 121.391-166.739 61.912-37.655 134.121-50.926 203.57-41.158 69.526 9.872 136.11 42.755 183.377 97.17 47.268 54.415 75.113 130.437 63.209 199.001-11.933 68.744-63.797 130.002-126.901 177.674-63.286 47.645-137.782 81.524-203.364 69.565z" fill="#C81F56"/><path d="M366.929 327.553h14.261l22.418-65.94-62.31-3.782 25.631 69.722z" fill="url(#paint1_linear_1_3672)"/><path d="M441.536 139.108c.067 5.567.067 114.533-55.246 132.227-55.317 17.694-80.299-74.502-78.319-140.165l133.565 7.938z" fill="url(#paint2_linear_1_3672)"/><path d="M418.278 337.555h-88.434v10.736h88.434v-10.736z" fill="url(#paint3_linear_1_3672)"/><path d="M329.844 337.555h88.434l-22.384-12.007h-43.67l-22.38 12.007z" fill="url(#paint4_linear_1_3672)"/><path d="M447.945 123.645c4.857.295 8.83 3.891 8.83 7.987v8.384c0 4.097-3.976 7.237-8.836 6.976l-151.599-8.157c-4.856-.261-8.833-3.829-8.833-7.925v-9.574c0-4.097 3.974-7.21 8.83-6.914l151.608 9.223z" fill="url(#paint5_linear_1_3672)"/><path d="M347.12 279.996c3.53 0 6.578-2.233 6.99-5.259.44-3.254-2.337-6.194-6.2-6.567-.732-.073-51.608-5.446-56.433-33.289-.815-4.694-.723-10.829 4.327-13.388 4.164-2.116 10.986-1.442 15.864 1.562 2.771 1.707 5.809 4.697 4.518 9.252-.905 3.186 1.433 6.384 5.216 7.144 3.783.763 7.584-1.206 8.491-4.392 2.344-8.255-1.362-16.322-9.906-21.581-9.491-5.843-22.424-6.729-31.46-2.15-5.28 2.676-13.726 9.516-10.998 25.263 2.698 15.568 15.698 28.039 37.596 36.067 15.722 5.763 30.555 7.239 31.179 7.298.274.028.545.04.816.04z" fill="url(#paint6_linear_1_3672)"/><path d="M399.881 279.996c-3.534 0-6.581-2.233-6.987-5.259-.446-3.254 2.331-6.194 6.194-6.567.738-.073 51.61-5.446 56.436-33.289.812-4.694.719-10.829-4.324-13.388-4.168-2.116-10.992-1.442-15.867 1.562-2.771 1.707-5.81 4.697-4.518 9.252.904 3.186-1.433 6.384-5.216 7.144-3.783.763-7.587-1.206-8.492-4.392-2.34-8.255 1.36-16.322 9.904-21.581 9.494-5.843 22.429-6.729 31.459-2.15 5.281 2.676 13.729 9.516 11.001 25.263-2.7 15.568-15.697 28.039-37.595 36.067-15.725 5.763-30.559 7.239-31.183 7.298-.274.028-.544.04-.812.04z" fill="url(#paint7_linear_1_3672)"/></g><defs><linearGradient id="paint0_linear_1_3672" x1="453" y1="348.402" x2="9.5" y2=".402" gradientUnits="userSpaceOnUse"><stop stop-color="#FEB447"/><stop offset="1" stop-color="#FE840E"/></linearGradient><linearGradient id="paint1_linear_1_3672" x1="351.436" y1="257.761" x2="515.887" y2="468.491" gradientUnits="userSpaceOnUse"><stop stop-color="#FEB447"/><stop offset="1" stop-color="#FE840E"/></linearGradient><linearGradient id="paint2_linear_1_3672" x1="318.354" y1="106.683" x2="435.246" y2="318.412" gradientUnits="userSpaceOnUse"><stop stop-color="#FEB447"/><stop offset="1" stop-color="#FE840E"/></linearGradient><linearGradient id="paint3_linear_1_3672" x1="373.219" y1="329.11" x2="378.463" y2="414.997" gradientUnits="userSpaceOnUse"><stop stop-color="#FEB447"/><stop offset="1" stop-color="#FE840E"/></linearGradient><linearGradient id="paint4_linear_1_3672" x1="334.805" y1="294.675" x2="392.728" y2="352.598" gradientUnits="userSpaceOnUse"><stop stop-color="#FEB447"/><stop offset="1" stop-color="#FE840E"/></linearGradient><linearGradient id="paint5_linear_1_3672" x1="297.402" y1="69.741" x2="466.123" y2="194.806" gradientUnits="userSpaceOnUse"><stop stop-color="#FEB447"/><stop offset="1" stop-color="#FE840E"/></linearGradient><linearGradient id="paint6_linear_1_3672" x1="277.169" y1="200.238" x2="420.812" y2="379.977" gradientUnits="userSpaceOnUse"><stop stop-color="#FEB447"/><stop offset="1" stop-color="#FE840E"/></linearGradient><linearGradient id="paint7_linear_1_3672" x1="393.015" y1="200.238" x2="536.66" y2="379.974" gradientUnits="userSpaceOnUse"><stop stop-color="#FEB447"/><stop offset="1" stop-color="#FE840E"/></linearGradient></defs></svg>