<svg width="40" height="36" viewBox="0 0 40 36" fill="none" xmlns="http://www.w3.org/2000/svg">
<path d="M34 6H28V4C28 2.93913 27.5786 1.92172 26.8284 1.17157C26.0783 0.421427 25.0609 0 24 0H16C14.9391 0 13.9217 0.421427 13.1716 1.17157C12.4214 1.92172 12 2.93913 12 4V6H6C4.4087 6 2.88258 6.63214 1.75736 7.75736C0.632141 8.88258 0 10.4087 0 12V30C0 31.5913 0.632141 33.1174 1.75736 34.2426C2.88258 35.3679 4.4087 36 6 36H34C35.5913 36 37.1174 35.3679 38.2426 34.2426C39.3679 33.1174 40 31.5913 40 30V12C40 10.4087 39.3679 8.88258 38.2426 7.75736C37.1174 6.63214 35.5913 6 34 6ZM16 4H24V6H16V4ZM36 30C36 30.5304 35.7893 31.0391 35.4142 31.4142C35.0391 31.7893 34.5304 32 34 32H6C5.46957 32 4.96086 31.7893 4.58579 31.4142C4.21071 31.0391 4 30.5304 4 30V20H12V22C12 22.5304 12.2107 23.0391 12.5858 23.4142C12.9609 23.7893 13.4696 24 14 24C14.5304 24 15.0391 23.7893 15.4142 23.4142C15.7893 23.0391 16 22.5304 16 22V20H24V22C24 22.5304 24.2107 23.0391 24.5858 23.4142C24.9609 23.7893 25.4696 24 26 24C26.5304 24 27.0391 23.7893 27.4142 23.4142C27.7893 23.0391 28 22.5304 28 22V20H36V30ZM36 16H4V12C4 11.4696 4.21071 10.9609 4.58579 10.5858C4.96086 10.2107 5.46957 10 6 10H34C34.5304 10 35.0391 10.2107 35.4142 10.5858C35.7893 10.9609 36 11.4696 36 12V16Z" fill="#F5FA72"/>
</svg>
