<svg width="40" height="37" viewBox="0 0 40 37" fill="none" xmlns="http://www.w3.org/2000/svg">
<path d="M38.1818 0H1.81818C1.33597 0 0.873508 0.191558 0.532533 0.532533C0.191558 0.873508 0 1.33597 0 1.81818V16.3636C0 16.8458 0.191558 17.3083 0.532533 17.6493C0.873508 17.9903 1.33597 18.1818 1.81818 18.1818H7.27273V34.5455C7.27273 35.0277 7.46429 35.4901 7.80526 35.8311C8.14624 36.1721 8.6087 36.3636 9.09091 36.3636H30.9091C31.3913 36.3636 31.8538 36.1721 32.1947 35.8311C32.5357 35.4901 32.7273 35.0277 32.7273 34.5455V18.1818H38.1818C38.664 18.1818 39.1265 17.9903 39.4675 17.6493C39.8084 17.3083 40 16.8458 40 16.3636V1.81818C40 1.33597 39.8084 0.873508 39.4675 0.532533C39.1265 0.191558 38.664 0 38.1818 0ZM10.9091 32.7273V29.0909C11.8735 29.0909 12.7984 29.474 13.4804 30.156C14.1623 30.8379 14.5455 31.7628 14.5455 32.7273H10.9091ZM29.0909 32.7273H25.4545C25.4545 31.7628 25.8377 30.8379 26.5196 30.156C27.2016 29.474 28.1265 29.0909 29.0909 29.0909V32.7273ZM29.0909 25.4545C27.1621 25.4545 25.3122 26.2208 23.9483 27.5847C22.5844 28.9486 21.8182 30.7984 21.8182 32.7273H18.1818C18.1818 30.7984 17.4156 28.9486 16.0517 27.5847C14.6878 26.2208 12.8379 25.4545 10.9091 25.4545V10.9091H29.0909V25.4545ZM36.3636 14.5455H32.7273V9.09091C32.7273 8.6087 32.5357 8.14624 32.1947 7.80526C31.8538 7.46429 31.3913 7.27273 30.9091 7.27273H9.09091C8.6087 7.27273 8.14624 7.46429 7.80526 7.80526C7.46429 8.14624 7.27273 8.6087 7.27273 9.09091V14.5455H3.63636V3.63636H36.3636V14.5455ZM20 23.6364C21.0788 23.6364 22.1334 23.3165 23.0304 22.7171C23.9274 22.1178 24.6265 21.2659 25.0393 20.2692C25.4522 19.2725 25.5602 18.1758 25.3497 17.1177C25.1393 16.0596 24.6198 15.0877 23.8569 14.3249C23.0941 13.562 22.1222 13.0425 21.0641 12.8321C20.0061 12.6216 18.9093 12.7296 17.9126 13.1425C16.9159 13.5553 16.0641 14.2544 15.4647 15.1514C14.8654 16.0484 14.5455 17.103 14.5455 18.1818C14.5455 19.6285 15.1201 21.0158 16.1431 22.0388C17.166 23.0617 18.5534 23.6364 20 23.6364ZM20 16.3636C20.3596 16.3636 20.7111 16.4703 21.0101 16.6701C21.3091 16.8698 21.5422 17.1538 21.6798 17.486C21.8174 17.8183 21.8534 18.1838 21.7832 18.5365C21.7131 18.8892 21.5399 19.2132 21.2856 19.4675C21.0314 19.7217 20.7074 19.8949 20.3547 19.9651C20.002 20.0352 19.6364 19.9992 19.3042 19.8616C18.972 19.724 18.688 19.4909 18.4882 19.1919C18.2885 18.8929 18.1818 18.5414 18.1818 18.1818C18.1818 17.6996 18.3734 17.2371 18.7144 16.8962C19.0553 16.5552 19.5178 16.3636 20 16.3636Z" fill="#F5FA72"/>
</svg>
