<svg width="30" height="28" viewBox="0 0 30 28" fill="none" xmlns="http://www.w3.org/2000/svg">
<path d="M28.6364 0H1.36364C1.00198 0 0.655131 0.143668 0.3994 0.3994C0.143668 0.655131 0 1.00198 0 1.36364V12.2727C0 12.6344 0.143668 12.9812 0.3994 13.237C0.655131 13.4927 1.00198 13.6364 1.36364 13.6364H5.45455V25.9091C5.45455 26.2708 5.59821 26.6176 5.85395 26.8733C6.10968 27.1291 6.45652 27.2727 6.81818 27.2727H23.1818C23.5435 27.2727 23.8903 27.1291 24.1461 26.8733C24.4018 26.6176 24.5455 26.2708 24.5455 25.9091V13.6364H28.6364C28.998 13.6364 29.3449 13.4927 29.6006 13.237C29.8563 12.9812 30 12.6344 30 12.2727V1.36364C30 1.00198 29.8563 0.655131 29.6006 0.3994C29.3449 0.143668 28.998 0 28.6364 0ZM8.18182 24.5455V21.8182C8.90514 21.8182 9.59883 22.1055 10.1103 22.617C10.6218 23.1284 10.9091 23.8221 10.9091 24.5455H8.18182ZM21.8182 24.5455H19.0909C19.0909 23.8221 19.3782 23.1284 19.8897 22.617C20.4012 22.1055 21.0949 21.8182 21.8182 21.8182V24.5455ZM21.8182 19.0909C20.3715 19.0909 18.9842 19.6656 17.9612 20.6885C16.9383 21.7114 16.3636 23.0988 16.3636 24.5455H13.6364C13.6364 23.0988 13.0617 21.7114 12.0388 20.6885C11.0158 19.6656 9.62845 19.0909 8.18182 19.0909V8.18182H21.8182V19.0909ZM27.2727 10.9091H24.5455V6.81818C24.5455 6.45652 24.4018 6.10968 24.1461 5.85395C23.8903 5.59821 23.5435 5.45455 23.1818 5.45455H6.81818C6.45652 5.45455 6.10968 5.59821 5.85395 5.85395C5.59821 6.10968 5.45455 6.45652 5.45455 6.81818V10.9091H2.72727V2.72727H27.2727V10.9091ZM15 17.7273C15.8091 17.7273 16.6 17.4873 17.2728 17.0378C17.9455 16.5883 18.4699 15.9494 18.7795 15.2019C19.0891 14.4544 19.1702 13.6318 19.0123 12.8383C18.8545 12.0447 18.4648 11.3158 17.8927 10.7437C17.3206 10.1715 16.5917 9.78191 15.7981 9.62406C15.0045 9.46621 14.182 9.54722 13.4345 9.85686C12.687 10.1665 12.048 10.6908 11.5985 11.3636C11.149 12.0363 10.9091 12.8273 10.9091 13.6364C10.9091 14.7213 11.3401 15.7619 12.1073 16.5291C12.8745 17.2963 13.915 17.7273 15 17.7273ZM15 12.2727C15.2697 12.2727 15.5333 12.3527 15.7576 12.5025C15.9818 12.6524 16.1566 12.8654 16.2598 13.1145C16.363 13.3637 16.3901 13.6379 16.3374 13.9024C16.2848 14.1669 16.1549 14.4099 15.9642 14.6006C15.7735 14.7913 15.5306 14.9212 15.266 14.9738C15.0015 15.0264 14.7273 14.9994 14.4782 14.8962C14.229 14.793 14.016 14.6182 13.8662 14.394C13.7163 14.1697 13.6364 13.9061 13.6364 13.6364C13.6364 13.2747 13.78 12.9279 14.0358 12.6721C14.2915 12.4164 14.6383 12.2727 15 12.2727Z" fill="#F5FA72"/>
</svg>
