<svg width="40" height="32" viewBox="0 0 40 32" fill="none" xmlns="http://www.w3.org/2000/svg">
<path d="M2 16H14C14.5304 16 15.0391 15.7893 15.4142 15.4142C15.7893 15.0391 16 14.5304 16 14V2C16 1.46957 15.7893 0.96086 15.4142 0.585787C15.0391 0.210714 14.5304 0 14 0H2C1.46957 0 0.960859 0.210714 0.585786 0.585787C0.210714 0.96086 0 1.46957 0 2V14C0 14.5304 0.210714 15.0391 0.585786 15.4142C0.960859 15.7893 1.46957 16 2 16ZM4 4H12V12H4V4ZM22 8H38C38.5304 8 39.0391 7.78929 39.4142 7.41421C39.7893 7.03914 40 6.53043 40 6C40 5.46957 39.7893 4.96086 39.4142 4.58579C39.0391 4.21071 38.5304 4 38 4H22C21.4696 4 20.9609 4.21071 20.5858 4.58579C20.2107 4.96086 20 5.46957 20 6C20 6.53043 20.2107 7.03914 20.5858 7.41421C20.9609 7.78929 21.4696 8 22 8ZM22 28H2C1.46957 28 0.960859 28.2107 0.585786 28.5858C0.210714 28.9609 0 29.4696 0 30C0 30.5304 0.210714 31.0391 0.585786 31.4142C0.960859 31.7893 1.46957 32 2 32H22C22.5304 32 23.0391 31.7893 23.4142 31.4142C23.7893 31.0391 24 30.5304 24 30C24 29.4696 23.7893 28.9609 23.4142 28.5858C23.0391 28.2107 22.5304 28 22 28ZM38 20H2C1.46957 20 0.960859 20.2107 0.585786 20.5858C0.210714 20.9609 0 21.4696 0 22C0 22.5304 0.210714 23.0391 0.585786 23.4142C0.960859 23.7893 1.46957 24 2 24H38C38.5304 24 39.0391 23.7893 39.4142 23.4142C39.7893 23.0391 40 22.5304 40 22C40 21.4696 39.7893 20.9609 39.4142 20.5858C39.0391 20.2107 38.5304 20 38 20ZM38 12H22C21.4696 12 20.9609 12.2107 20.5858 12.5858C20.2107 12.9609 20 13.4696 20 14C20 14.5304 20.2107 15.0391 20.5858 15.4142C20.9609 15.7893 21.4696 16 22 16H38C38.5304 16 39.0391 15.7893 39.4142 15.4142C39.7893 15.0391 40 14.5304 40 14C40 13.4696 39.7893 12.9609 39.4142 12.5858C39.0391 12.2107 38.5304 12 38 12Z" fill="#C81F56"/>
</svg>
