<svg width="40" height="40" viewBox="0 0 40 40" fill="none" xmlns="http://www.w3.org/2000/svg">
<path d="M16.34 17.1C16.5014 17.3489 16.7161 17.5588 16.9686 17.7144C17.2211 17.8701 17.5051 17.9676 17.8 18C18.0962 18.03 18.3953 17.9935 18.6756 17.8931C18.9558 17.7928 19.2102 17.6311 19.42 17.42L21.68 15.14L24.34 19.14C24.5257 19.4077 24.774 19.626 25.0633 19.7759C25.3526 19.9258 25.6742 20.0027 26 20C26.3932 20.0045 26.7779 19.8856 27.1 19.66C27.5384 19.3668 27.8433 18.9122 27.9481 18.3953C28.053 17.8784 27.9495 17.3409 27.66 16.9L23.66 10.9C23.4986 10.6511 23.2839 10.4412 23.0314 10.2856C22.7789 10.1299 22.4949 10.0324 22.2 10C21.9038 9.97002 21.6047 10.0065 21.3244 10.1069C21.0442 10.2072 20.7898 10.3689 20.58 10.58L18.32 12.86L15.66 8.86C15.5285 8.61477 15.3472 8.39969 15.1278 8.22852C14.9084 8.05734 14.6557 7.93384 14.3858 7.8659C14.1159 7.79797 13.8349 7.7871 13.5606 7.83399C13.2863 7.88087 13.0248 7.98449 12.7928 8.13821C12.5608 8.29192 12.3635 8.49236 12.2134 8.7267C12.0633 8.96103 11.9638 9.22411 11.9211 9.49911C11.8785 9.77411 11.8938 10.055 11.9659 10.3237C12.038 10.5925 12.1654 10.8433 12.34 11.06L16.34 17.1ZM38 24H36V4H38C38.5304 4 39.0391 3.78929 39.4142 3.41421C39.7893 3.03914 40 2.53043 40 2C40 1.46957 39.7893 0.960859 39.4142 0.585786C39.0391 0.210714 38.5304 0 38 0H2C1.46957 0 0.960859 0.210714 0.585786 0.585786C0.210714 0.960859 0 1.46957 0 2C0 2.53043 0.210714 3.03914 0.585786 3.41421C0.960859 3.78929 1.46957 4 2 4H4V24H2C1.46957 24 0.960859 24.2107 0.585786 24.5858C0.210714 24.9609 0 25.4696 0 26C0 26.5304 0.210714 27.0391 0.585786 27.4142C0.960859 27.7893 1.46957 28 2 28H18V30.3L8.9 36.3C8.52667 36.5311 8.23976 36.8786 8.08354 37.289C7.92732 37.6993 7.91047 38.1496 8.03559 38.5705C8.16071 38.9914 8.42085 39.3594 8.77587 39.6177C9.13089 39.8761 9.56105 40.0104 10 40C10.3932 40.0045 10.7779 39.8856 11.1 39.66L18 35.1V38C18 38.5304 18.2107 39.0391 18.5858 39.4142C18.9609 39.7893 19.4696 40 20 40C20.5304 40 21.0391 39.7893 21.4142 39.4142C21.7893 39.0391 22 38.5304 22 38V35.1L28.9 39.66C29.2221 39.8856 29.6068 40.0045 30 40C30.4273 39.9967 30.8423 39.8566 31.1842 39.6003C31.5261 39.344 31.7769 38.9849 31.8999 38.5757C32.0229 38.1665 32.0116 37.7286 31.8677 37.3263C31.7237 36.924 31.4547 36.5783 31.1 36.34L22 30.34V28H38C38.5304 28 39.0391 27.7893 39.4142 27.4142C39.7893 27.0391 40 26.5304 40 26C40 25.4696 39.7893 24.9609 39.4142 24.5858C39.0391 24.2107 38.5304 24 38 24ZM32 24H8V4H32V24Z" fill="#C81F56"/>
</svg>
