<svg width="40" height="28" viewBox="0 0 40 28" fill="none" xmlns="http://www.w3.org/2000/svg">
<path d="M20 0C19.4696 0 18.9609 0.210714 18.5858 0.585787C18.2107 0.96086 18 1.46957 18 2V26C18 26.5304 18.2107 27.0391 18.5858 27.4142C18.9609 27.7893 19.4696 28 20 28C20.5304 28 21.0391 27.7893 21.4142 27.4142C21.7893 27.0391 22 26.5304 22 26V2C22 1.46957 21.7893 0.96086 21.4142 0.585787C21.0391 0.210714 20.5304 0 20 0ZM17.42 12.58L12.42 7.58C12.0434 7.20339 11.5326 6.99182 11 6.99182C10.4674 6.99182 9.95661 7.20339 9.58 7.58C9.20339 7.95661 8.99182 8.4674 8.99182 9C8.99182 9.26372 9.04376 9.52486 9.14468 9.7685C9.2456 10.0121 9.39352 10.2335 9.58 10.42L11.18 12H2C1.46957 12 0.960859 12.2107 0.585786 12.5858C0.210714 12.9609 0 13.4696 0 14C0 14.5304 0.210714 15.0391 0.585786 15.4142C0.960859 15.7893 1.46957 16 2 16H11.18L9.58 17.58C9.39254 17.7659 9.24376 17.9871 9.14222 18.2308C9.04068 18.4746 8.9884 18.736 8.9884 19C8.9884 19.264 9.04068 19.5254 9.14222 19.7692C9.24376 20.0129 9.39254 20.2341 9.58 20.42C9.76593 20.6075 9.98713 20.7562 10.2308 20.8578C10.4746 20.9593 10.736 21.0116 11 21.0116C11.264 21.0116 11.5254 20.9593 11.7692 20.8578C12.0129 20.7562 12.2341 20.6075 12.42 20.42L17.42 15.42C17.6021 15.2298 17.7448 15.0055 17.84 14.76C17.9458 14.5206 18.0005 14.2617 18.0005 14C18.0005 13.7383 17.9458 13.4794 17.84 13.24C17.7448 12.9945 17.6021 12.7702 17.42 12.58ZM38 12H28.82L30.42 10.42C30.6065 10.2335 30.7544 10.0121 30.8553 9.7685C30.9562 9.52486 31.0082 9.26372 31.0082 9C31.0082 8.73628 30.9562 8.47514 30.8553 8.2315C30.7544 7.98786 30.6065 7.76648 30.42 7.58C30.2335 7.39352 30.0121 7.2456 29.7685 7.14468C29.5249 7.04376 29.2637 6.99182 29 6.99182C28.7363 6.99182 28.4751 7.04376 28.2315 7.14468C27.9879 7.2456 27.7665 7.39352 27.58 7.58L22.58 12.58C22.3925 12.7659 22.2438 12.9871 22.1422 13.2308C22.0407 13.4746 21.9884 13.736 21.9884 14C21.9884 14.264 22.0407 14.5254 22.1422 14.7692C22.2438 15.0129 22.3925 15.2341 22.58 15.42L27.58 20.42C27.7659 20.6075 27.9871 20.7562 28.2308 20.8578C28.4746 20.9593 28.736 21.0116 29 21.0116C29.264 21.0116 29.5254 20.9593 29.7692 20.8578C30.0129 20.7562 30.2341 20.6075 30.42 20.42C30.6075 20.2341 30.7562 20.0129 30.8578 19.7692C30.9593 19.5254 31.0116 19.264 31.0116 19C31.0116 18.736 30.9593 18.4746 30.8578 18.2308C30.7562 17.9871 30.6075 17.7659 30.42 17.58L28.82 16H38C38.5304 16 39.0391 15.7893 39.4142 15.4142C39.7893 15.0391 40 14.5304 40 14C40 13.4696 39.7893 12.9609 39.4142 12.5858C39.0391 12.2107 38.5304 12 38 12Z" fill="#C81F56"/>
</svg>
