<svg width="40" height="40" viewBox="0 0 40 40" fill="none" xmlns="http://www.w3.org/2000/svg">
<path d="M16 22H2C1.46957 22 0.960859 22.2107 0.585786 22.5858C0.210714 22.9609 0 23.4696 0 24V38C0 38.5304 0.210714 39.0391 0.585786 39.4142C0.960859 39.7893 1.46957 40 2 40H16C16.5304 40 17.0391 39.7893 17.4142 39.4142C17.7893 39.0391 18 38.5304 18 38V24C18 23.4696 17.7893 22.9609 17.4142 22.5858C17.0391 22.2107 16.5304 22 16 22ZM14 36H4V26H14V36ZM38 0H24C23.4696 0 22.9609 0.210714 22.5858 0.585786C22.2107 0.960859 22 1.46957 22 2V16C22 16.5304 22.2107 17.0391 22.5858 17.4142C22.9609 17.7893 23.4696 18 24 18H38C38.5304 18 39.0391 17.7893 39.4142 17.4142C39.7893 17.0391 40 16.5304 40 16V2C40 1.46957 39.7893 0.960859 39.4142 0.585786C39.0391 0.210714 38.5304 0 38 0ZM36 14H26V4H36V14ZM38 22H24C23.4696 22 22.9609 22.2107 22.5858 22.5858C22.2107 22.9609 22 23.4696 22 24V38C22 38.5304 22.2107 39.0391 22.5858 39.4142C22.9609 39.7893 23.4696 40 24 40H38C38.5304 40 39.0391 39.7893 39.4142 39.4142C39.7893 39.0391 40 38.5304 40 38V24C40 23.4696 39.7893 22.9609 39.4142 22.5858C39.0391 22.2107 38.5304 22 38 22ZM36 36H26V26H36V36ZM16 0H2C1.46957 0 0.960859 0.210714 0.585786 0.585786C0.210714 0.960859 0 1.46957 0 2V16C0 16.5304 0.210714 17.0391 0.585786 17.4142C0.960859 17.7893 1.46957 18 2 18H16C16.5304 18 17.0391 17.7893 17.4142 17.4142C17.7893 17.0391 18 16.5304 18 16V2C18 1.46957 17.7893 0.960859 17.4142 0.585786C17.0391 0.210714 16.5304 0 16 0ZM14 14H4V4H14V14Z" fill="#C81F56"/>
</svg>
