<svg width="40" height="40" viewBox="0 0 40 40" fill="none" xmlns="http://www.w3.org/2000/svg">
<path d="M37.9501 32.5252V19.4416C38.4895 19.1415 38.9519 18.7204 39.3009 18.2113C39.65 17.7023 39.8761 17.1192 39.9616 16.5079C40.047 15.8966 39.9895 15.2738 39.7934 14.6885C39.5973 14.1033 39.2681 13.5715 38.8317 13.135C38.3952 12.6986 37.8634 12.3694 37.2782 12.1733C36.6929 11.9772 36.0701 11.9197 35.4588 12.0051C34.8476 12.0906 34.2644 12.3167 33.7554 12.6658C33.2463 13.0148 32.8252 13.4772 32.5252 14.0166H25.9834V7.47484C26.5228 7.17481 26.9852 6.75369 27.3342 6.24463C27.6833 5.73556 27.9094 5.15244 27.9949 4.54115C28.0803 3.92987 28.0228 3.30708 27.8267 2.72182C27.6306 2.13655 27.3014 1.60477 26.865 1.16832C26.4285 0.731874 25.8967 0.402663 25.3115 0.206597C24.7262 0.0105314 24.1034 -0.0470398 23.4921 0.0384139C22.8808 0.123868 22.2977 0.350014 21.7887 0.699059C21.2796 1.0481 20.8585 1.51052 20.5584 2.04993H7.47484C7.17481 1.51052 6.75369 1.0481 6.24463 0.699059C5.73556 0.350014 5.15244 0.123868 4.54115 0.0384139C3.92987 -0.0470398 3.30708 0.0105314 2.72182 0.206597C2.13655 0.402663 1.60477 0.731874 1.16832 1.16832C0.731874 1.60477 0.402663 2.13655 0.206597 2.72182C0.0105314 3.30708 -0.0470398 3.92987 0.0384139 4.54115C0.123868 5.15244 0.350014 5.73556 0.699059 6.24463C1.0481 6.75369 1.51052 7.17481 2.04993 7.47484V20.5584C1.51052 20.8585 1.0481 21.2796 0.699059 21.7887C0.350014 22.2977 0.123868 22.8808 0.0384139 23.4921C-0.0470398 24.1034 0.0105314 24.7262 0.206597 25.3115C0.402663 25.8967 0.731874 26.4285 1.16832 26.865C1.60477 27.3014 2.13655 27.6306 2.72182 27.8267C3.30708 28.0228 3.92987 28.0803 4.54115 27.9949C5.15244 27.9094 5.73556 27.6833 6.24463 27.3342C6.75369 26.9852 7.17481 26.5228 7.47484 25.9834H14.0166V32.5252C13.4772 32.8252 13.0148 33.2463 12.6658 33.7554C12.3167 34.2644 12.0906 34.8476 12.0051 35.4588C11.9197 36.0701 11.9772 36.6929 12.1733 37.2782C12.3694 37.8634 12.6986 38.3952 13.135 38.8317C13.5715 39.2681 14.1033 39.5973 14.6885 39.7934C15.2738 39.9895 15.8966 40.047 16.5079 39.9616C17.1192 39.8761 17.7023 39.65 18.2113 39.3009C18.7204 38.9519 19.1415 38.4895 19.4416 37.9501H32.5252C32.8252 38.4895 33.2463 38.9519 33.7554 39.3009C34.2644 39.65 34.8476 39.8761 35.4588 39.9616C36.0701 40.047 36.6929 39.9895 37.2782 39.7934C37.8634 39.5973 38.3952 39.2681 38.8317 38.8317C39.2681 38.3952 39.5973 37.8634 39.7934 37.2782C39.9895 36.6929 40.047 36.0701 39.9616 35.4588C39.8761 34.8476 39.65 34.2644 39.3009 33.7554C38.9519 33.2463 38.4895 32.8252 37.9501 32.5252ZM12.0222 16.0111C12.0264 16.7072 12.2127 17.3901 12.5626 17.9919C12.9125 18.5937 13.4138 19.0935 14.0166 19.4416V21.9945H7.47484C7.13493 21.3947 6.63862 20.8984 6.03883 20.5584V7.47484C6.63862 7.13493 7.13493 6.63862 7.47484 6.03883H20.5584C20.8984 6.63862 21.3947 7.13493 21.9945 7.47484V14.0166H19.4416C18.9974 13.2679 18.3205 12.685 17.5141 12.357C16.7077 12.0289 15.8161 11.9737 14.9754 12.1997C14.1346 12.4257 13.3909 12.9205 12.8577 13.6087C12.3245 14.2968 12.0311 15.1406 12.0222 16.0111ZM21.9945 18.0055V20.5584C21.3947 20.8984 20.8984 21.3947 20.5584 21.9945H18.0055V19.4416C18.6053 19.1016 19.1016 18.6053 19.4416 18.0055H21.9945ZM33.9612 32.5252C33.3614 32.8651 32.8651 33.3614 32.5252 33.9612H19.4416C19.1016 33.3614 18.6053 32.8651 18.0055 32.5252V25.9834H20.5584C20.8585 26.5228 21.2796 26.9852 21.7887 27.3342C22.2977 27.6833 22.8808 27.9094 23.4921 27.9949C24.1034 28.0803 24.7262 28.0228 25.3115 27.8267C25.8967 27.6306 26.4285 27.3014 26.865 26.865C27.3014 26.4285 27.6306 25.8967 27.8267 25.3115C28.0228 24.7262 28.0803 24.1034 27.9949 23.4921C27.9094 22.8808 27.6833 22.2977 27.3342 21.7887C26.9852 21.2796 26.5228 20.8585 25.9834 20.5584V18.0055H32.5252C32.8651 18.6053 33.3614 19.1016 33.9612 19.4416V32.5252Z" fill="#C81F56"/>
</svg>
