<svg width="40" height="40" viewBox="0 0 40 40" fill="none" xmlns="http://www.w3.org/2000/svg">
<path d="M23.6364 14.5455H16.3636C15.8814 14.5455 15.419 14.737 15.078 15.078C14.737 15.419 14.5455 15.8814 14.5455 16.3636V38.1818C14.5455 38.664 14.737 39.1265 15.078 39.4675C15.419 39.8084 15.8814 40 16.3636 40H23.6364C24.1186 40 24.581 39.8084 24.922 39.4675C25.263 39.1265 25.4545 38.664 25.4545 38.1818V16.3636C25.4545 15.8814 25.263 15.419 24.922 15.078C24.581 14.737 24.1186 14.5455 23.6364 14.5455ZM21.8182 36.3636H18.1818V18.1818H21.8182V36.3636ZM38.1818 0H30.9091C30.4269 0 29.9644 0.191558 29.6234 0.532533C29.2825 0.873508 29.0909 1.33597 29.0909 1.81818V38.1818C29.0909 38.664 29.2825 39.1265 29.6234 39.4675C29.9644 39.8084 30.4269 40 30.9091 40H38.1818C38.664 40 39.1265 39.8084 39.4675 39.4675C39.8084 39.1265 40 38.664 40 38.1818V1.81818C40 1.33597 39.8084 0.873508 39.4675 0.532533C39.1265 0.191558 38.664 0 38.1818 0ZM36.3636 36.3636H32.7273V3.63636H36.3636V36.3636ZM9.09091 25.4545H1.81818C1.33597 25.4545 0.873508 25.6461 0.532533 25.9871C0.191558 26.3281 0 26.7905 0 27.2727V38.1818C0 38.664 0.191558 39.1265 0.532533 39.4675C0.873508 39.8084 1.33597 40 1.81818 40H9.09091C9.57312 40 10.0356 39.8084 10.3766 39.4675C10.7175 39.1265 10.9091 38.664 10.9091 38.1818V27.2727C10.9091 26.7905 10.7175 26.3281 10.3766 25.9871C10.0356 25.6461 9.57312 25.4545 9.09091 25.4545ZM7.27273 36.3636H3.63636V29.0909H7.27273V36.3636Z" fill="#C81F56"/>
</svg>
