<svg width="43" height="44" viewBox="0 0 43 44" fill="none" xmlns="http://www.w3.org/2000/svg">
<circle cx="21.5" cy="21.9023" r="21.5" fill="#FE840E" fill-opacity="0.5"/>
<path d="M17.4484 22.4063H19.1262V29.3908C19.1262 29.5298 19.2369 29.6416 19.3745 29.6416H22.2216C22.3592 29.6416 22.4699 29.5298 22.4699 29.3908V22.4396H24.3989C24.5245 22.4396 24.6292 22.3459 24.6441 22.219L24.9372 19.647C24.9462 19.5775 24.9223 19.505 24.8774 19.4536C24.8295 19.3992 24.7637 19.369 24.692 19.369H22.4699V17.7581C22.4699 17.2715 22.73 17.0267 23.2385 17.0267C23.3102 17.0267 24.692 17.0267 24.692 17.0267C24.8295 17.0267 24.9402 16.9149 24.9402 16.7759V14.4155C24.9402 14.2765 24.8295 14.1646 24.692 14.1646H22.6882C22.6732 14.1646 22.6433 14.1616 22.5955 14.1616C22.2485 14.1616 21.0403 14.2311 20.0862 15.1167C19.0275 16.1049 19.1741 17.2806 19.21 17.4831V19.369H17.4484C17.3109 19.369 17.2002 19.4808 17.2002 19.6198V22.1585C17.2002 22.2945 17.3109 22.4063 17.4484 22.4063Z" fill="#385C8E"/>
<path d="M17.4484 22.4063H19.1262V29.3908C19.1262 29.5298 19.2369 29.6416 19.3745 29.6416H22.2216C22.3592 29.6416 22.4699 29.5298 22.4699 29.3908V22.4396H24.3989C24.5245 22.4396 24.6292 22.3459 24.6441 22.219L24.9372 19.647C24.9462 19.5775 24.9223 19.505 24.8774 19.4536C24.8295 19.3992 24.7637 19.369 24.692 19.369H22.4699V17.7581C22.4699 17.2715 22.73 17.0267 23.2385 17.0267C23.3102 17.0267 24.692 17.0267 24.692 17.0267C24.8295 17.0267 24.9402 16.9149 24.9402 16.7759V14.4155C24.9402 14.2765 24.8295 14.1646 24.692 14.1646H22.6882C22.6732 14.1646 22.6433 14.1616 22.5955 14.1616C22.2485 14.1616 21.0403 14.2311 20.0862 15.1167C19.0275 16.1049 19.1741 17.2806 19.21 17.4831V19.369H17.4484C17.3109 19.369 17.2002 19.4808 17.2002 19.6198V22.1585C17.2002 22.2945 17.3109 22.4063 17.4484 22.4063Z" fill="#FEB447"/>
</svg>
