<svg width="43" height="44" viewBox="0 0 43 44" fill="none" xmlns="http://www.w3.org/2000/svg">
<circle cx="21.5" cy="22.2637" r="21.5" fill="#FE840E"/>
<path d="M18.2482 22.7682H19.926V29.7526C19.926 29.8916 20.0367 30.0034 20.1743 30.0034H23.0214C23.159 30.0034 23.2697 29.8916 23.2697 29.7526V22.8014H25.1987C25.3243 22.8014 25.429 22.7077 25.4439 22.5808L25.737 20.0088C25.746 19.9393 25.7221 19.8668 25.6772 19.8154C25.6293 19.761 25.5635 19.7308 25.4918 19.7308H23.2697V18.1199C23.2697 17.6333 23.5299 17.3885 24.0383 17.3885C24.1101 17.3885 25.4918 17.3885 25.4918 17.3885C25.6293 17.3885 25.74 17.2767 25.74 17.1377V14.7773C25.74 14.6383 25.6293 14.5265 25.4918 14.5265H23.488C23.473 14.5265 23.4431 14.5234 23.3953 14.5234C23.0483 14.5234 21.8401 14.5929 20.8861 15.4785C19.8273 16.4667 19.9739 17.6424 20.0098 17.8449V19.7308H18.2482C18.1107 19.7308 18 19.8426 18 19.9816V22.5203C18 22.6563 18.1107 22.7682 18.2482 22.7682Z" fill="#385C8E"/>
<path d="M18.2482 22.7682H19.926V29.7526C19.926 29.8916 20.0367 30.0034 20.1743 30.0034H23.0214C23.159 30.0034 23.2697 29.8916 23.2697 29.7526V22.8014H25.1987C25.3243 22.8014 25.429 22.7077 25.4439 22.5808L25.737 20.0088C25.746 19.9393 25.7221 19.8668 25.6772 19.8154C25.6293 19.761 25.5635 19.7308 25.4918 19.7308H23.2697V18.1199C23.2697 17.6333 23.5299 17.3885 24.0383 17.3885C24.1101 17.3885 25.4918 17.3885 25.4918 17.3885C25.6293 17.3885 25.74 17.2767 25.74 17.1377V14.7773C25.74 14.6383 25.6293 14.5265 25.4918 14.5265H23.488C23.473 14.5265 23.4431 14.5234 23.3953 14.5234C23.0483 14.5234 21.8401 14.5929 20.8861 15.4785C19.8273 16.4667 19.9739 17.6424 20.0098 17.8449V19.7308H18.2482C18.1107 19.7308 18 19.8426 18 19.9816V22.5203C18 22.6563 18.1107 22.7682 18.2482 22.7682Z" fill="white"/>
</svg>
