<svg width="43" height="44" viewBox="0 0 43 44" fill="none" xmlns="http://www.w3.org/2000/svg">
<circle cx="21.5" cy="22.2637" r="21.5" fill="#FE840E"/>
<path d="M25.375 13.4023H18.625C15.5189 13.4023 13 15.9212 13 19.0273V25.7773C13 28.8835 15.5189 31.4023 18.625 31.4023H25.375C28.4811 31.4023 31 28.8835 31 25.7773V19.0273C31 15.9212 28.4811 13.4023 25.375 13.4023ZM29.3125 25.7773C29.3125 27.9486 27.5463 29.7148 25.375 29.7148H18.625C16.4538 29.7148 14.6875 27.9486 14.6875 25.7773V19.0273C14.6875 16.8561 16.4538 15.0898 18.625 15.0898H25.375C27.5463 15.0898 29.3125 16.8561 29.3125 19.0273V25.7773Z" fill="white"/>
<path d="M22 17.9023C19.5149 17.9023 17.5 19.9172 17.5 22.4023C17.5 24.8875 19.5149 26.9023 22 26.9023C24.4851 26.9023 26.5 24.8875 26.5 22.4023C26.5 19.9172 24.4851 17.9023 22 17.9023ZM22 25.2148C20.4497 25.2148 19.1875 23.9526 19.1875 22.4023C19.1875 20.851 20.4497 19.5898 22 19.5898C23.5503 19.5898 24.8125 20.851 24.8125 22.4023C24.8125 23.9526 23.5503 25.2148 22 25.2148Z" fill="white"/>
<path d="M26.8379 18.1646C27.1691 18.1646 27.4375 17.8961 27.4375 17.565C27.4375 17.2338 27.1691 16.9653 26.8379 16.9653C26.5067 16.9653 26.2383 17.2338 26.2383 17.565C26.2383 17.8961 26.5067 18.1646 26.8379 18.1646Z" fill="white"/>
</svg>
