<svg width="10" height="14" viewBox="0 0 10 14" fill="none" xmlns="http://www.w3.org/2000/svg">
<path d="M4.67983 0.402344C2.0995 0.402344 0 2.53973 0 5.1669C0 5.85217 0.137772 6.50644 0.409283 7.11171C1.57937 9.71835 3.82275 12.4704 4.4826 13.2517C4.53204 13.3101 4.60411 13.3438 4.67996 13.3438C4.7558 13.3438 4.82788 13.3101 4.87731 13.2517C5.5369 12.4705 7.78028 9.71862 8.95076 7.11171C9.2224 6.50644 9.36005 5.85217 9.36005 5.1669C9.35979 2.53973 7.26029 0.402344 4.67983 0.402344ZM4.67983 7.64162C3.33944 7.64162 2.24885 6.53134 2.24885 5.16677C2.24885 3.80206 3.33944 2.69178 4.67983 2.69178C6.02021 2.69178 7.11081 3.80206 7.11081 5.16677C7.11094 6.53134 6.02034 7.64162 4.67983 7.64162Z" fill="white"/>
</svg>
