<svg width="22" height="23" viewBox="0 0 22 23" fill="none" xmlns="http://www.w3.org/2000/svg">
<path d="M20.9 18.6465H14.102C13.9377 18.1874 13.6729 17.7704 13.3266 17.4257C12.9803 17.0811 12.5613 16.8175 12.1 16.654V13.1725H15.587C16.7517 13.2106 17.8901 12.8224 18.7866 12.0813C19.6831 11.3402 20.2755 10.2978 20.4517 9.15125C20.6278 8.00471 20.3756 6.83368 19.7426 5.8598C19.1097 4.88593 18.1399 4.17681 17.017 3.86667C16.4287 2.56941 15.4331 1.4974 14.1798 0.811962C12.9266 0.126526 11.4835 -0.13525 10.0679 0.0660285C8.65226 0.267308 7.3406 0.920752 6.33031 1.92802C5.32002 2.9353 4.66577 4.2419 4.466 5.6512C3.57081 5.90105 2.7967 6.46486 2.28664 7.23851C1.77658 8.01215 1.56503 8.94337 1.69107 9.86015C1.81711 10.7769 2.27221 11.6174 2.97233 12.2262C3.67245 12.8351 4.57028 13.1712 5.5 13.1725H9.9V16.654C9.43866 16.8175 9.01966 17.0811 8.67339 17.4257C8.32712 17.7704 8.06225 18.1874 7.898 18.6465H1.1C0.808262 18.6465 0.528472 18.7619 0.322183 18.9672C0.115892 19.1725 0 19.451 0 19.7413C0 20.0317 0.115892 20.3102 0.322183 20.5155C0.528472 20.7208 0.808262 20.8361 1.1 20.8361H7.898C8.12922 21.4702 8.55099 22.018 9.10598 22.4052C9.66097 22.7923 10.3223 23 11 23C11.6777 23 12.339 22.7923 12.894 22.4052C13.449 22.018 13.8708 21.4702 14.102 20.8361H20.9C21.1917 20.8361 21.4715 20.7208 21.6778 20.5155C21.8841 20.3102 22 20.0317 22 19.7413C22 19.451 21.8841 19.1725 21.6778 18.9672C21.4715 18.7619 21.1917 18.6465 20.9 18.6465ZM5.5 10.9829C5.06239 10.9829 4.64271 10.8099 4.33327 10.5019C4.02384 10.1939 3.85 9.77623 3.85 9.34069C3.85 8.90515 4.02384 8.48745 4.33327 8.17948C4.64271 7.8715 5.06239 7.69849 5.5 7.69849C5.79174 7.69849 6.07153 7.58314 6.27782 7.37783C6.48411 7.17251 6.6 6.89404 6.6 6.60368C6.59712 5.5642 6.96585 4.55759 7.64026 3.76386C8.31466 2.97014 9.25076 2.44106 10.2811 2.27123C11.3115 2.10141 12.369 2.30192 13.2645 2.83691C14.16 3.37189 14.8351 4.20647 15.169 5.19138C15.2319 5.37952 15.3449 5.54712 15.496 5.67631C15.6471 5.8055 15.8307 5.89142 16.027 5.9249C16.6224 6.02372 17.163 6.33028 17.552 6.78966C17.941 7.24904 18.153 7.83124 18.15 8.43201C18.1471 9.10766 17.8761 9.75482 17.3961 10.2326C16.9161 10.7103 16.2659 10.98 15.587 10.9829H5.5ZM11 20.8361C10.7824 20.8361 10.5698 20.7719 10.3889 20.6516C10.208 20.5313 10.067 20.3604 9.98373 20.1603C9.90048 19.9603 9.87869 19.7401 9.92114 19.5278C9.96358 19.3154 10.0683 19.1203 10.2222 18.9672C10.376 18.8141 10.572 18.7098 10.7854 18.6676C10.9988 18.6253 11.22 18.647 11.421 18.7299C11.622 18.8127 11.7937 18.9531 11.9146 19.1331C12.0355 19.3131 12.1 19.5248 12.1 19.7413C12.1 20.0317 11.9841 20.3102 11.7778 20.5155C11.5715 20.7208 11.2917 20.8361 11 20.8361Z" fill="#C81F56"/>
</svg>
