<svg width="30" height="32" viewBox="0 0 30 32" fill="none" xmlns="http://www.w3.org/2000/svg">
<path d="M28.1667 26.0126H19.0051C18.7837 25.3909 18.4268 24.8262 17.9601 24.3595C17.4934 23.8929 16.9288 23.5359 16.307 23.3146V18.6003H21.0064C22.5761 18.6519 24.1103 18.1262 25.3184 17.1228C26.5266 16.1193 27.325 14.7077 27.5625 13.1552C27.7999 11.6027 27.4599 10.017 26.6069 8.69833C25.7539 7.37963 24.447 6.41942 22.9336 5.99946C22.1408 4.24287 20.799 2.79127 19.11 1.86314C17.421 0.934998 15.4762 0.580532 13.5684 0.85308C11.6605 1.12563 9.89284 2.01045 8.53128 3.37438C7.16973 4.73831 6.28799 6.50756 6.01877 8.41587C4.81234 8.75418 3.76908 9.51763 3.08168 10.5652C2.39428 11.6128 2.10918 12.8737 2.27903 14.1151C2.44889 15.3565 3.06223 16.4946 4.00577 17.319C4.94931 18.1434 6.15931 18.5985 7.41228 18.6003H13.3421V23.3146C12.7204 23.5359 12.1557 23.8929 11.689 24.3595C11.2224 24.8262 10.8654 25.3909 10.644 26.0126H1.48246C1.08928 26.0126 0.712216 26.1688 0.434201 26.4468C0.156187 26.7248 0 27.1019 0 27.4951C0 27.8883 0.156187 28.2653 0.434201 28.5433C0.712216 28.8214 1.08928 28.9775 1.48246 28.9775H10.644C10.9557 29.8361 11.5241 30.5779 12.272 31.1021C13.02 31.6264 13.9112 31.9076 14.8246 31.9076C15.7379 31.9076 16.6292 31.6264 17.3771 31.1021C18.1251 30.5779 18.6935 29.8361 19.0051 28.9775H28.1667C28.5598 28.9775 28.9369 28.8214 29.2149 28.5433C29.4929 28.2653 29.6491 27.8883 29.6491 27.4951C29.6491 27.1019 29.4929 26.7248 29.2149 26.4468C28.9369 26.1688 28.5598 26.0126 28.1667 26.0126ZM7.41228 15.6354C6.82252 15.6354 6.25692 15.4011 5.8399 14.9841C5.42288 14.5671 5.1886 14.0015 5.1886 13.4117C5.1886 12.822 5.42288 12.2564 5.8399 11.8394C6.25692 11.4223 6.82252 11.1881 7.41228 11.1881C7.80545 11.1881 8.18252 11.0319 8.46054 10.7539C8.73855 10.4758 8.89474 10.0988 8.89474 9.7056C8.89086 8.29806 9.38779 6.93503 10.2967 5.86026C11.2056 4.78549 12.4671 4.06907 13.8558 3.83911C15.2444 3.60916 16.6696 3.88066 17.8764 4.60508C19.0832 5.32949 19.993 6.45957 20.4431 7.79324C20.5278 8.04798 20.6801 8.27493 20.8838 8.44987C21.0874 8.6248 21.3348 8.74114 21.5994 8.78648C22.4018 8.92029 23.1304 9.33539 23.6546 9.95743C24.1789 10.5795 24.4646 11.3678 24.4605 12.1813C24.4566 13.0962 24.0915 13.9725 23.4445 14.6194C22.7976 15.2664 21.9213 15.6315 21.0064 15.6354H7.41228ZM14.8246 28.9775C14.5314 28.9775 14.2447 28.8906 14.001 28.7277C13.7572 28.5648 13.5672 28.3333 13.455 28.0624C13.3427 27.7915 13.3134 27.4934 13.3706 27.2059C13.4278 26.9183 13.569 26.6541 13.7763 26.4468C13.9836 26.2395 14.2478 26.0983 14.5353 26.0411C14.8229 25.9839 15.121 26.0133 15.3919 26.1255C15.6628 26.2377 15.8943 26.4277 16.0572 26.6715C16.2201 26.9153 16.307 27.2019 16.307 27.4951C16.307 27.8883 16.1508 28.2653 15.8728 28.5433C15.5948 28.8214 15.2177 28.9775 14.8246 28.9775Z" fill="#FE840E"/>
</svg>
