<svg width="12" height="10" viewBox="0 0 12 10" fill="none" xmlns="http://www.w3.org/2000/svg">
<path d="M10.5757 0.402344H1.4243C0.638946 0.402344 0 1.01923 0 1.77747V8.19031C0 8.94854 0.638946 9.56543 1.4243 9.56543H10.5757C11.3611 9.56543 12 8.94854 12 8.19031V1.77747C12 1.01923 11.3611 0.402344 10.5757 0.402344ZM10.5757 8.35142H1.4243C1.30886 8.35142 1.20761 8.27615 1.20761 8.19031V2.62546L5.34656 6.1385C5.43142 6.21054 5.53932 6.2502 5.65043 6.2502L6.34945 6.25023C6.46049 6.25023 6.56846 6.21054 6.65334 6.1385L10.7925 2.62534V8.19037C10.7924 8.27615 10.6911 8.35142 10.5757 8.35142ZM6.00002 5.04477L1.97437 1.61636H10.0257L6.00002 5.04477Z" fill="white"/>
</svg>
