<svg width="13" height="13" viewBox="0 0 13 13" fill="none" xmlns="http://www.w3.org/2000/svg">
<path d="M11.7576 10.0652L9.90018 8.17406C9.53021 7.79893 8.91755 7.81033 8.5347 8.20023L7.59892 9.1527C7.5398 9.11953 7.47861 9.08488 7.41427 9.04812C6.82334 8.71478 6.01455 8.25789 5.16346 7.3908C4.30985 6.52188 3.86066 5.69721 3.53223 5.09522C3.49757 5.03144 3.46437 4.96995 3.43158 4.91156L4.05962 4.27312L4.36839 3.95839C4.75183 3.56791 4.7624 2.94436 4.3933 2.56813L2.53588 0.676743C2.16679 0.301047 1.55384 0.312444 1.1704 0.702915L0.64692 1.23892L0.661225 1.25337C0.485694 1.48139 0.339015 1.74438 0.229861 2.02798C0.129242 2.29794 0.0665964 2.55554 0.0379516 2.81367C-0.207308 4.88366 0.721832 6.77547 3.2434 9.34262C6.72897 12.8909 9.53788 12.6229 9.65906 12.6098C9.92298 12.5777 10.1759 12.5135 10.433 12.4118C10.7091 12.302 10.9673 12.1529 11.1911 11.9746L11.2025 11.9849L11.7329 11.4562C12.1155 11.0658 12.1265 10.4421 11.7576 10.0652Z" fill="white"/>
</svg>
