<svg width="30" height="31" viewBox="0 0 30 31" fill="none" xmlns="http://www.w3.org/2000/svg">
<path d="M28.6377 22.3679L25.5134 19.1604C24.8414 18.5201 23.9937 18.0958 23.0793 17.9421C22.1649 17.7884 21.2255 17.9124 20.3819 18.298L19.0235 16.9364C20.6242 14.7924 21.3552 12.1202 21.0694 9.45763C20.7836 6.79508 19.5022 4.33991 17.4832 2.58636C15.4641 0.832821 12.8574 -0.0888947 10.1876 0.00676532C7.51789 0.102425 4.98342 1.20836 3.09443 3.10193C1.20544 4.99551 0.102178 7.53612 0.00674895 10.2123C-0.0886797 12.8885 0.830807 15.5016 2.58011 17.5256C4.32941 19.5495 6.77864 20.834 9.43475 21.1205C12.0909 21.407 14.7566 20.6742 16.8954 19.0696L18.2387 20.4162C17.8087 21.2629 17.6546 22.2235 17.7981 23.1626C17.9416 24.1018 18.3755 24.9721 19.0386 25.651L22.2383 28.8584C23.0873 29.7084 24.2381 30.1858 25.438 30.1858C26.6379 30.1858 27.7887 29.7084 28.6377 28.8584C29.0689 28.4357 29.4116 27.9309 29.6455 27.3736C29.8795 26.8163 30 26.2178 30 25.6131C30 25.0085 29.8795 24.41 29.6455 23.8527C29.4116 23.2954 29.0689 22.7906 28.6377 22.3679ZM15.8389 15.953C14.7828 17.009 13.4381 17.7276 11.9747 18.0179C10.5114 18.3082 8.99503 18.1573 7.61721 17.5842C6.23939 17.0111 5.06192 16.0415 4.23355 14.7979C3.40518 13.5543 2.96307 12.0925 2.96307 10.5971C2.96307 9.10177 3.40518 7.63997 4.23355 6.39637C5.06192 5.15277 6.23939 4.18316 7.61721 3.61005C8.99503 3.03693 10.5114 2.886 11.9747 3.17634C13.4381 3.46668 14.7828 4.18525 15.8389 5.24129C16.5417 5.94399 17.0993 6.77876 17.4797 7.69781C17.8601 8.61685 18.056 9.6021 18.056 10.5971C18.056 11.5921 17.8601 12.5774 17.4797 13.4964C17.0993 14.4155 16.5417 15.2503 15.8389 15.953ZM26.5096 26.6495C26.3693 26.7913 26.2023 26.9039 26.0184 26.9807C25.8345 27.0575 25.6372 27.097 25.438 27.097C25.2387 27.097 25.0415 27.0575 24.8575 26.9807C24.6736 26.9039 24.5067 26.7913 24.3664 26.6495L21.1667 23.4421C21.0252 23.3014 20.913 23.1341 20.8363 22.9497C20.7597 22.7653 20.7203 22.5676 20.7203 22.3679C20.7203 22.1681 20.7597 21.9704 20.8363 21.786C20.913 21.6016 21.0252 21.4343 21.1667 21.2937C21.307 21.1519 21.4739 21.0393 21.6579 20.9625C21.8418 20.8857 22.039 20.8461 22.2383 20.8461C22.4375 20.8461 22.6348 20.8857 22.8187 20.9625C23.0027 21.0393 23.1696 21.1519 23.3099 21.2937L26.5096 24.5011C26.651 24.6418 26.7633 24.8091 26.8399 24.9935C26.9166 25.1778 26.956 25.3756 26.956 25.5753C26.956 25.775 26.9166 25.9728 26.8399 26.1572C26.7633 26.3415 26.651 26.5089 26.5096 26.6495Z" fill="#F5FA72"/>
</svg>
