<svg width="45" height="45" viewBox="0 0 45 45" fill="none" xmlns="http://www.w3.org/2000/svg">
<g filter="url(#filter0_i_1_4034)">
<path fill-rule="evenodd" clip-rule="evenodd" d="M22.6991 0.796455C34.7956 0.796455 44.6017 10.6026 44.6017 22.6991C44.6017 34.7956 34.7956 44.6017 22.6991 44.6017C10.6026 44.6017 0.796455 34.7956 0.796455 22.6991C0.796455 10.6026 10.6026 0.796455 22.6991 0.796455Z" fill="#FFEE40"/>
<path fill-rule="evenodd" clip-rule="evenodd" d="M22.6991 0.796455C34.7956 0.796455 44.6017 10.6026 44.6017 22.6991C44.6017 34.7956 34.7956 44.6017 22.6991 44.6017C10.6026 44.6017 0.796455 34.7956 0.796455 22.6991C0.796455 10.6026 10.6026 0.796455 22.6991 0.796455Z" fill="url(#paint0_linear_1_4034)" style="mix-blend-mode:overlay"/>
</g>
<path fill-rule="evenodd" clip-rule="evenodd" d="M22.6993 2.78716C33.6962 2.78716 42.6109 12.0585 42.6109 23.4952C42.6109 34.9318 33.6962 44.2031 22.6993 44.2031C11.7026 44.2031 2.78788 34.9318 2.78788 23.4952C2.78788 12.0585 11.7026 2.78716 22.6993 2.78716Z" fill="url(#paint1_linear_1_4034)"/>
<path fill-rule="evenodd" clip-rule="evenodd" d="M22.6993 2.78716C33.6962 2.78716 42.6109 12.0585 42.6109 23.4952C42.6109 34.9318 33.6962 44.2031 22.6993 44.2031C11.7026 44.2031 2.78788 34.9318 2.78788 23.4952C2.78788 12.0585 11.7026 2.78716 22.6993 2.78716Z" fill="url(#paint2_linear_1_4034)" style="mix-blend-mode:overlay"/>
<g filter="url(#filter1_dii_1_4034)">
<path fill-rule="evenodd" clip-rule="evenodd" d="M27.8762 37.4335C26.8316 37.4335 25.075 36.8362 22.6992 36.8362C20.3234 36.8362 18.6789 37.4335 17.5222 37.4335C16.7656 37.4335 15.8853 36.2713 15.9292 35.4424C15.9292 32.6516 19.1022 30.2654 22.6992 30.2654C26.2962 30.2654 29.4691 32.6516 29.4691 35.4424C29.5131 36.2713 28.6328 37.4335 27.8762 37.4335Z" fill="#A66707"/>
</g>
<g filter="url(#filter2_dii_1_4034)">
<path fill-rule="evenodd" clip-rule="evenodd" d="M14.3364 19.5135C15.656 19.5135 16.7258 20.8507 16.7258 22.5002C16.7258 24.1497 15.656 25.4869 14.3364 25.4869C13.0168 25.4869 11.9471 24.1497 11.9471 22.5002C11.9471 20.8507 13.0168 19.5135 14.3364 19.5135Z" fill="#A66707"/>
</g>
<g filter="url(#filter3_dii_1_4034)">
<path fill-rule="evenodd" clip-rule="evenodd" d="M31.062 19.5135C32.3816 19.5135 33.4514 20.8507 33.4514 22.5002C33.4514 24.1497 32.3816 25.4869 31.062 25.4869C29.7424 25.4869 28.6727 24.1497 28.6727 22.5002C28.6727 20.8507 29.7424 19.5135 31.062 19.5135Z" fill="#A66707"/>
</g>
<g filter="url(#filter4_dii_1_4034)">
<path fill-rule="evenodd" clip-rule="evenodd" d="M7.56602 14.7343C7.29719 14.7343 7.17944 14.6216 7.17944 14.42C7.17944 14.0223 9.32768 10.7363 14.2683 10.7363C16.0352 10.7363 16.6538 11.5588 16.7253 11.9467C16.8017 12.3621 16.2543 12.345 15.9288 12.345C15.423 12.345 15.7204 12.345 14.3359 12.345C10.9428 12.345 7.9927 14.7343 7.56602 14.7343Z" fill="#A66707"/>
</g>
<g filter="url(#filter5_dii_1_4034)">
<path fill-rule="evenodd" clip-rule="evenodd" d="M37.8437 14.7343C38.1128 14.7343 38.2307 14.622 38.2307 14.4209C38.2307 14.0245 36.0797 10.7488 31.1326 10.7488C29.3633 10.7488 28.7439 11.5687 28.6725 11.9554C28.5959 12.3695 29.144 12.3524 29.4699 12.3524C29.9764 12.3524 29.6786 12.3524 31.0649 12.3524C34.4625 12.3524 37.4164 14.7343 37.8437 14.7343Z" fill="#A66707"/>
</g>
<defs>
<filter id="filter0_i_1_4034" x="0.796875" y="-9.38048" width="43.8047" height="53.9823" filterUnits="userSpaceOnUse" color-interpolation-filters="sRGB">
<feFlood flood-opacity="0" result="BackgroundImageFix"/>
<feBlend mode="normal" in="SourceGraphic" in2="BackgroundImageFix" result="shape"/>
<feColorMatrix in="SourceAlpha" type="matrix" values="0 0 0 0 0 0 0 0 0 0 0 0 0 0 0 0 0 0 127 0" result="hardAlpha"/>
<feOffset dy="-10.177"/>
<feGaussianBlur stdDeviation="12.2124"/>
<feComposite in2="hardAlpha" operator="arithmetic" k2="-1" k3="1"/>
<feColorMatrix type="matrix" values="0 0 0 0 1 0 0 0 0 0.603922 0 0 0 0 0 0 0 0 1 0"/>
<feBlend mode="normal" in2="shape" result="effect1_innerShadow_1_4034"/>
</filter>
<filter id="filter1_dii_1_4034" x="15.5207" y="30.2654" width="14.3571" height="7.98225" filterUnits="userSpaceOnUse" color-interpolation-filters="sRGB">
<feFlood flood-opacity="0" result="BackgroundImageFix"/>
<feColorMatrix in="SourceAlpha" type="matrix" values="0 0 0 0 0 0 0 0 0 0 0 0 0 0 0 0 0 0 127 0" result="hardAlpha"/>
<feOffset dy="0.40708"/>
<feGaussianBlur stdDeviation="0.20354"/>
<feColorMatrix type="matrix" values="0 0 0 0 1 0 0 0 0 1 0 0 0 0 1 0 0 0 1 0"/>
<feBlend mode="normal" in2="BackgroundImageFix" result="effect1_dropShadow_1_4034"/>
<feBlend mode="normal" in="SourceGraphic" in2="effect1_dropShadow_1_4034" result="shape"/>
<feColorMatrix in="SourceAlpha" type="matrix" values="0 0 0 0 0 0 0 0 0 0 0 0 0 0 0 0 0 0 127 0" result="hardAlpha"/>
<feOffset dy="0.814159"/>
<feGaussianBlur stdDeviation="0.936283"/>
<feComposite in2="hardAlpha" operator="arithmetic" k2="-1" k3="1"/>
<feColorMatrix type="matrix" values="0 0 0 0 0 0 0 0 0 0 0 0 0 0 0 0 0 0 1 0"/>
<feBlend mode="normal" in2="shape" result="effect2_innerShadow_1_4034"/>
<feColorMatrix in="SourceAlpha" type="matrix" values="0 0 0 0 0 0 0 0 0 0 0 0 0 0 0 0 0 0 127 0" result="hardAlpha"/>
<feOffset/>
<feGaussianBlur stdDeviation="0.610619"/>
<feComposite in2="hardAlpha" operator="arithmetic" k2="-1" k3="1"/>
<feColorMatrix type="matrix" values="0 0 0 0 0 0 0 0 0 0 0 0 0 0 0 0 0 0 0.75 0"/>
<feBlend mode="normal" in2="effect2_innerShadow_1_4034" result="effect3_innerShadow_1_4034"/>
</filter>
<filter id="filter2_dii_1_4034" x="11.5402" y="19.5134" width="5.59248" height="6.78767" filterUnits="userSpaceOnUse" color-interpolation-filters="sRGB">
<feFlood flood-opacity="0" result="BackgroundImageFix"/>
<feColorMatrix in="SourceAlpha" type="matrix" values="0 0 0 0 0 0 0 0 0 0 0 0 0 0 0 0 0 0 127 0" result="hardAlpha"/>
<feOffset dy="0.40708"/>
<feGaussianBlur stdDeviation="0.20354"/>
<feColorMatrix type="matrix" values="0 0 0 0 1 0 0 0 0 1 0 0 0 0 1 0 0 0 1 0"/>
<feBlend mode="normal" in2="BackgroundImageFix" result="effect1_dropShadow_1_4034"/>
<feBlend mode="normal" in="SourceGraphic" in2="effect1_dropShadow_1_4034" result="shape"/>
<feColorMatrix in="SourceAlpha" type="matrix" values="0 0 0 0 0 0 0 0 0 0 0 0 0 0 0 0 0 0 127 0" result="hardAlpha"/>
<feOffset dy="0.814159"/>
<feGaussianBlur stdDeviation="0.936283"/>
<feComposite in2="hardAlpha" operator="arithmetic" k2="-1" k3="1"/>
<feColorMatrix type="matrix" values="0 0 0 0 0 0 0 0 0 0 0 0 0 0 0 0 0 0 1 0"/>
<feBlend mode="normal" in2="shape" result="effect2_innerShadow_1_4034"/>
<feColorMatrix in="SourceAlpha" type="matrix" values="0 0 0 0 0 0 0 0 0 0 0 0 0 0 0 0 0 0 127 0" result="hardAlpha"/>
<feOffset/>
<feGaussianBlur stdDeviation="0.610619"/>
<feComposite in2="hardAlpha" operator="arithmetic" k2="-1" k3="1"/>
<feColorMatrix type="matrix" values="0 0 0 0 0 0 0 0 0 0 0 0 0 0 0 0 0 0 0.75 0"/>
<feBlend mode="normal" in2="effect2_innerShadow_1_4034" result="effect3_innerShadow_1_4034"/>
</filter>
<filter id="filter3_dii_1_4034" x="28.2658" y="19.5134" width="5.59248" height="6.78767" filterUnits="userSpaceOnUse" color-interpolation-filters="sRGB">
<feFlood flood-opacity="0" result="BackgroundImageFix"/>
<feColorMatrix in="SourceAlpha" type="matrix" values="0 0 0 0 0 0 0 0 0 0 0 0 0 0 0 0 0 0 127 0" result="hardAlpha"/>
<feOffset dy="0.40708"/>
<feGaussianBlur stdDeviation="0.20354"/>
<feColorMatrix type="matrix" values="0 0 0 0 1 0 0 0 0 1 0 0 0 0 1 0 0 0 1 0"/>
<feBlend mode="normal" in2="BackgroundImageFix" result="effect1_dropShadow_1_4034"/>
<feBlend mode="normal" in="SourceGraphic" in2="effect1_dropShadow_1_4034" result="shape"/>
<feColorMatrix in="SourceAlpha" type="matrix" values="0 0 0 0 0 0 0 0 0 0 0 0 0 0 0 0 0 0 127 0" result="hardAlpha"/>
<feOffset dy="0.814159"/>
<feGaussianBlur stdDeviation="0.936283"/>
<feComposite in2="hardAlpha" operator="arithmetic" k2="-1" k3="1"/>
<feColorMatrix type="matrix" values="0 0 0 0 0 0 0 0 0 0 0 0 0 0 0 0 0 0 1 0"/>
<feBlend mode="normal" in2="shape" result="effect2_innerShadow_1_4034"/>
<feColorMatrix in="SourceAlpha" type="matrix" values="0 0 0 0 0 0 0 0 0 0 0 0 0 0 0 0 0 0 127 0" result="hardAlpha"/>
<feOffset/>
<feGaussianBlur stdDeviation="0.610619"/>
<feComposite in2="hardAlpha" operator="arithmetic" k2="-1" k3="1"/>
<feColorMatrix type="matrix" values="0 0 0 0 0 0 0 0 0 0 0 0 0 0 0 0 0 0 0.75 0"/>
<feBlend mode="normal" in2="effect2_innerShadow_1_4034" result="effect3_innerShadow_1_4034"/>
</filter>
<filter id="filter4_dii_1_4034" x="6.77261" y="10.7363" width="10.3669" height="4.81221" filterUnits="userSpaceOnUse" color-interpolation-filters="sRGB">
<feFlood flood-opacity="0" result="BackgroundImageFix"/>
<feColorMatrix in="SourceAlpha" type="matrix" values="0 0 0 0 0 0 0 0 0 0 0 0 0 0 0 0 0 0 127 0" result="hardAlpha"/>
<feOffset dy="0.40708"/>
<feGaussianBlur stdDeviation="0.20354"/>
<feColorMatrix type="matrix" values="0 0 0 0 1 0 0 0 0 1 0 0 0 0 1 0 0 0 1 0"/>
<feBlend mode="normal" in2="BackgroundImageFix" result="effect1_dropShadow_1_4034"/>
<feBlend mode="normal" in="SourceGraphic" in2="effect1_dropShadow_1_4034" result="shape"/>
<feColorMatrix in="SourceAlpha" type="matrix" values="0 0 0 0 0 0 0 0 0 0 0 0 0 0 0 0 0 0 127 0" result="hardAlpha"/>
<feOffset dy="0.814159"/>
<feGaussianBlur stdDeviation="0.936283"/>
<feComposite in2="hardAlpha" operator="arithmetic" k2="-1" k3="1"/>
<feColorMatrix type="matrix" values="0 0 0 0 0 0 0 0 0 0 0 0 0 0 0 0 0 0 1 0"/>
<feBlend mode="normal" in2="shape" result="effect2_innerShadow_1_4034"/>
<feColorMatrix in="SourceAlpha" type="matrix" values="0 0 0 0 0 0 0 0 0 0 0 0 0 0 0 0 0 0 127 0" result="hardAlpha"/>
<feOffset/>
<feGaussianBlur stdDeviation="0.610619"/>
<feComposite in2="hardAlpha" operator="arithmetic" k2="-1" k3="1"/>
<feColorMatrix type="matrix" values="0 0 0 0 0 0 0 0 0 0 0 0 0 0 0 0 0 0 0.75 0"/>
<feBlend mode="normal" in2="effect2_innerShadow_1_4034" result="effect3_innerShadow_1_4034"/>
</filter>
<filter id="filter5_dii_1_4034" x="28.258" y="10.7488" width="10.3796" height="4.79975" filterUnits="userSpaceOnUse" color-interpolation-filters="sRGB">
<feFlood flood-opacity="0" result="BackgroundImageFix"/>
<feColorMatrix in="SourceAlpha" type="matrix" values="0 0 0 0 0 0 0 0 0 0 0 0 0 0 0 0 0 0 127 0" result="hardAlpha"/>
<feOffset dy="0.40708"/>
<feGaussianBlur stdDeviation="0.20354"/>
<feColorMatrix type="matrix" values="0 0 0 0 1 0 0 0 0 1 0 0 0 0 1 0 0 0 1 0"/>
<feBlend mode="normal" in2="BackgroundImageFix" result="effect1_dropShadow_1_4034"/>
<feBlend mode="normal" in="SourceGraphic" in2="effect1_dropShadow_1_4034" result="shape"/>
<feColorMatrix in="SourceAlpha" type="matrix" values="0 0 0 0 0 0 0 0 0 0 0 0 0 0 0 0 0 0 127 0" result="hardAlpha"/>
<feOffset dy="0.814159"/>
<feGaussianBlur stdDeviation="0.936283"/>
<feComposite in2="hardAlpha" operator="arithmetic" k2="-1" k3="1"/>
<feColorMatrix type="matrix" values="0 0 0 0 0 0 0 0 0 0 0 0 0 0 0 0 0 0 1 0"/>
<feBlend mode="normal" in2="shape" result="effect2_innerShadow_1_4034"/>
<feColorMatrix in="SourceAlpha" type="matrix" values="0 0 0 0 0 0 0 0 0 0 0 0 0 0 0 0 0 0 127 0" result="hardAlpha"/>
<feOffset/>
<feGaussianBlur stdDeviation="0.610619"/>
<feComposite in2="hardAlpha" operator="arithmetic" k2="-1" k3="1"/>
<feColorMatrix type="matrix" values="0 0 0 0 0 0 0 0 0 0 0 0 0 0 0 0 0 0 0.75 0"/>
<feBlend mode="normal" in2="effect2_innerShadow_1_4034" result="effect3_innerShadow_1_4034"/>
</filter>
<linearGradient id="paint0_linear_1_4034" x1="45" y1="45" x2="45" y2="0" gradientUnits="userSpaceOnUse">
<stop stop-color="white" stop-opacity="0.01"/>
<stop offset="1" stop-color="white"/>
</linearGradient>
<linearGradient id="paint1_linear_1_4034" x1="36.646" y1="12.6745" x2="36.646" y2="-16.5861" gradientUnits="userSpaceOnUse">
<stop stop-color="white" stop-opacity="0.01"/>
<stop offset="1" stop-color="white"/>
</linearGradient>
<linearGradient id="paint2_linear_1_4034" x1="12.5445" y1="1.99072" x2="12.5445" y2="23.296" gradientUnits="userSpaceOnUse">
<stop stop-color="white"/>
<stop offset="1" stop-color="white" stop-opacity="0.01"/>
</linearGradient>
</defs>
</svg>
