<svg width="43" height="44" viewBox="0 0 43 44" fill="none" xmlns="http://www.w3.org/2000/svg">
<circle cx="21.5" cy="22.2637" r="21.5" fill="#FEB447"/>
<path d="M27.909 16.458L12.3611 22.4876C11.8575 22.6829 11.888 23.4021 12.4064 23.5545L16.3573 24.7155L17.8318 29.3716C17.9858 29.858 18.6051 30.0054 18.9636 29.6411L21.0063 27.5654L25.0143 30.4932C25.5048 30.8515 26.2033 30.5853 26.3278 29.9927L28.9824 17.3626C29.1124 16.7439 28.5007 16.2285 27.909 16.458ZM25.9597 19.2609L18.7378 25.6165C18.6658 25.6798 18.62 25.7675 18.6093 25.8625L18.3312 28.3224C18.3222 28.4026 18.2094 28.4132 18.1853 28.3361L17.0413 24.6677C16.9889 24.4997 17.0572 24.3178 17.2074 24.2251L25.7357 18.9613C25.9318 18.8401 26.1326 19.1088 25.9597 19.2609Z" fill="white"/>
</svg>
