<svg width="30" height="30" viewBox="0 0 30 30" fill="none" xmlns="http://www.w3.org/2000/svg">
<path d="M19.5 13.5H16.5V7.5C16.5 7.10217 16.342 6.72064 16.0607 6.43934C15.7794 6.15803 15.3978 6 15 6C14.6022 6 14.2206 6.15803 13.9393 6.43934C13.658 6.72064 13.5 7.10217 13.5 7.5V15C13.5 15.3978 13.658 15.7794 13.9393 16.0607C14.2206 16.342 14.6022 16.5 15 16.5H19.5C19.8978 16.5 20.2794 16.342 20.5607 16.0607C20.842 15.7794 21 15.3978 21 15C21 14.6022 20.842 14.2206 20.5607 13.9393C20.2794 13.658 19.8978 13.5 19.5 13.5ZM15 0C12.0333 0 9.13319 0.879734 6.66645 2.52796C4.19972 4.17618 2.27713 6.51885 1.14181 9.25974C0.00649926 12.0006 -0.290551 15.0166 0.288228 17.9263C0.867006 20.8361 2.29562 23.5088 4.3934 25.6066C6.49119 27.7044 9.16394 29.133 12.0737 29.7118C14.9834 30.2905 17.9994 29.9935 20.7403 28.8582C23.4811 27.7229 25.8238 25.8003 27.472 23.3335C29.1203 20.8668 30 17.9667 30 15C30 13.0302 29.612 11.0796 28.8582 9.25974C28.1044 7.43986 26.9995 5.78628 25.6066 4.3934C24.2137 3.00052 22.5601 1.89563 20.7403 1.14181C18.9204 0.387986 16.9698 0 15 0ZM15 27C12.6266 27 10.3066 26.2962 8.33316 24.9776C6.35977 23.659 4.8217 21.7849 3.91345 19.5922C3.0052 17.3995 2.76756 14.9867 3.23058 12.6589C3.69361 10.3311 4.83649 8.19295 6.51472 6.51472C8.19295 4.83649 10.3312 3.6936 12.6589 3.23058C14.9867 2.76755 17.3995 3.00519 19.5922 3.91344C21.7849 4.8217 23.6591 6.35977 24.9776 8.33315C26.2962 10.3065 27 12.6266 27 15C27 18.1826 25.7357 21.2348 23.4853 23.4853C21.2348 25.7357 18.1826 27 15 27Z" fill="#F5FA72"/>
</svg>
