<svg width="43" height="44" viewBox="0 0 43 44" fill="none" xmlns="http://www.w3.org/2000/svg">
<circle cx="21.5" cy="21.9023" r="21.5" fill="#FE840E" fill-opacity="0.5"/>
<path d="M30.5677 17.4705C30.2989 17.5887 30.0201 17.6872 29.7346 17.766C30.0705 17.395 30.3258 16.9585 30.4837 16.4792C30.5173 16.3709 30.4837 16.256 30.393 16.1838C30.3023 16.1149 30.178 16.105 30.0772 16.1641C29.476 16.5121 28.8243 16.7648 28.1425 16.9125C27.4572 16.256 26.5234 15.8818 25.5594 15.8818C23.5238 15.8818 21.8678 17.5001 21.8678 19.4892C21.8678 19.6468 21.8779 19.8011 21.8981 19.9553C19.3721 19.7387 17.0241 18.5242 15.4118 16.5908C15.3547 16.5219 15.2674 16.4858 15.1767 16.4924C15.086 16.4989 15.0054 16.5482 14.9584 16.627C14.6292 17.1751 14.4545 17.8021 14.4545 18.4421C14.4545 19.312 14.7736 20.1359 15.3346 20.7792C15.1633 20.7202 14.9987 20.6479 14.8408 20.5626C14.7568 20.5166 14.6527 20.5166 14.5687 20.5659C14.4847 20.6118 14.431 20.7005 14.4276 20.7957C14.4276 20.8121 14.4276 20.8285 14.4276 20.8449C14.4276 22.1415 15.1431 23.31 16.2348 23.9468C16.1407 23.9369 16.0467 23.9238 15.9526 23.9074C15.8552 23.891 15.7578 23.9238 15.694 23.9928C15.6302 24.065 15.6066 24.1634 15.6369 24.2553C16.04 25.4895 17.0812 26.3955 18.3409 26.6745C17.2962 27.3146 16.1038 27.6494 14.8509 27.6494C14.5889 27.6494 14.3269 27.633 14.0682 27.6034C13.9406 27.587 13.8197 27.6625 13.776 27.7807C13.7323 27.8989 13.7793 28.0334 13.8868 28.0991C15.4958 29.1068 17.36 29.6418 19.2713 29.6418C23.03 29.6418 25.3814 27.9087 26.6914 26.4579C28.3272 24.646 29.2644 22.2465 29.2644 19.8766C29.2644 19.7781 29.2644 19.6763 29.261 19.5779C29.9059 19.1019 30.4602 18.5275 30.9136 17.8677C30.9808 17.766 30.9741 17.6347 30.8968 17.5428C30.8129 17.4508 30.6819 17.4213 30.5677 17.4705Z" fill="#73A1FB"/>
<path d="M30.5677 17.4705C30.2989 17.5887 30.0201 17.6872 29.7346 17.766C30.0705 17.395 30.3258 16.9585 30.4837 16.4792C30.5173 16.3709 30.4837 16.256 30.393 16.1838C30.3023 16.1149 30.178 16.105 30.0772 16.1641C29.476 16.5121 28.8243 16.7648 28.1425 16.9125C27.4572 16.256 26.5234 15.8818 25.5594 15.8818C23.5238 15.8818 21.8678 17.5001 21.8678 19.4892C21.8678 19.6468 21.8779 19.8011 21.8981 19.9553C19.3721 19.7387 17.0241 18.5242 15.4118 16.5908C15.3547 16.5219 15.2674 16.4858 15.1767 16.4924C15.086 16.4989 15.0054 16.5482 14.9584 16.627C14.6292 17.1751 14.4545 17.8021 14.4545 18.4421C14.4545 19.312 14.7736 20.1359 15.3346 20.7792C15.1633 20.7202 14.9987 20.6479 14.8408 20.5626C14.7568 20.5166 14.6527 20.5166 14.5687 20.5659C14.4847 20.6118 14.431 20.7005 14.4276 20.7957C14.4276 20.8121 14.4276 20.8285 14.4276 20.8449C14.4276 22.1415 15.1431 23.31 16.2348 23.9468C16.1407 23.9369 16.0467 23.9238 15.9526 23.9074C15.8552 23.891 15.7578 23.9238 15.694 23.9928C15.6302 24.065 15.6066 24.1634 15.6369 24.2553C16.04 25.4895 17.0812 26.3955 18.3409 26.6745C17.2962 27.3146 16.1038 27.6494 14.8509 27.6494C14.5889 27.6494 14.3269 27.633 14.0682 27.6034C13.9406 27.587 13.8197 27.6625 13.776 27.7807C13.7323 27.8989 13.7793 28.0334 13.8868 28.0991C15.4958 29.1068 17.36 29.6418 19.2713 29.6418C23.03 29.6418 25.3814 27.9087 26.6914 26.4579C28.3272 24.646 29.2644 22.2465 29.2644 19.8766C29.2644 19.7781 29.2644 19.6763 29.261 19.5779C29.9059 19.1019 30.4602 18.5275 30.9136 17.8677C30.9808 17.766 30.9741 17.6347 30.8968 17.5428C30.8129 17.4508 30.6819 17.4213 30.5677 17.4705Z" fill="#FEB447"/>
</svg>
