<svg width="43" height="44" viewBox="0 0 43 44" fill="none" xmlns="http://www.w3.org/2000/svg">
<circle cx="21.5" cy="22.2637" r="21.5" fill="#FEB447"/>
<path d="M30.917 18.2106L30.9112 18.1875C30.4444 16.3004 28.3398 14.2754 26.4072 13.8541L26.3854 13.8496C23.2594 13.2533 20.0898 13.2533 16.9644 13.8496L16.942 13.8541C15.0099 14.2754 12.9054 16.3004 12.438 18.1875L12.4328 18.2106C11.8557 20.8461 11.8557 23.5187 12.4328 26.1542L12.438 26.1773C12.8855 27.9839 14.8333 29.9158 16.6938 30.4472V32.5537C16.6938 33.3162 17.623 33.6906 18.1513 33.1405L20.2857 30.9219C20.7486 30.9478 21.2117 30.9622 21.6749 30.9622C23.2485 30.9622 24.8227 30.8134 26.3854 30.5153L26.4072 30.5108C28.3398 30.0895 30.4444 28.0645 30.9112 26.1773L30.917 26.1543C31.4941 23.5187 31.4941 20.8461 30.917 18.2106ZM29.228 25.772C28.9163 27.0032 27.3184 28.5338 26.0487 28.8166C24.3866 29.1326 22.7113 29.2677 21.0377 29.2214C21.0044 29.2205 20.9724 29.2334 20.9492 29.2572C20.7117 29.501 19.3908 30.857 19.3908 30.857L17.7332 32.5582C17.6121 32.6845 17.3992 32.5986 17.3992 32.4241V28.9344C17.3992 28.8768 17.358 28.8278 17.3014 28.8167C17.3011 28.8166 17.3007 28.8166 17.3004 28.8165C16.0308 28.5337 14.4335 27.0031 14.1212 25.7719C13.6018 23.3898 13.6018 20.9749 14.1212 18.5927C14.4335 17.3616 16.0308 15.8309 17.3004 15.5482C20.2033 14.9961 23.1465 14.9961 26.0487 15.5482C27.319 15.8309 28.9163 17.3616 29.228 18.5927C29.7479 20.975 29.7479 23.3898 29.228 25.772Z" fill="white"/>
<path d="M24.4367 27.3825C24.2415 27.3233 24.0555 27.2834 23.8827 27.2118C22.0927 26.4691 20.4452 25.511 19.1402 24.0422C18.3981 23.207 17.8173 22.2641 17.3263 21.2662C17.0935 20.793 16.8973 20.3012 16.6973 19.8127C16.5149 19.3671 16.7835 18.9069 17.0664 18.5712C17.3318 18.2561 17.6733 18.015 18.0432 17.8373C18.3318 17.6986 18.6166 17.7786 18.8275 18.0233C19.2832 18.5523 19.7019 19.1084 20.0409 19.7216C20.2494 20.0988 20.1922 20.5598 19.8144 20.8165C19.7225 20.8789 19.6389 20.9521 19.5533 21.0226C19.4783 21.0843 19.4077 21.1467 19.3563 21.2304C19.2623 21.3834 19.2578 21.5638 19.3183 21.7301C19.7842 23.0105 20.5695 24.0062 21.8583 24.5424C22.0645 24.6282 22.2716 24.7281 22.5092 24.7004C22.9071 24.654 23.0359 24.2175 23.3147 23.9895C23.5872 23.7667 23.9355 23.7637 24.2291 23.9495C24.5227 24.1353 24.8073 24.3348 25.0902 24.5364C25.3679 24.7343 25.6444 24.9279 25.9006 25.1535C26.1469 25.3704 26.2317 25.655 26.093 25.9494C25.8391 26.4885 25.4696 26.9371 24.9367 27.2234C24.7862 27.3041 24.6064 27.3303 24.4367 27.3825C24.6064 27.3303 24.2415 27.3232 24.4367 27.3825Z" fill="white"/>
<path d="M21.6799 17.2207C24.0214 17.2863 25.9445 18.8402 26.3566 21.155C26.4269 21.5495 26.4519 21.9527 26.4831 22.3531C26.4962 22.5214 26.4009 22.6814 26.2192 22.6836C26.0315 22.6858 25.947 22.5288 25.9348 22.3605C25.9107 22.0273 25.894 21.6926 25.8481 21.3622C25.6057 19.618 24.2149 18.175 22.4787 17.8653C22.2175 17.8187 21.9501 17.8065 21.6855 17.7787C21.5182 17.7611 21.2991 17.751 21.262 17.543C21.2309 17.3687 21.3781 17.2299 21.5441 17.221C21.5892 17.2185 21.6346 17.2205 21.6799 17.2207C24.0214 17.2863 21.6346 17.2205 21.6799 17.2207Z" fill="white"/>
<path d="M25.2379 21.834C25.234 21.8633 25.232 21.932 25.2149 21.9968C25.1527 22.2318 24.7963 22.2613 24.7143 22.024C24.69 21.9536 24.6863 21.8735 24.6862 21.7977C24.6853 21.3018 24.5776 20.8064 24.3275 20.3749C24.0704 19.9314 23.6776 19.5586 23.217 19.333C22.9384 19.1966 22.6372 19.1119 22.3319 19.0613C22.1985 19.0393 22.0636 19.0259 21.9295 19.0072C21.767 18.9846 21.6803 18.8811 21.688 18.721C21.6952 18.5709 21.8048 18.463 21.9683 18.4722C22.5057 18.5028 23.0247 18.6189 23.5024 18.8718C24.4739 19.3863 25.0288 20.1984 25.1908 21.2827C25.1981 21.3318 25.2099 21.3805 25.2136 21.4298C25.2228 21.5516 25.2285 21.6734 25.2379 21.834C25.234 21.8633 25.2285 21.6734 25.2379 21.834Z" fill="white"/>
<path d="M23.7813 21.7768C23.5854 21.7804 23.4806 21.6719 23.4604 21.4923C23.4463 21.3671 23.4352 21.2402 23.4053 21.1183C23.3465 20.8784 23.2189 20.656 23.0171 20.509C22.9218 20.4395 22.8138 20.3889 22.7007 20.3563C22.557 20.3148 22.4078 20.3262 22.2644 20.2911C22.1087 20.2529 22.0226 20.1269 22.0471 19.9808C22.0693 19.8479 22.1987 19.7441 22.3439 19.7546C23.2517 19.8202 23.9005 20.2895 23.9931 21.3582C23.9996 21.4336 24.0073 21.5133 23.9906 21.5854C23.9619 21.7089 23.8705 21.7708 23.7813 21.7768C23.8705 21.7708 23.5854 21.7804 23.7813 21.7768Z" fill="white"/>
</svg>
