<svg width="43" height="44" viewBox="0 0 43 44" fill="none" xmlns="http://www.w3.org/2000/svg">
<circle cx="21.5" cy="21.9023" r="21.5" fill="#FE840E" fill-opacity="0.5"/>
<path d="M27.5804 23.3041C28.18 23.8954 28.8113 24.4511 29.3475 25.0994C29.5838 25.388 29.8095 25.6872 29.9823 26.022C30.2257 26.4993 30.007 27.023 29.5838 27.0515H26.9526C26.2754 27.1085 25.7322 26.8342 25.2772 26.364C24.9139 25.99 24.5753 25.591 24.2261 25.2027C24.0815 25.046 23.9334 24.8964 23.7535 24.7788C23.3937 24.5437 23.0833 24.615 22.8788 24.9926C22.6707 25.3773 22.6213 25.8047 22.6001 26.2322C22.5719 26.8591 22.385 27.023 21.7607 27.0515C20.431 27.1156 19.1683 26.9125 17.9973 26.2357C16.9638 25.6373 16.1632 24.7966 15.4648 23.842C14.1069 21.9826 13.0664 19.9379 12.1317 17.8398C11.9201 17.366 12.0753 17.1131 12.5937 17.1025C13.4508 17.0846 14.3114 17.0882 15.1685 17.1025C15.5177 17.106 15.747 17.3091 15.8845 17.6439C16.3501 18.798 16.918 19.8952 17.6304 20.9104C17.8209 21.1811 18.0149 21.4518 18.29 21.6406C18.5933 21.8508 18.8261 21.7831 18.9707 21.4376C19.0624 21.2203 19.1012 20.9852 19.1224 20.7536C19.1894 19.9522 19.2 19.1507 19.0801 18.3528C19.006 17.8541 18.7274 17.5299 18.2371 17.4373C17.9867 17.3874 18.0219 17.2948 18.1454 17.1488C18.357 16.8994 18.5545 16.7427 18.9531 16.7427H21.9264C22.3955 16.8353 22.4978 17.049 22.5613 17.5228L22.5648 20.8569C22.5613 21.0422 22.6566 21.5872 22.9846 21.7083C23.2491 21.7938 23.4219 21.5836 23.5771 21.4126C24.2896 20.6503 24.7975 19.7491 25.2525 18.8123C25.4535 18.4026 25.6264 17.9752 25.7957 17.5477C25.9191 17.2307 26.1166 17.0775 26.4693 17.0846L29.3228 17.0953C29.4074 17.0953 29.4921 17.0953 29.5767 17.1096C30.0599 17.1915 30.1904 17.4017 30.0423 17.879C29.806 18.6235 29.351 19.2469 28.903 19.8702C28.4269 20.5363 27.9155 21.1811 27.4428 21.8508C27.009 22.4634 27.0407 22.7734 27.5804 23.3041Z" fill="#436EAB"/>
<path d="M27.5804 23.3041C28.18 23.8954 28.8113 24.4511 29.3475 25.0994C29.5838 25.388 29.8095 25.6872 29.9823 26.022C30.2257 26.4993 30.007 27.023 29.5838 27.0515H26.9526C26.2754 27.1085 25.7322 26.8342 25.2772 26.364C24.9139 25.99 24.5753 25.591 24.2261 25.2027C24.0815 25.046 23.9334 24.8964 23.7535 24.7788C23.3937 24.5437 23.0833 24.615 22.8788 24.9926C22.6707 25.3773 22.6213 25.8047 22.6001 26.2322C22.5719 26.8591 22.385 27.023 21.7607 27.0515C20.431 27.1156 19.1683 26.9125 17.9973 26.2357C16.9638 25.6373 16.1632 24.7966 15.4648 23.842C14.1069 21.9826 13.0664 19.9379 12.1317 17.8398C11.9201 17.366 12.0753 17.1131 12.5937 17.1025C13.4508 17.0846 14.3114 17.0882 15.1685 17.1025C15.5177 17.106 15.747 17.3091 15.8845 17.6439C16.3501 18.798 16.918 19.8952 17.6304 20.9104C17.8209 21.1811 18.0149 21.4518 18.29 21.6406C18.5933 21.8508 18.8261 21.7831 18.9707 21.4376C19.0624 21.2203 19.1012 20.9852 19.1224 20.7536C19.1894 19.9522 19.2 19.1507 19.0801 18.3528C19.006 17.8541 18.7274 17.5299 18.2371 17.4373C17.9867 17.3874 18.0219 17.2948 18.1454 17.1488C18.357 16.8994 18.5545 16.7427 18.9531 16.7427H21.9264C22.3955 16.8353 22.4978 17.049 22.5613 17.5228L22.5648 20.8569C22.5613 21.0422 22.6566 21.5872 22.9846 21.7083C23.2491 21.7938 23.4219 21.5836 23.5771 21.4126C24.2896 20.6503 24.7975 19.7491 25.2525 18.8123C25.4535 18.4026 25.6264 17.9752 25.7957 17.5477C25.9191 17.2307 26.1166 17.0775 26.4693 17.0846L29.3228 17.0953C29.4074 17.0953 29.4921 17.0953 29.5767 17.1096C30.0599 17.1915 30.1904 17.4017 30.0423 17.879C29.806 18.6235 29.351 19.2469 28.903 19.8702C28.4269 20.5363 27.9155 21.1811 27.4428 21.8508C27.009 22.4634 27.0407 22.7734 27.5804 23.3041Z" fill="#FEB447"/>
</svg>
