<svg width="43" height="44" viewBox="0 0 43 44" fill="none" xmlns="http://www.w3.org/2000/svg">
<circle cx="21.5" cy="22.2637" r="21.5" fill="#F06C46"/>
<path d="M28.5403 23.665C29.1399 24.2563 29.7713 24.812 30.3074 25.4603C30.5437 25.7488 30.7695 26.048 30.9423 26.3829C31.1857 26.8602 30.967 27.3838 30.5437 27.4123H27.9125C27.2353 27.4693 26.6921 27.195 26.2371 26.7248C25.8739 26.3508 25.5353 25.9518 25.1861 25.5636C25.0415 25.4068 24.8933 25.2572 24.7134 25.1397C24.3537 24.9046 24.0433 24.9758 23.8387 25.3534C23.6306 25.7381 23.5812 26.1656 23.5601 26.593C23.5319 27.22 23.3449 27.3838 22.7206 27.4123C21.3909 27.4764 20.1282 27.2734 18.9572 26.5966C17.9238 25.9981 17.1231 25.1575 16.4248 24.2028C15.0668 22.3434 14.0263 20.2987 13.0917 18.2007C12.88 17.7269 13.0352 17.474 13.5537 17.4633C14.4108 17.4455 15.2714 17.449 16.1285 17.4633C16.4777 17.4669 16.7069 17.6699 16.8445 18.0047C17.3101 19.1589 17.8779 20.256 18.5904 21.2712C18.7809 21.5419 18.9749 21.8126 19.25 22.0014C19.5533 22.2116 19.7861 22.1439 19.9307 21.7984C20.0224 21.5811 20.0612 21.346 20.0824 21.1145C20.1494 20.313 20.16 19.5115 20.04 18.7136C19.966 18.2149 19.6873 17.8907 19.1971 17.7981C18.9466 17.7483 18.9819 17.6556 19.1054 17.5096C19.317 17.2602 19.5145 17.1035 19.9131 17.1035H22.8864C23.3555 17.1961 23.4578 17.4099 23.5213 17.8836L23.5248 21.2178C23.5213 21.403 23.6165 21.948 23.9445 22.0691C24.2091 22.1546 24.3819 21.9444 24.5371 21.7735C25.2496 21.0112 25.7575 20.1099 26.2125 19.1731C26.4135 18.7635 26.5863 18.336 26.7556 17.9086C26.8791 17.5915 27.0766 17.4384 27.4293 17.4455L30.2827 17.4562C30.3674 17.4562 30.452 17.4562 30.5367 17.4704C31.0199 17.5523 31.1504 17.7625 31.0023 18.2398C30.7659 18.9843 30.3109 19.6077 29.863 20.2311C29.3868 20.8972 28.8754 21.5419 28.4028 22.2116C27.969 22.8243 28.0007 23.1342 28.5403 23.665Z" fill="#436EAB"/>
<path d="M28.5403 23.665C29.1399 24.2563 29.7713 24.812 30.3074 25.4603C30.5437 25.7488 30.7695 26.048 30.9423 26.3829C31.1857 26.8602 30.967 27.3838 30.5437 27.4123H27.9125C27.2353 27.4693 26.6921 27.195 26.2371 26.7248C25.8739 26.3508 25.5353 25.9518 25.1861 25.5636C25.0415 25.4068 24.8933 25.2572 24.7134 25.1397C24.3537 24.9046 24.0433 24.9758 23.8387 25.3534C23.6306 25.7381 23.5812 26.1656 23.5601 26.593C23.5319 27.22 23.3449 27.3838 22.7206 27.4123C21.3909 27.4764 20.1282 27.2734 18.9572 26.5966C17.9238 25.9981 17.1231 25.1575 16.4248 24.2028C15.0668 22.3434 14.0263 20.2987 13.0917 18.2007C12.88 17.7269 13.0352 17.474 13.5537 17.4633C14.4108 17.4455 15.2714 17.449 16.1285 17.4633C16.4777 17.4669 16.7069 17.6699 16.8445 18.0047C17.3101 19.1589 17.8779 20.256 18.5904 21.2712C18.7809 21.5419 18.9749 21.8126 19.25 22.0014C19.5533 22.2116 19.7861 22.1439 19.9307 21.7984C20.0224 21.5811 20.0612 21.346 20.0824 21.1145C20.1494 20.313 20.16 19.5115 20.04 18.7136C19.966 18.2149 19.6873 17.8907 19.1971 17.7981C18.9466 17.7483 18.9819 17.6556 19.1054 17.5096C19.317 17.2602 19.5145 17.1035 19.9131 17.1035H22.8864C23.3555 17.1961 23.4578 17.4099 23.5213 17.8836L23.5248 21.2178C23.5213 21.403 23.6165 21.948 23.9445 22.0691C24.2091 22.1546 24.3819 21.9444 24.5371 21.7735C25.2496 21.0112 25.7575 20.1099 26.2125 19.1731C26.4135 18.7635 26.5863 18.336 26.7556 17.9086C26.8791 17.5915 27.0766 17.4384 27.4293 17.4455L30.2827 17.4562C30.3674 17.4562 30.452 17.4562 30.5367 17.4704C31.0199 17.5523 31.1504 17.7625 31.0023 18.2398C30.7659 18.9843 30.3109 19.6077 29.863 20.2311C29.3868 20.8972 28.8754 21.5419 28.4028 22.2116C27.969 22.8243 28.0007 23.1342 28.5403 23.665Z" fill="white"/>
</svg>
