<svg width="43" height="44" viewBox="0 0 43 44" fill="none" xmlns="http://www.w3.org/2000/svg">
<circle cx="21.5" cy="22.2637" r="21.5" fill="#C81F56"/>
<path d="M21.4908 12.7741C16.737 13.0004 12.9856 16.9594 13 21.7186C13.0044 23.1681 13.3544 24.5363 13.9717 25.7451L13.0239 30.3458C12.9726 30.5947 13.1971 30.8126 13.4443 30.7541L17.9524 29.686C19.1107 30.2629 20.4116 30.5962 21.7884 30.6172C26.6472 30.6914 30.6986 26.8334 30.8501 21.9763C31.0124 16.77 26.7154 12.5253 21.4908 12.7741ZM26.87 26.6337C25.5497 27.9539 23.7944 28.681 21.9273 28.681C20.834 28.681 19.7873 28.4357 18.8162 27.952L18.1884 27.6393L15.4244 28.2941L16.0062 25.4698L15.6969 24.8642C15.1928 23.8768 14.9372 22.8092 14.9372 21.6909C14.9372 19.8238 15.6643 18.0685 16.9845 16.7482C18.293 15.4397 20.077 14.7008 21.9274 14.7008C23.7945 14.7008 25.5498 15.4279 26.87 16.7481C28.1903 18.0684 28.9174 19.8237 28.9174 21.6908C28.9174 23.5413 28.1784 25.3253 26.87 26.6337Z" fill="#7AD06D"/>
<path d="M21.4908 12.7741C16.737 13.0004 12.9856 16.9594 13 21.7186C13.0044 23.1681 13.3544 24.5363 13.9717 25.7451L13.0239 30.3458C12.9726 30.5947 13.1971 30.8126 13.4443 30.7541L17.9524 29.686C19.1107 30.2629 20.4116 30.5962 21.7884 30.6172C26.6472 30.6914 30.6986 26.8334 30.8501 21.9763C31.0124 16.77 26.7154 12.5253 21.4908 12.7741ZM26.87 26.6337C25.5497 27.9539 23.7944 28.681 21.9273 28.681C20.834 28.681 19.7873 28.4357 18.8162 27.952L18.1884 27.6393L15.4244 28.2941L16.0062 25.4698L15.6969 24.8642C15.1928 23.8768 14.9372 22.8092 14.9372 21.6909C14.9372 19.8238 15.6643 18.0685 16.9845 16.7482C18.293 15.4397 20.077 14.7008 21.9274 14.7008C23.7945 14.7008 25.5498 15.4279 26.87 16.7481C28.1903 18.0684 28.9174 19.8237 28.9174 21.6908C28.9174 23.5413 28.1784 25.3253 26.87 26.6337Z" fill="white"/>
<path d="M26.2603 23.6269L24.531 23.1303C24.3037 23.0651 24.0589 23.1296 23.8932 23.2983L23.4704 23.7292C23.2921 23.9108 23.0215 23.9692 22.7855 23.8737C21.9675 23.5427 20.2468 22.0128 19.8074 21.2475C19.6806 21.0267 19.7015 20.7508 19.8572 20.5493L20.2264 20.0717C20.371 19.8846 20.4016 19.6333 20.3059 19.4169L19.5784 17.7715C19.4041 17.3774 18.9005 17.2627 18.5715 17.5409C18.0889 17.9491 17.5162 18.5694 17.4466 19.2566C17.3239 20.4681 17.8435 21.9954 19.8083 23.8293C22.0783 25.9479 23.896 26.2278 25.0796 25.9411C25.7509 25.7785 26.2873 25.1267 26.6259 24.5929C26.8567 24.2291 26.6745 23.7458 26.2603 23.6269Z" fill="#7AD06D"/>
<path d="M26.2603 23.6269L24.531 23.1303C24.3037 23.0651 24.0589 23.1296 23.8932 23.2983L23.4704 23.7292C23.2921 23.9108 23.0215 23.9692 22.7855 23.8737C21.9675 23.5427 20.2468 22.0128 19.8074 21.2475C19.6806 21.0267 19.7015 20.7508 19.8572 20.5493L20.2264 20.0717C20.371 19.8846 20.4016 19.6333 20.3059 19.4169L19.5784 17.7715C19.4041 17.3774 18.9005 17.2627 18.5715 17.5409C18.0889 17.9491 17.5162 18.5694 17.4466 19.2566C17.3239 20.4681 17.8435 21.9954 19.8083 23.8293C22.0783 25.9479 23.896 26.2278 25.0796 25.9411C25.7509 25.7785 26.2873 25.1267 26.6259 24.5929C26.8567 24.2291 26.6745 23.7458 26.2603 23.6269Z" fill="white"/>
</svg>
