<svg width="30" height="28" fill="none" xmlns="http://www.w3.org/2000/svg"><path d="M28.636 0H1.364A1.364 1.364 0 000 1.364v10.909a1.364 1.364 0 001.364 1.363h4.09V25.91a1.363 1.363 0 001.364 1.364h16.364a1.364 1.364 0 001.364-1.364V13.636h4.09A1.364 1.364 0 0030 12.273V1.363A1.364 1.364 0 0028.636 0zM8.182 24.546v-2.728a2.727 2.727 0 012.727 2.727H8.182zm13.636 0h-2.727a2.727 2.727 0 012.727-2.728v2.727zm0-5.455a5.455 5.455 0 00-5.454 5.454h-2.728a5.455 5.455 0 00-5.454-5.454V8.18h13.636v10.91zm5.455-8.182h-2.727V6.82a1.364 1.364 0 00-1.364-1.364H6.818a1.364 1.364 0 00-1.363 1.363v4.091H2.727V2.727h24.546v8.182zM15 17.727a4.091 4.091 0 100-8.182 4.091 4.091 0 000 8.182zm0-5.454A1.364 1.364 0 1115 15a1.364 1.364 0 010-2.728z" fill="#F5FA72"/></svg>