<svg width="40" height="37" fill="none" xmlns="http://www.w3.org/2000/svg"><path d="M38.182 0H1.818A1.818 1.818 0 000 1.818v14.546a1.818 1.818 0 001.818 1.818h5.455v16.363a1.818 1.818 0 001.818 1.819h21.818a1.818 1.818 0 001.818-1.819V18.182h5.455A1.818 1.818 0 0040 16.364V1.818A1.818 1.818 0 0038.182 0zM10.909 32.727v-3.636a3.636 3.636 0 013.636 3.636H10.91zm18.182 0h-3.637a3.636 3.636 0 013.637-3.636v3.636zm0-7.272a7.273 7.273 0 00-7.273 7.272h-3.636a7.273 7.273 0 00-7.273-7.272V10.909h18.182v14.545zm7.273-10.91h-3.637V9.091a1.818 1.818 0 00-1.818-1.818H9.091A1.818 1.818 0 007.273 9.09v5.455H3.636V3.636h32.728v10.91zM20 23.636a5.454 5.454 0 100-10.908 5.454 5.454 0 000 10.908zm0-7.272A1.818 1.818 0 1120 20a1.818 1.818 0 010-3.636z" fill="#F5FA72"/></svg>