<svg width="40" height="40" fill="none" xmlns="http://www.w3.org/2000/svg"><path d="M23.636 14.546h-7.272a1.818 1.818 0 00-1.819 1.818v21.818A1.818 1.818 0 0016.364 40h7.272a1.818 1.818 0 001.819-1.818V16.364a1.818 1.818 0 00-1.819-1.819zm-1.818 21.818h-3.636V18.182h3.636v18.182zM38.182 0h-7.273a1.818 1.818 0 00-1.818 1.818v36.364A1.819 1.819 0 0030.909 40h7.273A1.819 1.819 0 0040 38.182V1.818A1.818 1.818 0 0038.182 0zm-1.818 36.364h-3.637V3.636h3.637v32.728zM9.09 25.454H1.818A1.818 1.818 0 000 27.273v10.909A1.818 1.818 0 001.818 40h7.273a1.819 1.819 0 001.818-1.818v-10.91a1.818 1.818 0 00-1.818-1.817zm-1.818 10.91H3.636V29.09h3.637v7.273z" fill="#C81F56"/></svg>