<svg width="40" height="40" fill="none" xmlns="http://www.w3.org/2000/svg"><path d="M16.34 17.1a2 2 0 001.46.9 1.999 1.999 0 001.62-.58l2.26-2.28 2.66 4A2 2 0 0026 20a1.88 1.88 0 001.1-.34 2 2 0 00.56-2.76l-4-6a2 2 0 00-1.46-.9 2 2 0 00-1.62.58l-2.26 2.28-2.66-4a2 2 0 10-3.32 2.2l4 6.04zM38 24h-2V4h2a2 2 0 000-4H2a2 2 0 000 4h2v20H2a2 2 0 100 4h16v2.3l-9.1 6A2 2 0 0010 40a1.88 1.88 0 001.1-.34L18 35.1V38a2 2 0 004 0v-2.9l6.9 4.56A1.88 1.88 0 0030 40a2 2 0 001.1-3.66l-9.1-6V28h16a2 2 0 000-4zm-6 0H8V4h24v20z" fill="#C81F56"/></svg>