<svg width="40" height="40" fill="none" xmlns="http://www.w3.org/2000/svg"><path d="M37.95 32.525V19.442a3.989 3.989 0 10-5.425-5.425h-6.542V7.475a3.988 3.988 0 10-5.425-5.425H7.475A3.989 3.989 0 102.05 7.475v13.083a3.99 3.99 0 105.425 5.425h6.542v6.542a3.988 3.988 0 002.49 7.437 3.988 3.988 0 002.935-2.012h13.083a3.988 3.988 0 007.437-2.491 3.989 3.989 0 00-2.012-2.934zM12.022 16.011a3.989 3.989 0 001.995 3.43v2.553H7.475a3.81 3.81 0 00-1.436-1.436V7.475a3.81 3.81 0 001.436-1.436h13.083c.34.6.837 1.096 1.436 1.436v6.542h-2.552a3.989 3.989 0 00-7.42 1.994zm9.972 1.995v2.552c-.6.34-1.096.837-1.436 1.436h-2.552v-2.552c.6-.34 1.096-.837 1.436-1.436h2.552zm11.967 14.52a3.81 3.81 0 00-1.436 1.435H19.442a3.81 3.81 0 00-1.436-1.436v-6.542h2.552a3.989 3.989 0 105.425-5.425v-2.552h6.542c.34.6.836 1.096 1.436 1.436v13.083z" fill="#C81F56"/></svg>