<svg width="40" height="44" fill="none" xmlns="http://www.w3.org/2000/svg"><path d="M20 36a2 2 0 100-4 2 2 0 000 4zm10 0a2 2 0 100-4 2 2 0 000 4zm0-8a2 2 0 100-4 2 2 0 000 4zm-10 0a2 2 0 100-4 2 2 0 000 4zM34 4h-2V2a2 2 0 10-4 0v2H12V2a2 2 0 10-4 0v2H6a6 6 0 00-6 6v28a6 6 0 006 6h28a6 6 0 006-6V10a6 6 0 00-6-6zm2 34a2 2 0 01-2 2H6a2 2 0 01-2-2V20h32v18zm0-22H4v-6a2 2 0 012-2h2v2a2 2 0 004 0V8h16v2a2 2 0 004 0V8h2a2 2 0 012 2v6zM10 28a2 2 0 100-4 2 2 0 000 4zm0 8a2 2 0 100-4 2 2 0 000 4z" fill="#F5FA72"/></svg>