<svg width="43" height="44" fill="none" xmlns="http://www.w3.org/2000/svg"><circle cx="21.5" cy="21.902" r="21.5" fill="#FE840E" fill-opacity=".5"/><path d="M17.448 22.406h1.678v6.985c0 .139.11.25.248.25h2.848a.249.249 0 00.248-.25V22.44h1.929c.125 0 .23-.094.245-.221l.293-2.572a.251.251 0 00-.06-.193.244.244 0 00-.185-.085H22.47v-1.61c0-.488.26-.732.768-.732h1.454a.249.249 0 00.248-.251v-2.36c0-.14-.11-.251-.248-.251h-2.004c-.015 0-.045-.003-.092-.003-.348 0-1.556.07-2.51.955-1.058.988-.912 2.164-.876 2.366v1.886h-1.762a.249.249 0 00-.248.25v2.54c0 .136.11.247.248.247z" fill="#385C8E"/><path d="M17.448 22.406h1.678v6.985c0 .139.11.25.248.25h2.848a.249.249 0 00.248-.25V22.44h1.929c.125 0 .23-.094.245-.221l.293-2.572a.251.251 0 00-.06-.193.244.244 0 00-.185-.085H22.47v-1.61c0-.488.26-.732.768-.732h1.454a.249.249 0 00.248-.251v-2.36c0-.14-.11-.251-.248-.251h-2.004c-.015 0-.045-.003-.092-.003-.348 0-1.556.07-2.51.955-1.058.988-.912 2.164-.876 2.366v1.886h-1.762a.249.249 0 00-.248.25v2.54c0 .136.11.247.248.247z" fill="#FEB447"/></svg>