<svg width="43" height="44" fill="none" xmlns="http://www.w3.org/2000/svg"><circle cx="21.5" cy="22.264" r="21.5" fill="#FE840E"/><path d="M18.248 22.768h1.678v6.985c0 .139.11.25.248.25h2.847a.249.249 0 00.249-.25V22.8h1.929c.125 0 .23-.093.245-.22l.293-2.572a.251.251 0 00-.06-.194.244.244 0 00-.185-.084H23.27v-1.61c0-.487.26-.732.768-.732h1.454a.249.249 0 00.248-.25v-2.36c0-.14-.11-.252-.248-.252h-2.004c-.015 0-.045-.003-.093-.003-.347 0-1.555.07-2.509.956-1.059.988-.912 2.163-.876 2.366v1.886h-1.762a.249.249 0 00-.248.25v2.54c0 .135.11.247.248.247z" fill="#385C8E"/><path d="M18.248 22.768h1.678v6.985c0 .139.11.25.248.25h2.847a.249.249 0 00.249-.25V22.8h1.929c.125 0 .23-.093.245-.22l.293-2.572a.251.251 0 00-.06-.194.244.244 0 00-.185-.084H23.27v-1.61c0-.487.26-.732.768-.732h1.454a.249.249 0 00.248-.25v-2.36c0-.14-.11-.252-.248-.252h-2.004c-.015 0-.045-.003-.093-.003-.347 0-1.555.07-2.509.956-1.059.988-.912 2.163-.876 2.366v1.886h-1.762a.249.249 0 00-.248.25v2.54c0 .135.11.247.248.247z" fill="#fff"/></svg>