<svg width="43" height="44" fill="none" xmlns="http://www.w3.org/2000/svg"><circle cx="21.5" cy="22.264" r="21.5" fill="#FE840E"/><path d="M25.375 13.402h-6.75A5.626 5.626 0 0013 19.027v6.75a5.626 5.626 0 005.625 5.625h6.75A5.626 5.626 0 0031 25.777v-6.75a5.626 5.626 0 00-5.625-5.625zm3.938 12.375a3.942 3.942 0 01-3.938 3.938h-6.75a3.942 3.942 0 01-3.938-3.938v-6.75a3.942 3.942 0 013.938-3.937h6.75a3.942 3.942 0 013.938 3.937v6.75z" fill="#fff"/><path d="M22 17.902a4.5 4.5 0 100 9 4.5 4.5 0 000-9zm0 7.313a2.816 2.816 0 01-2.813-2.813A2.816 2.816 0 0122 19.59a2.816 2.816 0 012.813 2.812A2.816 2.816 0 0122 25.215zm4.838-7.05a.6.6 0 100-1.2.6.6 0 000 1.2z" fill="#fff"/></svg>