<svg width="30" height="32" fill="none" xmlns="http://www.w3.org/2000/svg"><path d="M28.167 26.013h-9.162a4.448 4.448 0 00-2.698-2.698V18.6h4.7A6.419 6.419 0 0022.933 6 8.895 8.895 0 006.019 8.415 5.189 5.189 0 007.412 18.6h5.93v4.715a4.448 4.448 0 00-2.698 2.698H1.482a1.483 1.483 0 000 2.964h9.162a4.448 4.448 0 008.361 0h9.162a1.482 1.482 0 100-2.964zM7.412 15.635a2.224 2.224 0 010-4.447 1.483 1.483 0 001.483-1.482 5.93 5.93 0 0111.548-1.913 1.482 1.482 0 001.156.993 3.424 3.424 0 012.861 3.395 3.469 3.469 0 01-3.454 3.454H7.412zm7.413 13.342a1.482 1.482 0 110-2.964 1.482 1.482 0 010 2.964z" fill="#FE840E"/></svg>