<svg width="22" height="23" fill="none" xmlns="http://www.w3.org/2000/svg"><path d="M20.9 18.646h-6.798a3.284 3.284 0 00-2.002-1.992v-3.482h3.487a4.777 4.777 0 003.2-1.09 4.723 4.723 0 00.956-6.222 4.761 4.761 0 00-2.726-1.993A6.581 6.581 0 0014.18.812a6.627 6.627 0 00-7.85 1.116 6.557 6.557 0 00-1.864 3.723 3.85 3.85 0 00-2.18 1.588 3.817 3.817 0 00.686 4.987 3.86 3.86 0 002.528.946h4.4v3.482a3.303 3.303 0 00-2.002 1.992H1.1c-.292 0-.572.116-.778.321a1.092 1.092 0 00.778 1.87h6.798a3.287 3.287 0 001.208 1.568 3.311 3.311 0 003.788 0 3.286 3.286 0 001.208-1.569H20.9a1.092 1.092 0 100-2.19zM5.5 10.983c-.438 0-.857-.173-1.167-.481a1.638 1.638 0 010-2.323c.31-.308.73-.48 1.167-.48.292 0 .572-.116.778-.321.206-.205.322-.484.322-.774a4.367 4.367 0 011.04-2.84 4.418 4.418 0 015.624-.927A4.383 4.383 0 0115.17 5.19a1.095 1.095 0 00.858.734 2.544 2.544 0 011.525.865 2.52 2.52 0 01.598 1.642 2.556 2.556 0 01-.754 1.8 2.58 2.58 0 01-1.809.75H5.5zm5.5 9.853a1.104 1.104 0 01-1.016-.676 1.09 1.09 0 01.238-1.193 1.101 1.101 0 011.878.774 1.101 1.101 0 01-1.1 1.095z" fill="#C81F56"/></svg>