<svg width="13" height="13" fill="none" xmlns="http://www.w3.org/2000/svg"><path d="M11.758 10.065L9.9 8.175c-.37-.376-.982-.365-1.365.025l-.936.953-.185-.105c-.59-.333-1.4-.79-2.25-1.657-.854-.87-1.303-1.694-1.632-2.296l-.1-.183.628-.639.308-.315c.384-.39.394-1.014.025-1.39L2.536.677C2.166.3 1.554.312 1.17.703l-.523.536.014.014a3.097 3.097 0 00-.431.775c-.1.27-.163.528-.192.786-.245 2.07.684 3.961 3.205 6.529 3.486 3.548 6.295 3.28 6.416 3.267a3.09 3.09 0 001.532-.635l.011.01.53-.529c.384-.39.395-1.014.026-1.39z" fill="#fff"/></svg>