<svg width="30" height="31" fill="none" xmlns="http://www.w3.org/2000/svg"><path d="M28.638 22.368l-3.125-3.208a4.645 4.645 0 00-5.131-.862l-1.359-1.362a10.61 10.61 0 00-1.54-14.35 10.55 10.55 0 00-14.389.516 10.607 10.607 0 00-.514 14.424 10.546 10.546 0 0014.315 1.544l1.344 1.346a4.549 4.549 0 00.8 5.235l3.2 3.207a4.522 4.522 0 006.399 0A4.54 4.54 0 0030 25.613a4.547 4.547 0 00-1.362-3.245zm-12.8-6.415a7.54 7.54 0 01-8.22 1.631 7.55 7.55 0 01-3.384-2.786 7.578 7.578 0 010-8.402A7.55 7.55 0 017.617 3.61a7.53 7.53 0 018.222 1.631 7.565 7.565 0 012.217 5.356 7.581 7.581 0 01-2.217 5.356zM26.51 26.65a1.51 1.51 0 01-2.144 0l-3.2-3.208a1.514 1.514 0 010-2.148 1.508 1.508 0 012.144 0l3.2 3.207a1.514 1.514 0 010 2.148z" fill="#F5FA72"/></svg>