<svg width="45" height="45" fill="none" xmlns="http://www.w3.org/2000/svg"><g filter="url(#filter0_i_1_4034)" fill-rule="evenodd" clip-rule="evenodd"><path d="M22.7.796c12.096 0 21.902 9.807 21.902 21.903 0 12.097-9.806 21.903-21.903 21.903-12.096 0-21.903-9.806-21.903-21.903C.796 10.603 10.603.796 22.7.796z" fill="#FFEE40"/><path d="M22.7.796c12.096 0 21.902 9.807 21.902 21.903 0 12.097-9.806 21.903-21.903 21.903-12.096 0-21.903-9.806-21.903-21.903C.796 10.603 10.603.796 22.7.796z" fill="url(#paint0_linear_1_4034)" style="mix-blend-mode:overlay"/></g><path fill-rule="evenodd" clip-rule="evenodd" d="M22.7 2.787c10.996 0 19.91 9.271 19.91 20.708 0 11.437-8.914 20.708-19.91 20.708-10.997 0-19.912-9.271-19.912-20.708 0-11.437 8.915-20.708 19.911-20.708z" fill="url(#paint1_linear_1_4034)"/><path fill-rule="evenodd" clip-rule="evenodd" d="M22.7 2.787c10.996 0 19.91 9.271 19.91 20.708 0 11.437-8.914 20.708-19.91 20.708-10.997 0-19.912-9.271-19.912-20.708 0-11.437 8.915-20.708 19.911-20.708z" fill="url(#paint2_linear_1_4034)" style="mix-blend-mode:overlay"/><g filter="url(#filter1_dii_1_4034)"><path fill-rule="evenodd" clip-rule="evenodd" d="M27.876 37.434c-1.044 0-2.801-.598-5.177-.598-2.376 0-4.02.598-5.177.598-.756 0-1.637-1.163-1.593-1.992 0-2.79 3.173-5.177 6.77-5.177 3.597 0 6.77 2.387 6.77 5.177.044.83-.836 1.992-1.593 1.992z" fill="#A66707"/></g><g filter="url(#filter2_dii_1_4034)"><path fill-rule="evenodd" clip-rule="evenodd" d="M14.336 19.514c1.32 0 2.39 1.337 2.39 2.986 0 1.65-1.07 2.987-2.39 2.987s-2.389-1.337-2.389-2.987c0-1.65 1.07-2.986 2.39-2.986z" fill="#A66707"/></g><g filter="url(#filter3_dii_1_4034)"><path fill-rule="evenodd" clip-rule="evenodd" d="M31.062 19.514c1.32 0 2.39 1.337 2.39 2.986 0 1.65-1.07 2.987-2.39 2.987s-2.39-1.337-2.39-2.987c0-1.65 1.07-2.986 2.39-2.986z" fill="#A66707"/></g><g filter="url(#filter4_dii_1_4034)"><path fill-rule="evenodd" clip-rule="evenodd" d="M7.566 14.734c-.269 0-.387-.112-.387-.314 0-.398 2.149-3.684 7.09-3.684 1.766 0 2.385.823 2.456 1.21.077.416-.47.399-.796.399h-1.593c-3.393 0-6.343 2.39-6.77 2.39z" fill="#A66707"/></g><g filter="url(#filter5_dii_1_4034)"><path fill-rule="evenodd" clip-rule="evenodd" d="M37.844 14.734c.269 0 .387-.112.387-.313 0-.396-2.151-3.672-7.098-3.672-1.77 0-2.39.82-2.46 1.206-.077.415.471.397.797.397h1.595c3.397 0 6.351 2.382 6.779 2.382z" fill="#A66707"/></g><defs><filter id="filter0_i_1_4034" x=".797" y="-9.38" width="43.805" height="53.982" filterUnits="userSpaceOnUse" color-interpolation-filters="sRGB"><feFlood flood-opacity="0" result="BackgroundImageFix"/><feBlend in="SourceGraphic" in2="BackgroundImageFix" result="shape"/><feColorMatrix in="SourceAlpha" values="0 0 0 0 0 0 0 0 0 0 0 0 0 0 0 0 0 0 127 0" result="hardAlpha"/><feOffset dy="-10.177"/><feGaussianBlur stdDeviation="12.212"/><feComposite in2="hardAlpha" operator="arithmetic" k2="-1" k3="1"/><feColorMatrix values="0 0 0 0 1 0 0 0 0 0.603922 0 0 0 0 0 0 0 0 1 0"/><feBlend in2="shape" result="effect1_innerShadow_1_4034"/></filter><filter id="filter1_dii_1_4034" x="15.521" y="30.265" width="14.357" height="7.982" filterUnits="userSpaceOnUse" color-interpolation-filters="sRGB"><feFlood flood-opacity="0" result="BackgroundImageFix"/><feColorMatrix in="SourceAlpha" values="0 0 0 0 0 0 0 0 0 0 0 0 0 0 0 0 0 0 127 0" result="hardAlpha"/><feOffset dy=".407"/><feGaussianBlur stdDeviation=".204"/><feColorMatrix values="0 0 0 0 1 0 0 0 0 1 0 0 0 0 1 0 0 0 1 0"/><feBlend in2="BackgroundImageFix" result="effect1_dropShadow_1_4034"/><feBlend in="SourceGraphic" in2="effect1_dropShadow_1_4034" result="shape"/><feColorMatrix in="SourceAlpha" values="0 0 0 0 0 0 0 0 0 0 0 0 0 0 0 0 0 0 127 0" result="hardAlpha"/><feOffset dy=".814"/><feGaussianBlur stdDeviation=".936"/><feComposite in2="hardAlpha" operator="arithmetic" k2="-1" k3="1"/><feColorMatrix values="0 0 0 0 0 0 0 0 0 0 0 0 0 0 0 0 0 0 1 0"/><feBlend in2="shape" result="effect2_innerShadow_1_4034"/><feColorMatrix in="SourceAlpha" values="0 0 0 0 0 0 0 0 0 0 0 0 0 0 0 0 0 0 127 0" result="hardAlpha"/><feOffset/><feGaussianBlur stdDeviation=".611"/><feComposite in2="hardAlpha" operator="arithmetic" k2="-1" k3="1"/><feColorMatrix values="0 0 0 0 0 0 0 0 0 0 0 0 0 0 0 0 0 0 0.75 0"/><feBlend in2="effect2_innerShadow_1_4034" result="effect3_innerShadow_1_4034"/></filter><filter id="filter2_dii_1_4034" x="11.54" y="19.513" width="5.592" height="6.788" filterUnits="userSpaceOnUse" color-interpolation-filters="sRGB"><feFlood flood-opacity="0" result="BackgroundImageFix"/><feColorMatrix in="SourceAlpha" values="0 0 0 0 0 0 0 0 0 0 0 0 0 0 0 0 0 0 127 0" result="hardAlpha"/><feOffset dy=".407"/><feGaussianBlur stdDeviation=".204"/><feColorMatrix values="0 0 0 0 1 0 0 0 0 1 0 0 0 0 1 0 0 0 1 0"/><feBlend in2="BackgroundImageFix" result="effect1_dropShadow_1_4034"/><feBlend in="SourceGraphic" in2="effect1_dropShadow_1_4034" result="shape"/><feColorMatrix in="SourceAlpha" values="0 0 0 0 0 0 0 0 0 0 0 0 0 0 0 0 0 0 127 0" result="hardAlpha"/><feOffset dy=".814"/><feGaussianBlur stdDeviation=".936"/><feComposite in2="hardAlpha" operator="arithmetic" k2="-1" k3="1"/><feColorMatrix values="0 0 0 0 0 0 0 0 0 0 0 0 0 0 0 0 0 0 1 0"/><feBlend in2="shape" result="effect2_innerShadow_1_4034"/><feColorMatrix in="SourceAlpha" values="0 0 0 0 0 0 0 0 0 0 0 0 0 0 0 0 0 0 127 0" result="hardAlpha"/><feOffset/><feGaussianBlur stdDeviation=".611"/><feComposite in2="hardAlpha" operator="arithmetic" k2="-1" k3="1"/><feColorMatrix values="0 0 0 0 0 0 0 0 0 0 0 0 0 0 0 0 0 0 0.75 0"/><feBlend in2="effect2_innerShadow_1_4034" result="effect3_innerShadow_1_4034"/></filter><filter id="filter3_dii_1_4034" x="28.266" y="19.513" width="5.592" height="6.788" filterUnits="userSpaceOnUse" color-interpolation-filters="sRGB"><feFlood flood-opacity="0" result="BackgroundImageFix"/><feColorMatrix in="SourceAlpha" values="0 0 0 0 0 0 0 0 0 0 0 0 0 0 0 0 0 0 127 0" result="hardAlpha"/><feOffset dy=".407"/><feGaussianBlur stdDeviation=".204"/><feColorMatrix values="0 0 0 0 1 0 0 0 0 1 0 0 0 0 1 0 0 0 1 0"/><feBlend in2="BackgroundImageFix" result="effect1_dropShadow_1_4034"/><feBlend in="SourceGraphic" in2="effect1_dropShadow_1_4034" result="shape"/><feColorMatrix in="SourceAlpha" values="0 0 0 0 0 0 0 0 0 0 0 0 0 0 0 0 0 0 127 0" result="hardAlpha"/><feOffset dy=".814"/><feGaussianBlur stdDeviation=".936"/><feComposite in2="hardAlpha" operator="arithmetic" k2="-1" k3="1"/><feColorMatrix values="0 0 0 0 0 0 0 0 0 0 0 0 0 0 0 0 0 0 1 0"/><feBlend in2="shape" result="effect2_innerShadow_1_4034"/><feColorMatrix in="SourceAlpha" values="0 0 0 0 0 0 0 0 0 0 0 0 0 0 0 0 0 0 127 0" result="hardAlpha"/><feOffset/><feGaussianBlur stdDeviation=".611"/><feComposite in2="hardAlpha" operator="arithmetic" k2="-1" k3="1"/><feColorMatrix values="0 0 0 0 0 0 0 0 0 0 0 0 0 0 0 0 0 0 0.75 0"/><feBlend in2="effect2_innerShadow_1_4034" result="effect3_innerShadow_1_4034"/></filter><filter id="filter4_dii_1_4034" x="6.773" y="10.736" width="10.367" height="4.812" filterUnits="userSpaceOnUse" color-interpolation-filters="sRGB"><feFlood flood-opacity="0" result="BackgroundImageFix"/><feColorMatrix in="SourceAlpha" values="0 0 0 0 0 0 0 0 0 0 0 0 0 0 0 0 0 0 127 0" result="hardAlpha"/><feOffset dy=".407"/><feGaussianBlur stdDeviation=".204"/><feColorMatrix values="0 0 0 0 1 0 0 0 0 1 0 0 0 0 1 0 0 0 1 0"/><feBlend in2="BackgroundImageFix" result="effect1_dropShadow_1_4034"/><feBlend in="SourceGraphic" in2="effect1_dropShadow_1_4034" result="shape"/><feColorMatrix in="SourceAlpha" values="0 0 0 0 0 0 0 0 0 0 0 0 0 0 0 0 0 0 127 0" result="hardAlpha"/><feOffset dy=".814"/><feGaussianBlur stdDeviation=".936"/><feComposite in2="hardAlpha" operator="arithmetic" k2="-1" k3="1"/><feColorMatrix values="0 0 0 0 0 0 0 0 0 0 0 0 0 0 0 0 0 0 1 0"/><feBlend in2="shape" result="effect2_innerShadow_1_4034"/><feColorMatrix in="SourceAlpha" values="0 0 0 0 0 0 0 0 0 0 0 0 0 0 0 0 0 0 127 0" result="hardAlpha"/><feOffset/><feGaussianBlur stdDeviation=".611"/><feComposite in2="hardAlpha" operator="arithmetic" k2="-1" k3="1"/><feColorMatrix values="0 0 0 0 0 0 0 0 0 0 0 0 0 0 0 0 0 0 0.75 0"/><feBlend in2="effect2_innerShadow_1_4034" result="effect3_innerShadow_1_4034"/></filter><filter id="filter5_dii_1_4034" x="28.258" y="10.749" width="10.38" height="4.8" filterUnits="userSpaceOnUse" color-interpolation-filters="sRGB"><feFlood flood-opacity="0" result="BackgroundImageFix"/><feColorMatrix in="SourceAlpha" values="0 0 0 0 0 0 0 0 0 0 0 0 0 0 0 0 0 0 127 0" result="hardAlpha"/><feOffset dy=".407"/><feGaussianBlur stdDeviation=".204"/><feColorMatrix values="0 0 0 0 1 0 0 0 0 1 0 0 0 0 1 0 0 0 1 0"/><feBlend in2="BackgroundImageFix" result="effect1_dropShadow_1_4034"/><feBlend in="SourceGraphic" in2="effect1_dropShadow_1_4034" result="shape"/><feColorMatrix in="SourceAlpha" values="0 0 0 0 0 0 0 0 0 0 0 0 0 0 0 0 0 0 127 0" result="hardAlpha"/><feOffset dy=".814"/><feGaussianBlur stdDeviation=".936"/><feComposite in2="hardAlpha" operator="arithmetic" k2="-1" k3="1"/><feColorMatrix values="0 0 0 0 0 0 0 0 0 0 0 0 0 0 0 0 0 0 1 0"/><feBlend in2="shape" result="effect2_innerShadow_1_4034"/><feColorMatrix in="SourceAlpha" values="0 0 0 0 0 0 0 0 0 0 0 0 0 0 0 0 0 0 127 0" result="hardAlpha"/><feOffset/><feGaussianBlur stdDeviation=".611"/><feComposite in2="hardAlpha" operator="arithmetic" k2="-1" k3="1"/><feColorMatrix values="0 0 0 0 0 0 0 0 0 0 0 0 0 0 0 0 0 0 0.75 0"/><feBlend in2="effect2_innerShadow_1_4034" result="effect3_innerShadow_1_4034"/></filter><linearGradient id="paint0_linear_1_4034" x1="45" y1="45" x2="45" y2="0" gradientUnits="userSpaceOnUse"><stop stop-color="#fff" stop-opacity=".01"/><stop offset="1" stop-color="#fff"/></linearGradient><linearGradient id="paint1_linear_1_4034" x1="36.646" y1="12.675" x2="36.646" y2="-16.586" gradientUnits="userSpaceOnUse"><stop stop-color="#fff" stop-opacity=".01"/><stop offset="1" stop-color="#fff"/></linearGradient><linearGradient id="paint2_linear_1_4034" x1="12.544" y1="1.991" x2="12.544" y2="23.296" gradientUnits="userSpaceOnUse"><stop stop-color="#fff"/><stop offset="1" stop-color="#fff" stop-opacity=".01"/></linearGradient></defs></svg>