<svg width="43" height="44" fill="none" xmlns="http://www.w3.org/2000/svg"><circle cx="21.5" cy="21.902" r="21.5" fill="#FE840E" fill-opacity=".5"/><path d="M30.568 17.47a6.105 6.105 0 01-.833.296 3.61 3.61 0 00.749-1.287.27.27 0 00-.091-.295.284.284 0 00-.316-.02 6.69 6.69 0 01-1.935.748 3.75 3.75 0 00-2.583-1.03c-2.035 0-3.691 1.618-3.691 3.607 0 .158.01.312.03.466a9.516 9.516 0 01-6.486-3.364.278.278 0 00-.235-.099.275.275 0 00-.219.135 3.525 3.525 0 00-.504 1.815c0 .87.32 1.694.88 2.337a3.294 3.294 0 01-.493-.216.277.277 0 00-.272.003.274.274 0 00-.141.23v.049c0 1.297.715 2.465 1.807 3.102a4.205 4.205 0 01-.282-.04.287.287 0 00-.259.086.268.268 0 00-.057.262c.403 1.235 1.444 2.14 2.704 2.42a6.634 6.634 0 01-3.49.974c-.262 0-.524-.016-.783-.046a.275.275 0 00-.292.178.267.267 0 00.11.318 10.138 10.138 0 005.385 1.543c3.759 0 6.11-1.733 7.42-3.184 1.636-1.812 2.573-4.211 2.573-6.581 0-.099 0-.2-.003-.3a7.153 7.153 0 001.653-1.71.27.27 0 00-.017-.324.29.29 0 00-.33-.072z" fill="#73A1FB"/><path d="M30.568 17.47a6.105 6.105 0 01-.833.296 3.61 3.61 0 00.749-1.287.27.27 0 00-.091-.295.284.284 0 00-.316-.02 6.69 6.69 0 01-1.935.748 3.75 3.75 0 00-2.583-1.03c-2.035 0-3.691 1.618-3.691 3.607 0 .158.01.312.03.466a9.516 9.516 0 01-6.486-3.364.278.278 0 00-.235-.099.275.275 0 00-.219.135 3.525 3.525 0 00-.504 1.815c0 .87.32 1.694.88 2.337a3.294 3.294 0 01-.493-.216.277.277 0 00-.272.003.274.274 0 00-.141.23v.049c0 1.297.715 2.465 1.807 3.102a4.205 4.205 0 01-.282-.04.287.287 0 00-.259.086.268.268 0 00-.057.262c.403 1.235 1.444 2.14 2.704 2.42a6.634 6.634 0 01-3.49.974c-.262 0-.524-.016-.783-.046a.275.275 0 00-.292.178.267.267 0 00.11.318 10.138 10.138 0 005.385 1.543c3.759 0 6.11-1.733 7.42-3.184 1.636-1.812 2.573-4.211 2.573-6.581 0-.099 0-.2-.003-.3a7.153 7.153 0 001.653-1.71.27.27 0 00-.017-.324.29.29 0 00-.33-.072z" fill="#FEB447"/></svg>