<svg width="43" height="44" fill="none" xmlns="http://www.w3.org/2000/svg"><circle cx="21.5" cy="22.264" r="21.5" fill="#FEB447"/><path d="M30.917 18.21l-.006-.023c-.467-1.887-2.571-3.912-4.504-4.333l-.022-.004a25.03 25.03 0 00-9.42 0l-.023.004c-1.932.421-4.037 2.446-4.504 4.334l-.005.023a18.44 18.44 0 000 7.943l.005.023c.447 1.807 2.395 3.739 4.256 4.27v2.107c0 .762.929 1.137 1.457.587l2.135-2.22a24.865 24.865 0 006.1-.406l.021-.004c1.933-.421 4.037-2.447 4.504-4.334l.006-.023a18.44 18.44 0 000-7.943zm-1.689 7.562c-.312 1.231-1.91 2.762-3.18 3.045a23.337 23.337 0 01-5.01.404.119.119 0 00-.089.036l-1.558 1.6-1.658 1.701a.194.194 0 01-.334-.134v-3.49a.12.12 0 00-.098-.117c-1.27-.283-2.867-1.814-3.18-3.045a16.733 16.733 0 010-7.18c.313-1.23 1.91-2.761 3.18-3.044a23.31 23.31 0 018.748 0c1.27.283 2.867 1.814 3.179 3.045.52 2.382.52 4.797 0 7.179z" fill="#fff"/><path d="M24.437 27.383c-.196-.06-.382-.1-.554-.171-1.79-.743-3.438-1.701-4.743-3.17-.742-.835-1.323-1.778-1.814-2.776-.233-.473-.429-.965-.629-1.453-.182-.446.087-.906.37-1.242.265-.315.606-.556.976-.734.289-.138.574-.058.785.186.455.53.874 1.085 1.213 1.699.208.377.151.838-.227 1.095-.091.062-.175.135-.26.206a.853.853 0 00-.198.207.569.569 0 00-.038.5c.466 1.28 1.252 2.276 2.54 2.812.206.086.414.186.651.158.398-.046.527-.482.806-.71.272-.223.62-.226.914-.04.294.185.578.385.861.586.278.198.554.392.81.617.247.217.332.502.193.796-.254.54-.623.988-1.156 1.274-.15.081-.33.107-.5.16.17-.053-.196-.06 0 0zM21.68 17.22c2.341.066 4.265 1.62 4.677 3.935.07.394.095.798.126 1.198.013.168-.082.328-.264.33-.188.003-.272-.154-.284-.323-.024-.333-.041-.667-.087-.998-.242-1.744-1.633-3.187-3.37-3.497-.26-.046-.528-.058-.793-.086-.167-.018-.386-.028-.423-.236-.031-.174.116-.313.282-.322.045-.003.09 0 .136 0 2.341.065-.045 0 0 0z" fill="#fff"/><path d="M25.238 21.834c-.004.03-.006.098-.023.163-.062.235-.419.264-.5.027a.707.707 0 01-.029-.226c0-.496-.108-.992-.358-1.423a2.648 2.648 0 00-1.111-1.042 3.197 3.197 0 00-.885-.272c-.134-.022-.268-.035-.402-.054-.163-.022-.25-.126-.242-.286a.252.252 0 01.28-.249c.538.03 1.057.147 1.534.4.972.514 1.527 1.326 1.689 2.41.007.05.019.099.023.148.009.122.015.243.024.404-.004.03-.01-.16 0 0z" fill="#fff"/><path d="M23.781 21.777c-.196.003-.3-.105-.32-.285-.015-.125-.026-.252-.056-.374a1.052 1.052 0 00-.388-.609 1.012 1.012 0 00-.316-.153c-.144-.041-.293-.03-.437-.065-.155-.038-.241-.164-.217-.31a.281.281 0 01.297-.226c.908.065 1.556.535 1.65 1.603.006.076.013.155-.003.227-.03.124-.12.186-.21.192.09-.006-.196.003 0 0z" fill="#fff"/></svg>