<svg width="43" height="44" fill="none" xmlns="http://www.w3.org/2000/svg"><circle cx="21.5" cy="21.902" r="21.5" fill="#FE840E" fill-opacity=".5"/><path d="M27.58 23.304c.6.591 1.231 1.147 1.768 1.795.236.289.462.588.634.923.244.477.025 1.001-.398 1.03h-2.631c-.678.056-1.22-.218-1.676-.688-.363-.374-.702-.773-1.05-1.161a2.56 2.56 0 00-.474-.424c-.36-.235-.67-.164-.874.214-.208.384-.258.812-.279 1.24-.028.626-.215.79-.84.819-1.329.064-2.592-.14-3.763-.816-1.033-.599-1.834-1.44-2.532-2.394-1.358-1.86-2.399-3.904-3.333-6.002-.212-.474-.057-.727.462-.738a68.635 68.635 0 012.575 0c.349.004.578.207.715.542a16.203 16.203 0 001.746 3.266c.19.271.385.542.66.73.303.21.536.143.68-.202.092-.218.131-.453.152-.684.067-.802.078-1.603-.042-2.401-.074-.499-.353-.823-.843-.916-.25-.05-.215-.142-.092-.288.212-.25.41-.406.808-.406h2.973c.47.092.572.306.635.78l.004 3.334c-.004.185.092.73.42.851.264.086.437-.124.592-.295.713-.763 1.22-1.664 1.675-2.6.201-.41.374-.838.544-1.265.123-.317.32-.47.673-.463l2.854.01c.084 0 .17 0 .254.015.483.082.613.292.465.769-.236.744-.691 1.368-1.139 1.991-.476.666-.987 1.311-1.46 1.98-.434.613-.402.923.137 1.454z" fill="#436EAB"/><path d="M27.58 23.304c.6.591 1.231 1.147 1.768 1.795.236.289.462.588.634.923.244.477.025 1.001-.398 1.03h-2.631c-.678.056-1.22-.218-1.676-.688-.363-.374-.702-.773-1.05-1.161a2.56 2.56 0 00-.474-.424c-.36-.235-.67-.164-.874.214-.208.384-.258.812-.279 1.24-.028.626-.215.79-.84.819-1.329.064-2.592-.14-3.763-.816-1.033-.599-1.834-1.44-2.532-2.394-1.358-1.86-2.399-3.904-3.333-6.002-.212-.474-.057-.727.462-.738a68.635 68.635 0 012.575 0c.349.004.578.207.715.542a16.203 16.203 0 001.746 3.266c.19.271.385.542.66.73.303.21.536.143.68-.202.092-.218.131-.453.152-.684.067-.802.078-1.603-.042-2.401-.074-.499-.353-.823-.843-.916-.25-.05-.215-.142-.092-.288.212-.25.41-.406.808-.406h2.973c.47.092.572.306.635.78l.004 3.334c-.004.185.092.73.42.851.264.086.437-.124.592-.295.713-.763 1.22-1.664 1.675-2.6.201-.41.374-.838.544-1.265.123-.317.32-.47.673-.463l2.854.01c.084 0 .17 0 .254.015.483.082.613.292.465.769-.236.744-.691 1.368-1.139 1.991-.476.666-.987 1.311-1.46 1.98-.434.613-.402.923.137 1.454z" fill="#FEB447"/></svg>