<svg width="43" height="44" fill="none" xmlns="http://www.w3.org/2000/svg"><circle cx="21.5" cy="22.264" r="21.5" fill="#F06C46"/><path d="M28.54 23.665c.6.591 1.231 1.147 1.767 1.795.237.289.463.588.635.923.244.477.025 1-.398 1.03h-2.631c-.678.056-1.22-.218-1.676-.688-.363-.374-.702-.773-1.05-1.161a2.554 2.554 0 00-.474-.424c-.36-.235-.67-.164-.874.213-.208.385-.258.813-.279 1.24-.028.627-.215.79-.84.82-1.33.063-2.592-.14-3.763-.816-1.033-.599-1.834-1.44-2.532-2.394-1.358-1.86-2.399-3.904-3.333-6.002-.212-.474-.057-.727.462-.738a68.85 68.85 0 012.574 0c.35.004.579.207.716.542a16.196 16.196 0 001.746 3.266c.19.27.385.542.66.73.303.21.536.143.68-.203a2.27 2.27 0 00.152-.683c.067-.802.078-1.603-.042-2.401-.074-.5-.353-.823-.843-.916-.25-.05-.215-.142-.092-.288.212-.25.41-.407.808-.407h2.973c.47.093.572.307.635.78l.004 3.335c-.004.185.091.73.42.851.264.086.437-.125.592-.296.713-.762 1.22-1.663 1.675-2.6.201-.41.374-.837.544-1.264.123-.317.32-.47.673-.463l2.854.01c.084 0 .169 0 .254.014.483.082.613.293.465.77-.236.744-.691 1.368-1.139 1.991-.476.666-.988 1.31-1.46 1.98-.434.613-.402.923.137 1.454z" fill="#436EAB"/><path d="M28.54 23.665c.6.591 1.231 1.147 1.767 1.795.237.289.463.588.635.923.244.477.025 1-.398 1.03h-2.631c-.678.056-1.22-.218-1.676-.688-.363-.374-.702-.773-1.05-1.161a2.554 2.554 0 00-.474-.424c-.36-.235-.67-.164-.874.213-.208.385-.258.813-.279 1.24-.028.627-.215.79-.84.82-1.33.063-2.592-.14-3.763-.816-1.033-.599-1.834-1.44-2.532-2.394-1.358-1.86-2.399-3.904-3.333-6.002-.212-.474-.057-.727.462-.738a68.85 68.85 0 012.574 0c.35.004.579.207.716.542a16.196 16.196 0 001.746 3.266c.19.27.385.542.66.73.303.21.536.143.68-.203a2.27 2.27 0 00.152-.683c.067-.802.078-1.603-.042-2.401-.074-.5-.353-.823-.843-.916-.25-.05-.215-.142-.092-.288.212-.25.41-.407.808-.407h2.973c.47.093.572.307.635.78l.004 3.335c-.004.185.091.73.42.851.264.086.437-.125.592-.296.713-.762 1.22-1.663 1.675-2.6.201-.41.374-.837.544-1.264.123-.317.32-.47.673-.463l2.854.01c.084 0 .169 0 .254.014.483.082.613.293.465.77-.236.744-.691 1.368-1.139 1.991-.476.666-.988 1.31-1.46 1.98-.434.613-.402.923.137 1.454z" fill="#fff"/></svg>