<svg width="43" height="44" fill="none" xmlns="http://www.w3.org/2000/svg"><circle cx="21.5" cy="22.264" r="21.5" fill="#C81F56"/><path d="M21.49 12.774C16.738 13 12.987 16.96 13 21.72a8.888 8.888 0 00.972 4.026l-.948 4.6a.348.348 0 00.42.41l4.508-1.069a8.89 8.89 0 003.836.931c4.86.074 8.91-3.784 9.062-8.64a8.928 8.928 0 00-9.36-9.203zm5.38 13.86a6.945 6.945 0 01-4.943 2.047 6.916 6.916 0 01-3.11-.729l-.629-.313-2.764.655.582-2.824-.31-.606a6.913 6.913 0 01-.759-3.173c0-1.867.727-3.622 2.048-4.943a7.003 7.003 0 014.942-2.047c1.867 0 3.623.727 4.943 2.047a6.944 6.944 0 012.047 4.943c0 1.85-.739 3.634-2.047 4.943z" fill="#7AD06D"/><path d="M21.49 12.774C16.738 13 12.987 16.96 13 21.72a8.888 8.888 0 00.972 4.026l-.948 4.6a.348.348 0 00.42.41l4.508-1.069a8.89 8.89 0 003.836.931c4.86.074 8.91-3.784 9.062-8.64a8.928 8.928 0 00-9.36-9.203zm5.38 13.86a6.945 6.945 0 01-4.943 2.047 6.916 6.916 0 01-3.11-.729l-.629-.313-2.764.655.582-2.824-.31-.606a6.913 6.913 0 01-.759-3.173c0-1.867.727-3.622 2.048-4.943a7.003 7.003 0 014.942-2.047c1.867 0 3.623.727 4.943 2.047a6.944 6.944 0 012.047 4.943c0 1.85-.739 3.634-2.047 4.943z" fill="#fff"/><path d="M26.26 23.627l-1.729-.497a.645.645 0 00-.638.168l-.423.431a.63.63 0 01-.684.145c-.819-.331-2.54-1.861-2.979-2.627a.63.63 0 01.05-.698l.37-.477a.644.644 0 00.079-.655l-.728-1.646a.645.645 0 00-1.006-.23c-.483.408-1.056 1.028-1.125 1.716-.123 1.211.396 2.738 2.361 4.572 2.27 2.119 4.088 2.399 5.272 2.112.67-.162 1.207-.814 1.546-1.348a.645.645 0 00-.366-.966z" fill="#7AD06D"/><path d="M26.26 23.627l-1.729-.497a.645.645 0 00-.638.168l-.423.431a.63.63 0 01-.684.145c-.819-.331-2.54-1.861-2.979-2.627a.63.63 0 01.05-.698l.37-.477a.644.644 0 00.079-.655l-.728-1.646a.645.645 0 00-1.006-.23c-.483.408-1.056 1.028-1.125 1.716-.123 1.211.396 2.738 2.361 4.572 2.27 2.119 4.088 2.399 5.272 2.112.67-.162 1.207-.814 1.546-1.348a.645.645 0 00-.366-.966z" fill="#fff"/></svg>