<svg width="1439" height="831" fill="none" xmlns="http://www.w3.org/2000/svg"><path fill="#FE840E" d="M0 .402h1440v830H0z"/><mask id="mask0_1_3635" style="mask-type:alpha" maskUnits="userSpaceOnUse" x="0" y="0" width="1440" height="831"><path fill="#FE840E" d="M0 .402h1440v830H0z"/></mask><g mask="url(#mask0_1_3635)"><path d="M346.049-14.13c45.389 44.778 56.8 118.85 55.903 192.201-.898 73.231-14.232 145.742-59.493 191.121-45.26 45.38-122.703 63.868-193.991 58.225-71.289-5.762-136.551-35.415-186.171-80.794-49.62-45.5-83.469-106.606-89.367-173.234-5.898-66.628 16.284-138.779 65.775-183.558 49.62-44.899 126.678-62.306 204.762-63.387 78.212-.96 157.322 14.526 202.582 59.425z" fill="#C81F56"/><path d="M1460.57 563.077c93.17 115.393 109.48 321.113 24.59 437.213-85.12 116.1-271.45 142.35-437.21 130.53-165.995-11.83-311.417-61.72-380.936-169.072-69.756-107.116-63.608-271.455 9.222-374.788 72.593-103.569 211.867-146.132 366.514-154.881 154.64-8.986 324.66 15.843 417.82 130.998z" fill="#FEB447"/><path d="M1828.17 48.404c74.5 88.092 111 211.621 89.91 329.3-21.27 117.511-100.12 229.172-206.27 277.982-106.32 48.81-239.93 34.769-344.41-22.232-104.64-57.001-179.82-156.961-207.44-269.959-27.63-112.998-7.54-239.034 61.78-325.956 69.32-86.922 188.02-134.394 303.72-132.054 115.52 2.507 228.2 54.995 302.71 142.92z" fill="#F06C46"/></g></svg>