<svg width="852" height="604" fill="none" xmlns="http://www.w3.org/2000/svg"><path d="M377.381 270.705c43.058 61.007 66.05 147.225 34.487 198.552-31.563 51.327-117.78 67.864-199.359 65.242-81.679-2.621-158.82-24.302-192.3-76.738-33.478-52.436-23.293-135.628 15.328-194.014 38.52-58.386 105.478-92.066 170.519-90.957 65.041 1.109 128.267 36.907 171.325 97.915z" fill="#FEB447"/><path d="M758.027 111.315c57.512 68.102 85.686 163.599 69.402 254.574-16.413 90.845-77.285 177.168-159.223 214.902-82.068 37.733-185.201 26.878-265.847-17.187-80.774-44.066-138.803-121.343-160.128-208.699-21.324-87.357-5.815-184.792 47.69-251.99C343.426 35.718 435.057-.982 524.362.828c89.175 1.938 176.154 42.515 233.665 110.487z" fill="#F06C46"/><path d="M796.279 144.469l-11.646 48.249-27.667-28.633 39.313-19.616z" fill="url(#paint0_linear_1_3548)"/><path d="M586 64.402l102.714 145.742a12.533 12.533 0 008.356 5.177 12.56 12.56 0 009.532-2.428l142.443-108.639a5.043 5.043 0 001.804-5.333 5.03 5.03 0 00-4.265-3.672L586 64.402z" fill="url(#paint1_linear_1_3548)"/><path d="M796.261 144.471L586 64.402l187.328 97.672-2.658 13.518 25.591-31.121z" fill="url(#paint2_linear_1_3548)"/><path d="M759.651 172.408l24.982 20.31-11.305-30.643-13.677 10.333z" fill="url(#paint3_linear_1_3548)"/><defs><linearGradient id="paint0_linear_1_3548" x1="918.39" y1="261.602" x2="757.648" y2="100.767" gradientUnits="userSpaceOnUse"><stop stop-color="#FEB447"/><stop offset="1" stop-color="#FE840E"/></linearGradient><linearGradient id="paint1_linear_1_3548" x1="808.986" y1="208.524" x2="641.176" y2="-58.81" gradientUnits="userSpaceOnUse"><stop stop-color="#FEB447"/><stop offset="1" stop-color="#FE840E"/></linearGradient><linearGradient id="paint2_linear_1_3548" x1="902.961" y1="258.439" x2="752.79" y2="108.181" gradientUnits="userSpaceOnUse"><stop stop-color="#FEB447"/><stop offset="1" stop-color="#FE840E"/></linearGradient><linearGradient id="paint3_linear_1_3548" x1="818.613" y1="192.145" x2="727.165" y2="158.11" gradientUnits="userSpaceOnUse"><stop stop-color="#FEB447"/><stop offset="1" stop-color="#FE840E"/></linearGradient></defs></svg>