<svg width="1440" height="1408" fill="none" xmlns="http://www.w3.org/2000/svg"><path opacity=".5" d="M1594.09 1039.25c-23 124.68-147.39 249.5-269.97 258.72-122.72 9.07-243.48-97.6-328.085-212.01-84.74-114.559-133.329-236.873-102.382-341.699 30.661-104.849 140.707-192.079 248.287-202.058 107.61-10.264 212.76 56.723 304.53 152.482 91.92 95.628 170.46 220.027 147.62 344.565z" fill="#FEB447"/><path d="M975.112 722.39l-.003-.006c-69.176-106.225-63.094-269.454 9.17-371.984l.004-.005c71.907-102.589 210.157-145.082 364.607-153.82h0c154.52-8.978 323.39 15.931 415.74 130.075 46.19 57.218 73.43 136.972 78.51 216.927 5.09 79.968-11.99 159.791-53.99 217.239-42.1 57.408-109.34 92.769-186.97 112.285-77.6 19.513-165.34 23.122-248.05 17.222-165.8-11.809-310.17-61.613-379.018-167.933z" stroke="#FE840E" stroke-width="5"/><path d="M490.878 696.847c-56.831 79.864-150.86 135.967-252.218 143.481-101.256 7.341-209.84-33.907-272.422-110.869-62.617-77.1-79.232-189.915-54.325-287.852 24.871-98.075 91.334-180.997 178.563-227.58 87.228-46.583 195.257-56.688 281.456-18.061 86.199 38.628 150.328 126.197 172.8 221.811 22.299 95.511 2.839 199.24-53.854 279.07z" fill="#FE840E"/><path d="M167.272 633.078l.005.005c33.262 35.048 41.859 93.386 41.187 152.012-.671 58.495-10.674 115.652-43.89 151.221-33.206 35.557-90.342 50.27-143.274 45.795-52.79-4.558-101.14-28.013-137.916-63.933-36.785-36.026-61.833-84.366-66.196-137.006-4.371-52.742 12.104-109.659 48.515-144.843h0c36.497-35.271 93.445-49.147 151.676-50.008 58.398-.766 116.736 11.627 149.893 46.757z" stroke="#FEB447" stroke-width="5"/></svg>