<svg width="1440" height="2407" fill="none" xmlns="http://www.w3.org/2000/svg"><path d="M1981 921.5c0 399.58 951 1534.5-1015.5 1483C-164 2374.92-1056 1321.08-1056 921.5-1056 521.922-376.144 198 462.5 198 1301.14 198 1981 521.922 1981 921.5z" fill="#FE840E"/><path d="M1981 921.5c0 399.58 951 1534.5-1015.5 1483C-164 2374.92-1056 1321.08-1056 921.5-1056 521.922-376.144 198 462.5 198 1301.14 198 1981 521.922 1981 921.5z" fill="url(#paint0_linear_1_4045)"/><path d="M1737.79 1262.95c55.71 58.69 69.71 155.78 68.61 251.93-1.1 95.98-17.47 191.03-73.01 250.51-55.55 59.48-150.6 83.71-238.09 76.32-87.49-7.55-167.58-46.42-228.48-105.9-60.9-59.64-102.44-139.74-109.68-227.07-7.24-87.33 19.99-181.91 80.73-240.6 60.89-58.85 155.47-81.67 251.3-83.09 95.98-1.25 193.07 19.05 248.62 77.9z" fill="#C81F56"/><path d="M20.319 343.356c95.1-17.074 200.02 8.24 276.6 72.834 76.389 64.646 124.438 168.572 115.455 265.937-9.052 97.486-75.135 188.411-160.208 240.227-85.144 51.938-189.138 64.523-282.703 37.193-93.565-27.331-176.631-94.699-210.717-181.344-34.087-86.646-18.881-192.549 31.216-275.396 50.147-82.656 135.377-142.308 230.357-159.451z" fill="#F06C46"/><defs><linearGradient id="paint0_linear_1_4045" x1="977" y1="3000" x2="738" y2="933.5" gradientUnits="userSpaceOnUse"><stop stop-color="#C81F56"/><stop offset="1" stop-color="#C81F56" stop-opacity="0"/></linearGradient></defs></svg>