<svg width="1164" height="210" fill="none" xmlns="http://www.w3.org/2000/svg"><mask id="mask0_1_3609" style="mask-type:alpha" maskUnits="userSpaceOnUse" x="0" y="0" width="1164" height="210"><rect y=".402" width="1164" height="209" rx="40" fill="#FEB447"/></mask><g mask="url(#mask0_1_3609)"><path d="M824.466 139.481c-3.732 68.361-55.305 133.439-115.075 188.688-59.673 55.157-127.633 100.388-196.489 100.863-68.855.475-138.981-43.816-185.267-101.865-46.188-58.14-68.822-129.952-67.623-201.96 1.295-72.1 26.416-144.21 75.921-199.456 49.504-55.246 123.483-93.533 194.872-90.36 71.577 3.177 140.557 48.002 197.108 106.049C784.459-.326 828.386 71.125 824.466 139.48z" fill="#FE840E"/><path d="M259.965-53.997c59.889 91.445 78.212 199.517 53.102 292.829-25.109 93.481-93.65 172.032-189.507 233.278-96.026 61.247-219.197 105.188-316.58 68.542-97.553-36.646-169.318-153.54-168.979-257.031.17-103.321 72.444-193.41 144.548-287.569 71.935-94.16 143.53-192.561 229.886-204.437 86.525-11.706 187.81 62.943 247.53 154.388z" fill="#F06C46"/><g filter="url(#filter0_d_1_3609)"><path d="M1512.57-107.514c93.17 115.392 109.48 321.112 24.59 437.213-85.12 116.102-271.45 142.349-437.21 130.526-165.995-11.823-311.417-61.716-380.936-169.068-69.756-107.117-63.608-271.456 9.222-374.789 72.593-103.569 211.867-146.132 366.514-154.881 154.64-8.986 324.66 15.843 417.82 130.999z" fill="#FEB447"/></g></g><defs><filter id="filter0_d_1_3609" x="666" y="-240.189" width="930.515" height="711" filterUnits="userSpaceOnUse" color-interpolation-filters="sRGB"><feFlood flood-opacity="0" result="BackgroundImageFix"/><feColorMatrix in="SourceAlpha" values="0 0 0 0 0 0 0 0 0 0 0 0 0 0 0 0 0 0 127 0" result="hardAlpha"/><feOffset dy="4"/><feGaussianBlur stdDeviation="2"/><feColorMatrix values="0 0 0 0 0 0 0 0 0 0 0 0 0 0 0 0 0 0 0.25 0"/><feBlend in2="BackgroundImageFix" result="effect1_dropShadow_1_3609"/><feBlend in="SourceGraphic" in2="effect1_dropShadow_1_3609" result="shape"/></filter></defs></svg>