<svg width="1164" height="346" fill="none" xmlns="http://www.w3.org/2000/svg"><mask id="mask0_1_3855" style="mask-type:alpha" maskUnits="userSpaceOnUse" x="0" y="0" width="1164" height="346"><rect width="1164" height="346" rx="40" fill="#FEB447"/></mask><g mask="url(#mask0_1_3855)"><path d="M1028.57-26.325c93.17 115.392 109.48 321.112 24.59 437.214-85.121 116.102-271.452 142.349-437.21 130.526-165.995-11.823-311.417-61.716-380.936-169.069-69.756-107.116-63.608-271.456 9.222-374.788 72.593-103.57 211.867-146.133 366.512-154.882 154.645-8.985 324.659 15.843 417.822 130.999z" fill="#FE840E"/><path d="M339.322 16.797c42.734 45.028 53.478 119.51 52.633 193.268-.845 73.638-13.4 146.551-56.013 192.182s-115.526 64.222-182.645 58.548C86.178 455 24.733 425.183-21.984 379.552c-46.718-45.752-78.587-107.197-84.14-174.195-5.553-66.998 15.33-139.549 61.927-184.576C2.522-24.368 75.073-41.872 148.59-42.958c73.637-.966 148.12 14.607 190.733 59.755z" fill="#C81F56"/><path d="M1203.96-21.4c59.89 91.446 78.22 199.518 53.11 292.829-25.11 93.481-93.65 172.033-189.51 233.279-96.026 61.246-219.197 105.187-316.58 68.541-97.553-36.646-169.318-153.539-168.979-257.03.17-103.322 72.444-193.41 144.548-287.57 71.935-94.159 143.53-192.56 229.886-204.436 86.525-11.707 187.815 62.943 247.525 154.388z" fill="#F06C46"/><path fill="url(#paint0_linear_1_3855)" d="M0 0h1164v160H0z"/></g><defs><linearGradient id="paint0_linear_1_3855" x1="582" y1="0" x2="582" y2="160" gradientUnits="userSpaceOnUse"><stop stop-color="#FEB447"/><stop offset="1" stop-color="#FE840E" stop-opacity="0"/></linearGradient></defs></svg>