<svg width="1440" height="799" fill="none" xmlns="http://www.w3.org/2000/svg"><mask id="mask0_1_4224" style="mask-type:alpha" maskUnits="userSpaceOnUse" x="0" y="0" width="1440" height="799"><path fill="#F06C46" d="M0 0h1440v799H0z"/></mask><g mask="url(#mask0_1_4224)"><path fill="#F06C46" d="M0 0h1440v799H0z"/><path d="M265.243 562.549c44.5 52.7 66.3 126.6 53.7 197-12.7 70.3-59.8 137.1-123.2 166.3-63.5 29.2-143.3 20.8-205.7-13.3-62.5-34.1-107.4-93.9-123.9-161.5s-4.5-143 36.9-195 112.3-80.4 181.4-79c69 1.5 136.3 32.9 180.8 85.5z" fill="#C81F56"/><path d="M1572.57 312.675c93.17 115.392 109.48 321.112 24.59 437.214-85.12 116.102-271.45 142.349-437.21 130.526-165.995-11.823-311.417-61.716-380.936-169.069-69.756-107.116-63.608-271.456 9.222-374.789 72.593-103.569 211.864-146.132 366.514-154.881 154.64-8.985 324.66 15.843 417.82 130.999z" fill="#FEB447"/><path d="M1466.32 16.797c42.74 45.028 53.48 119.51 52.63 193.268-.84 73.638-13.39 146.551-56.01 192.182-42.61 45.631-115.52 64.222-182.64 58.548-67.12-5.795-128.57-35.612-175.28-81.243-46.72-45.752-78.59-107.197-84.14-174.195-5.56-66.998 15.33-139.549 61.92-184.576 46.72-45.149 119.27-62.653 192.79-63.739 73.64-.966 148.12 14.607 190.73 59.755z" fill="#C81F56"/><path d="M1114.96 133.601c59.89 91.445 78.22 199.517 53.11 292.828-25.11 93.481-93.65 172.033-189.51 233.279-96.026 61.246-219.197 105.187-316.58 68.541-97.553-36.646-169.318-153.539-168.979-257.03.17-103.322 72.444-193.41 144.548-287.569C709.484 89.49 781.079-8.911 867.435-20.787 953.96-32.494 1055.25 42.156 1114.96 133.6z" fill="#FE840E"/></g></svg>