<svg width="911" height="1070" fill="none" xmlns="http://www.w3.org/2000/svg"><path d="M767.988 686.82c-54.124 74.784-133.88 121.777-215.066 130.056-81.319 8.331-163.933-22.103-241.116-79.299-77.235-57.33-148.987-141.288-149.389-229.159-.453-88.005 70.175-179.821 151.935-210.709 81.576-30.972 174.417-1.066 270.419 27.48 95.952 28.412 195.148 55.28 230.516 119.842 35.285 64.748 6.876 167.139-47.299 241.789z" fill="#FE840E"/><path d="M277.209 371.226c67.89-12.188 142.789 5.883 197.457 51.995 54.532 46.148 88.832 120.338 82.42 189.844-6.462 69.593-53.636 134.501-114.368 171.491-60.781 37.077-135.02 46.062-201.813 26.551-66.793-19.511-126.091-67.603-150.425-129.456-24.333-61.854-13.478-137.455 22.284-196.597 35.799-59.006 96.642-101.59 164.445-113.828z" fill="#FEB447"/></svg>