<svg width="453" height="349" fill="none" xmlns="http://www.w3.org/2000/svg"><mask id="mask0_27_1301" style="mask-type:alpha" maskUnits="userSpaceOnUse" x="0" y="0" width="453" height="349"><rect y=".402" width="453" height="348" rx="20" fill="#FE840E"/></mask><g mask="url(#mask0_27_1301)"><path fill="#fff" d="M0 .402h453v348H0z"/><circle cx="95.5" cy="2.902" r="1.5" fill="#E3E3E3"/><circle cx="113.5" cy="2.902" r="1.5" fill="#E3E3E3"/><circle cx="131.5" cy="2.902" r="1.5" fill="#E3E3E3"/><circle cx="149.5" cy="2.902" r="1.5" fill="#E3E3E3"/><circle cx="167.5" cy="2.902" r="1.5" fill="#E3E3E3"/><circle cx="185.5" cy="2.902" r="1.5" fill="#E3E3E3"/><circle cx="203.5" cy="2.902" r="1.5" fill="#E3E3E3"/><circle cx="221.5" cy="2.902" r="1.5" fill="#E3E3E3"/><circle cx="239.5" cy="2.902" r="1.5" fill="#E3E3E3"/><circle cx="257.5" cy="2.902" r="1.5" fill="#E3E3E3"/><circle cx="275.5" cy="2.902" r="1.5" fill="#E3E3E3"/><circle cx="293.5" cy="2.902" r="1.5" fill="#E3E3E3"/><circle cx="311.5" cy="2.902" r="1.5" fill="#E3E3E3"/><circle cx="329.5" cy="2.902" r="1.5" fill="#E3E3E3"/><circle cx="347.5" cy="2.902" r="1.5" fill="#E3E3E3"/><circle cx="365.5" cy="2.902" r="1.5" fill="#E3E3E3"/><circle cx="383.5" cy="2.902" r="1.5" fill="#E3E3E3"/><circle cx="401.5" cy="2.902" r="1.5" fill="#E3E3E3"/><circle cx="419.5" cy="2.902" r="1.5" fill="#E3E3E3"/><circle cx="437.5" cy="2.902" r="1.5" fill="#E3E3E3"/><circle cx="95.5" cy="20.902" r="1.5" fill="#E3E3E3"/><circle cx="113.5" cy="20.902" r="1.5" fill="#E3E3E3"/><circle cx="131.5" cy="20.902" r="1.5" fill="#E3E3E3"/><circle cx="149.5" cy="20.902" r="1.5" fill="#E3E3E3"/><circle cx="167.5" cy="20.902" r="1.5" fill="#E3E3E3"/><circle cx="185.5" cy="20.902" r="1.5" fill="#E3E3E3"/><circle cx="203.5" cy="20.902" r="1.5" fill="#E3E3E3"/><circle cx="221.5" cy="20.902" r="1.5" fill="#E3E3E3"/><circle cx="239.5" cy="20.902" r="1.5" fill="#E3E3E3"/><circle cx="257.5" cy="20.902" r="1.5" fill="#E3E3E3"/><circle cx="275.5" cy="20.902" r="1.5" fill="#E3E3E3"/><circle cx="293.5" cy="20.902" r="1.5" fill="#E3E3E3"/><circle cx="311.5" cy="20.902" r="1.5" fill="#E3E3E3"/><circle cx="329.5" cy="20.902" r="1.5" fill="#E3E3E3"/><circle cx="347.5" cy="20.902" r="1.5" fill="#E3E3E3"/><circle cx="365.5" cy="20.902" r="1.5" fill="#E3E3E3"/><circle cx="383.5" cy="20.902" r="1.5" fill="#E3E3E3"/><circle cx="401.5" cy="20.902" r="1.5" fill="#E3E3E3"/><circle cx="419.5" cy="20.902" r="1.5" fill="#E3E3E3"/><circle cx="437.5" cy="20.902" r="1.5" fill="#E3E3E3"/><circle cx="95.5" cy="38.903" r="1.5" fill="#E3E3E3"/><circle cx="113.5" cy="38.903" r="1.5" fill="#E3E3E3"/><circle cx="131.5" cy="38.903" r="1.5" fill="#E3E3E3"/><circle cx="149.5" cy="38.903" r="1.5" fill="#E3E3E3"/><circle cx="167.5" cy="38.903" r="1.5" fill="#E3E3E3"/><circle cx="185.5" cy="38.903" r="1.5" fill="#E3E3E3"/><circle cx="203.5" cy="38.903" r="1.5" fill="#E3E3E3"/><circle cx="221.5" cy="38.903" r="1.5" fill="#E3E3E3"/><circle cx="239.5" cy="38.903" r="1.5" fill="#E3E3E3"/><circle cx="257.5" cy="38.903" r="1.5" fill="#E3E3E3"/><circle cx="275.5" cy="38.903" r="1.5" fill="#E3E3E3"/><circle cx="293.5" cy="38.903" r="1.5" fill="#E3E3E3"/><circle cx="311.5" cy="38.903" r="1.5" fill="#E3E3E3"/><circle cx="329.5" cy="38.903" r="1.5" fill="#E3E3E3"/><circle cx="347.5" cy="38.903" r="1.5" fill="#E3E3E3"/><circle cx="365.5" cy="38.903" r="1.5" fill="#E3E3E3"/><circle cx="383.5" cy="38.903" r="1.5" fill="#E3E3E3"/><circle cx="401.5" cy="38.903" r="1.5" fill="#E3E3E3"/><circle cx="419.5" cy="38.903" r="1.5" fill="#E3E3E3"/><circle cx="437.5" cy="38.903" r="1.5" fill="#E3E3E3"/><circle cx="95.5" cy="56.903" r="1.5" fill="#E3E3E3"/><circle cx="113.5" cy="56.903" r="1.5" fill="#E3E3E3"/><circle cx="131.5" cy="56.903" r="1.5" fill="#E3E3E3"/><circle cx="149.5" cy="56.903" r="1.5" fill="#E3E3E3"/><circle cx="167.5" cy="56.903" r="1.5" fill="#E3E3E3"/><circle cx="185.5" cy="56.903" r="1.5" fill="#E3E3E3"/><circle cx="203.5" cy="56.903" r="1.5" fill="#E3E3E3"/><circle cx="221.5" cy="56.903" r="1.5" fill="#E3E3E3"/><circle cx="239.5" cy="56.903" r="1.5" fill="#E3E3E3"/><circle cx="257.5" cy="56.903" r="1.5" fill="#E3E3E3"/><circle cx="275.5" cy="56.903" r="1.5" fill="#E3E3E3"/><circle cx="293.5" cy="56.903" r="1.5" fill="#E3E3E3"/><circle cx="311.5" cy="56.903" r="1.5" fill="#E3E3E3"/><circle cx="329.5" cy="56.903" r="1.5" fill="#E3E3E3"/><circle cx="347.5" cy="56.903" r="1.5" fill="#E3E3E3"/><circle cx="365.5" cy="56.903" r="1.5" fill="#E3E3E3"/><circle cx="383.5" cy="56.903" r="1.5" fill="#E3E3E3"/><circle cx="401.5" cy="56.903" r="1.5" fill="#E3E3E3"/><circle cx="419.5" cy="56.903" r="1.5" fill="#E3E3E3"/><circle cx="437.5" cy="56.903" r="1.5" fill="#E3E3E3"/><circle cx="95.5" cy="74.903" r="1.5" fill="#E3E3E3"/><circle cx="113.5" cy="74.903" r="1.5" fill="#E3E3E3"/><circle cx="131.5" cy="74.903" r="1.5" fill="#E3E3E3"/><circle cx="149.5" cy="74.903" r="1.5" fill="#E3E3E3"/><circle cx="167.5" cy="74.903" r="1.5" fill="#E3E3E3"/><circle cx="185.5" cy="74.903" r="1.5" fill="#E3E3E3"/><circle cx="203.5" cy="74.903" r="1.5" fill="#E3E3E3"/><circle cx="221.5" cy="74.903" r="1.5" fill="#E3E3E3"/><circle cx="239.5" cy="74.903" r="1.5" fill="#E3E3E3"/><circle cx="257.5" cy="74.903" r="1.5" fill="#E3E3E3"/><circle cx="275.5" cy="74.903" r="1.5" fill="#E3E3E3"/><circle cx="293.5" cy="74.903" r="1.5" fill="#E3E3E3"/><circle cx="311.5" cy="74.903" r="1.5" fill="#E3E3E3"/><circle cx="329.5" cy="74.903" r="1.5" fill="#E3E3E3"/><circle cx="347.5" cy="74.903" r="1.5" fill="#E3E3E3"/><circle cx="365.5" cy="74.903" r="1.5" fill="#E3E3E3"/><circle cx="383.5" cy="74.903" r="1.5" fill="#E3E3E3"/><circle cx="401.5" cy="74.903" r="1.5" fill="#E3E3E3"/><circle cx="419.5" cy="74.903" r="1.5" fill="#E3E3E3"/><circle cx="437.5" cy="74.903" r="1.5" fill="#E3E3E3"/><circle cx="95.5" cy="92.903" r="1.5" fill="#E3E3E3"/><circle cx="113.5" cy="92.903" r="1.5" fill="#E3E3E3"/><circle cx="131.5" cy="92.903" r="1.5" fill="#E3E3E3"/><circle cx="149.5" cy="92.903" r="1.5" fill="#E3E3E3"/><circle cx="167.5" cy="92.903" r="1.5" fill="#E3E3E3"/><circle cx="185.5" cy="92.903" r="1.5" fill="#E3E3E3"/><circle cx="203.5" cy="92.903" r="1.5" fill="#E3E3E3"/><circle cx="221.5" cy="92.903" r="1.5" fill="#E3E3E3"/><circle cx="239.5" cy="92.903" r="1.5" fill="#E3E3E3"/><circle cx="257.5" cy="92.903" r="1.5" fill="#E3E3E3"/><circle cx="275.5" cy="92.903" r="1.5" fill="#E3E3E3"/><circle cx="293.5" cy="92.903" r="1.5" fill="#E3E3E3"/><circle cx="311.5" cy="92.903" r="1.5" fill="#E3E3E3"/><circle cx="329.5" cy="92.903" r="1.5" fill="#E3E3E3"/><circle cx="347.5" cy="92.903" r="1.5" fill="#E3E3E3"/><circle cx="365.5" cy="92.903" r="1.5" fill="#E3E3E3"/><circle cx="383.5" cy="92.903" r="1.5" fill="#E3E3E3"/><circle cx="401.5" cy="92.903" r="1.5" fill="#E3E3E3"/><circle cx="419.5" cy="92.903" r="1.5" fill="#E3E3E3"/><circle cx="437.5" cy="92.903" r="1.5" fill="#E3E3E3"/><circle cx="95.5" cy="110.902" r="1.5" fill="#E3E3E3"/><circle cx="113.5" cy="110.902" r="1.5" fill="#E3E3E3"/><circle cx="131.5" cy="110.902" r="1.5" fill="#E3E3E3"/><circle cx="149.5" cy="110.902" r="1.5" fill="#E3E3E3"/><circle cx="167.5" cy="110.902" r="1.5" fill="#E3E3E3"/><circle cx="185.5" cy="110.902" r="1.5" fill="#E3E3E3"/><circle cx="203.5" cy="110.902" r="1.5" fill="#E3E3E3"/><circle cx="221.5" cy="110.902" r="1.5" fill="#E3E3E3"/><circle cx="239.5" cy="110.902" r="1.5" fill="#E3E3E3"/><circle cx="257.5" cy="110.902" r="1.5" fill="#E3E3E3"/><circle cx="275.5" cy="110.902" r="1.5" fill="#E3E3E3"/><circle cx="293.5" cy="110.902" r="1.5" fill="#E3E3E3"/><circle cx="311.5" cy="110.902" r="1.5" fill="#E3E3E3"/><circle cx="329.5" cy="110.902" r="1.5" fill="#E3E3E3"/><circle cx="347.5" cy="110.902" r="1.5" fill="#E3E3E3"/><circle cx="365.5" cy="110.902" r="1.5" fill="#E3E3E3"/><circle cx="383.5" cy="110.902" r="1.5" fill="#E3E3E3"/><circle cx="401.5" cy="110.902" r="1.5" fill="#E3E3E3"/><circle cx="419.5" cy="110.902" r="1.5" fill="#E3E3E3"/><circle cx="437.5" cy="110.902" r="1.5" fill="#E3E3E3"/><circle cx="95.5" cy="128.902" r="1.5" fill="#E3E3E3"/><circle cx="113.5" cy="128.902" r="1.5" fill="#E3E3E3"/><circle cx="131.5" cy="128.902" r="1.5" fill="#E3E3E3"/><circle cx="149.5" cy="128.902" r="1.5" fill="#E3E3E3"/><circle cx="167.5" cy="128.902" r="1.5" fill="#E3E3E3"/><circle cx="185.5" cy="128.902" r="1.5" fill="#E3E3E3"/><circle cx="203.5" cy="128.902" r="1.5" fill="#E3E3E3"/><circle cx="221.5" cy="128.902" r="1.5" fill="#E3E3E3"/><circle cx="239.5" cy="128.902" r="1.5" fill="#E3E3E3"/><circle cx="257.5" cy="128.902" r="1.5" fill="#E3E3E3"/><circle cx="275.5" cy="128.902" r="1.5" fill="#E3E3E3"/><circle cx="293.5" cy="128.902" r="1.5" fill="#E3E3E3"/><circle cx="311.5" cy="128.902" r="1.5" fill="#E3E3E3"/><circle cx="329.5" cy="128.902" r="1.5" fill="#E3E3E3"/><circle cx="347.5" cy="128.902" r="1.5" fill="#E3E3E3"/><circle cx="365.5" cy="128.902" r="1.5" fill="#E3E3E3"/><circle cx="383.5" cy="128.902" r="1.5" fill="#E3E3E3"/><circle cx="401.5" cy="128.902" r="1.5" fill="#E3E3E3"/><circle cx="419.5" cy="128.902" r="1.5" fill="#E3E3E3"/><circle cx="437.5" cy="128.902" r="1.5" fill="#E3E3E3"/><circle cx="95.5" cy="146.902" r="1.5" fill="#E3E3E3"/><circle cx="113.5" cy="146.902" r="1.5" fill="#E3E3E3"/><circle cx="131.5" cy="146.902" r="1.5" fill="#E3E3E3"/><circle cx="149.5" cy="146.902" r="1.5" fill="#E3E3E3"/><circle cx="167.5" cy="146.902" r="1.5" fill="#E3E3E3"/><circle cx="185.5" cy="146.902" r="1.5" fill="#E3E3E3"/><circle cx="203.5" cy="146.902" r="1.5" fill="#E3E3E3"/><circle cx="221.5" cy="146.902" r="1.5" fill="#E3E3E3"/><circle cx="239.5" cy="146.902" r="1.5" fill="#E3E3E3"/><circle cx="257.5" cy="146.902" r="1.5" fill="#E3E3E3"/><circle cx="275.5" cy="146.902" r="1.5" fill="#E3E3E3"/><circle cx="293.5" cy="146.902" r="1.5" fill="#E3E3E3"/><circle cx="311.5" cy="146.902" r="1.5" fill="#E3E3E3"/><circle cx="329.5" cy="146.902" r="1.5" fill="#E3E3E3"/><circle cx="347.5" cy="146.902" r="1.5" fill="#E3E3E3"/><circle cx="365.5" cy="146.902" r="1.5" fill="#E3E3E3"/><circle cx="383.5" cy="146.902" r="1.5" fill="#E3E3E3"/><circle cx="401.5" cy="146.902" r="1.5" fill="#E3E3E3"/><circle cx="419.5" cy="146.902" r="1.5" fill="#E3E3E3"/><circle cx="437.5" cy="146.902" r="1.5" fill="#E3E3E3"/><circle cx="95.5" cy="164.902" r="1.5" fill="#E3E3E3"/><circle cx="113.5" cy="164.902" r="1.5" fill="#E3E3E3"/><circle cx="131.5" cy="164.902" r="1.5" fill="#E3E3E3"/><circle cx="149.5" cy="164.902" r="1.5" fill="#E3E3E3"/><circle cx="167.5" cy="164.902" r="1.5" fill="#E3E3E3"/><circle cx="185.5" cy="164.902" r="1.5" fill="#E3E3E3"/><circle cx="203.5" cy="164.902" r="1.5" fill="#E3E3E3"/><circle cx="221.5" cy="164.902" r="1.5" fill="#E3E3E3"/><circle cx="239.5" cy="164.902" r="1.5" fill="#E3E3E3"/><circle cx="257.5" cy="164.902" r="1.5" fill="#E3E3E3"/><circle cx="275.5" cy="164.902" r="1.5" fill="#E3E3E3"/><circle cx="293.5" cy="164.902" r="1.5" fill="#E3E3E3"/><circle cx="311.5" cy="164.902" r="1.5" fill="#E3E3E3"/><circle cx="329.5" cy="164.902" r="1.5" fill="#E3E3E3"/><circle cx="347.5" cy="164.902" r="1.5" fill="#E3E3E3"/><circle cx="365.5" cy="164.902" r="1.5" fill="#E3E3E3"/><circle cx="383.5" cy="164.902" r="1.5" fill="#E3E3E3"/><circle cx="401.5" cy="164.902" r="1.5" fill="#E3E3E3"/><circle cx="419.5" cy="164.902" r="1.5" fill="#E3E3E3"/><circle cx="437.5" cy="164.902" r="1.5" fill="#E3E3E3"/><circle cx="95.5" cy="182.902" r="1.5" fill="#E3E3E3"/><circle cx="113.5" cy="182.902" r="1.5" fill="#E3E3E3"/><circle cx="131.5" cy="182.902" r="1.5" fill="#E3E3E3"/><circle cx="149.5" cy="182.902" r="1.5" fill="#E3E3E3"/><circle cx="167.5" cy="182.902" r="1.5" fill="#E3E3E3"/><circle cx="185.5" cy="182.902" r="1.5" fill="#E3E3E3"/><circle cx="203.5" cy="182.902" r="1.5" fill="#E3E3E3"/><circle cx="221.5" cy="182.902" r="1.5" fill="#E3E3E3"/><circle cx="239.5" cy="182.902" r="1.5" fill="#E3E3E3"/><circle cx="257.5" cy="182.902" r="1.5" fill="#E3E3E3"/><circle cx="275.5" cy="182.902" r="1.5" fill="#E3E3E3"/><circle cx="293.5" cy="182.902" r="1.5" fill="#E3E3E3"/><circle cx="311.5" cy="182.902" r="1.5" fill="#E3E3E3"/><circle cx="329.5" cy="182.902" r="1.5" fill="#E3E3E3"/><circle cx="347.5" cy="182.902" r="1.5" fill="#E3E3E3"/><circle cx="365.5" cy="182.902" r="1.5" fill="#E3E3E3"/><circle cx="383.5" cy="182.902" r="1.5" fill="#E3E3E3"/><circle cx="401.5" cy="182.902" r="1.5" fill="#E3E3E3"/><circle cx="419.5" cy="182.902" r="1.5" fill="#E3E3E3"/><circle cx="437.5" cy="182.902" r="1.5" fill="#E3E3E3"/><circle cx="95.5" cy="200.902" r="1.5" fill="#E3E3E3"/><circle cx="113.5" cy="200.902" r="1.5" fill="#E3E3E3"/><circle cx="131.5" cy="200.902" r="1.5" fill="#E3E3E3"/><circle cx="149.5" cy="200.902" r="1.5" fill="#E3E3E3"/><circle cx="167.5" cy="200.902" r="1.5" fill="#E3E3E3"/><circle cx="185.5" cy="200.902" r="1.5" fill="#E3E3E3"/><circle cx="203.5" cy="200.902" r="1.5" fill="#E3E3E3"/><circle cx="221.5" cy="200.902" r="1.5" fill="#E3E3E3"/><circle cx="239.5" cy="200.902" r="1.5" fill="#E3E3E3"/><circle cx="257.5" cy="200.902" r="1.5" fill="#E3E3E3"/><circle cx="275.5" cy="200.902" r="1.5" fill="#E3E3E3"/><circle cx="293.5" cy="200.902" r="1.5" fill="#E3E3E3"/><circle cx="311.5" cy="200.902" r="1.5" fill="#E3E3E3"/><circle cx="329.5" cy="200.902" r="1.5" fill="#E3E3E3"/><circle cx="347.5" cy="200.902" r="1.5" fill="#E3E3E3"/><circle cx="365.5" cy="200.902" r="1.5" fill="#E3E3E3"/><circle cx="383.5" cy="200.902" r="1.5" fill="#E3E3E3"/><circle cx="401.5" cy="200.902" r="1.5" fill="#E3E3E3"/><circle cx="419.5" cy="200.902" r="1.5" fill="#E3E3E3"/><circle cx="437.5" cy="200.902" r="1.5" fill="#E3E3E3"/><circle cx="95.5" cy="218.902" r="1.5" fill="#E3E3E3"/><circle cx="113.5" cy="218.902" r="1.5" fill="#E3E3E3"/><circle cx="131.5" cy="218.902" r="1.5" fill="#E3E3E3"/><circle cx="149.5" cy="218.902" r="1.5" fill="#E3E3E3"/><circle cx="167.5" cy="218.902" r="1.5" fill="#E3E3E3"/><circle cx="185.5" cy="218.902" r="1.5" fill="#E3E3E3"/><circle cx="203.5" cy="218.902" r="1.5" fill="#E3E3E3"/><circle cx="221.5" cy="218.902" r="1.5" fill="#E3E3E3"/><circle cx="239.5" cy="218.902" r="1.5" fill="#E3E3E3"/><circle cx="257.5" cy="218.902" r="1.5" fill="#E3E3E3"/><circle cx="275.5" cy="218.902" r="1.5" fill="#E3E3E3"/><circle cx="293.5" cy="218.902" r="1.5" fill="#E3E3E3"/><circle cx="311.5" cy="218.902" r="1.5" fill="#E3E3E3"/><circle cx="329.5" cy="218.902" r="1.5" fill="#E3E3E3"/><circle cx="347.5" cy="218.902" r="1.5" fill="#E3E3E3"/><circle cx="365.5" cy="218.902" r="1.5" fill="#E3E3E3"/><circle cx="383.5" cy="218.902" r="1.5" fill="#E3E3E3"/><circle cx="401.5" cy="218.902" r="1.5" fill="#E3E3E3"/><circle cx="419.5" cy="218.902" r="1.5" fill="#E3E3E3"/><circle cx="437.5" cy="218.902" r="1.5" fill="#E3E3E3"/><circle cx="95.5" cy="236.902" r="1.5" fill="#E3E3E3"/><circle cx="113.5" cy="236.902" r="1.5" fill="#E3E3E3"/><circle cx="131.5" cy="236.902" r="1.5" fill="#E3E3E3"/><circle cx="149.5" cy="236.902" r="1.5" fill="#E3E3E3"/><circle cx="167.5" cy="236.902" r="1.5" fill="#E3E3E3"/><circle cx="185.5" cy="236.902" r="1.5" fill="#E3E3E3"/><circle cx="203.5" cy="236.902" r="1.5" fill="#E3E3E3"/><circle cx="221.5" cy="236.902" r="1.5" fill="#E3E3E3"/><circle cx="239.5" cy="236.902" r="1.5" fill="#E3E3E3"/><circle cx="257.5" cy="236.902" r="1.5" fill="#E3E3E3"/><circle cx="275.5" cy="236.902" r="1.5" fill="#E3E3E3"/><circle cx="293.5" cy="236.902" r="1.5" fill="#E3E3E3"/><circle cx="311.5" cy="236.902" r="1.5" fill="#E3E3E3"/><circle cx="329.5" cy="236.902" r="1.5" fill="#E3E3E3"/><circle cx="347.5" cy="236.902" r="1.5" fill="#E3E3E3"/><circle cx="365.5" cy="236.902" r="1.5" fill="#E3E3E3"/><circle cx="383.5" cy="236.902" r="1.5" fill="#E3E3E3"/><circle cx="401.5" cy="236.902" r="1.5" fill="#E3E3E3"/><circle cx="419.5" cy="236.902" r="1.5" fill="#E3E3E3"/><circle cx="437.5" cy="236.902" r="1.5" fill="#E3E3E3"/><circle cx="95.5" cy="254.902" r="1.5" fill="#E3E3E3"/><circle cx="113.5" cy="254.902" r="1.5" fill="#E3E3E3"/><circle cx="131.5" cy="254.902" r="1.5" fill="#E3E3E3"/><circle cx="149.5" cy="254.902" r="1.5" fill="#E3E3E3"/><circle cx="167.5" cy="254.902" r="1.5" fill="#E3E3E3"/><circle cx="185.5" cy="254.902" r="1.5" fill="#E3E3E3"/><circle cx="203.5" cy="254.902" r="1.5" fill="#E3E3E3"/><circle cx="221.5" cy="254.902" r="1.5" fill="#E3E3E3"/><circle cx="239.5" cy="254.902" r="1.5" fill="#E3E3E3"/><circle cx="257.5" cy="254.902" r="1.5" fill="#E3E3E3"/><circle cx="275.5" cy="254.902" r="1.5" fill="#E3E3E3"/><circle cx="293.5" cy="254.902" r="1.5" fill="#E3E3E3"/><circle cx="311.5" cy="254.902" r="1.5" fill="#E3E3E3"/><circle cx="329.5" cy="254.902" r="1.5" fill="#E3E3E3"/><circle cx="347.5" cy="254.902" r="1.5" fill="#E3E3E3"/><circle cx="365.5" cy="254.902" r="1.5" fill="#E3E3E3"/><circle cx="383.5" cy="254.902" r="1.5" fill="#E3E3E3"/><circle cx="401.5" cy="254.902" r="1.5" fill="#E3E3E3"/><circle cx="419.5" cy="254.902" r="1.5" fill="#E3E3E3"/><circle cx="437.5" cy="254.902" r="1.5" fill="#E3E3E3"/><circle cx="95.5" cy="272.902" r="1.5" fill="#E3E3E3"/><circle cx="113.5" cy="272.902" r="1.5" fill="#E3E3E3"/><circle cx="131.5" cy="272.902" r="1.5" fill="#E3E3E3"/><circle cx="149.5" cy="272.902" r="1.5" fill="#E3E3E3"/><circle cx="167.5" cy="272.902" r="1.5" fill="#E3E3E3"/><circle cx="185.5" cy="272.902" r="1.5" fill="#E3E3E3"/><circle cx="203.5" cy="272.902" r="1.5" fill="#E3E3E3"/><circle cx="221.5" cy="272.902" r="1.5" fill="#E3E3E3"/><circle cx="239.5" cy="272.902" r="1.5" fill="#E3E3E3"/><circle cx="257.5" cy="272.902" r="1.5" fill="#E3E3E3"/><circle cx="275.5" cy="272.902" r="1.5" fill="#E3E3E3"/><circle cx="293.5" cy="272.902" r="1.5" fill="#E3E3E3"/><circle cx="311.5" cy="272.902" r="1.5" fill="#E3E3E3"/><circle cx="329.5" cy="272.902" r="1.5" fill="#E3E3E3"/><circle cx="347.5" cy="272.902" r="1.5" fill="#E3E3E3"/><circle cx="365.5" cy="272.902" r="1.5" fill="#E3E3E3"/><circle cx="383.5" cy="272.902" r="1.5" fill="#E3E3E3"/><circle cx="401.5" cy="272.902" r="1.5" fill="#E3E3E3"/><circle cx="419.5" cy="272.902" r="1.5" fill="#E3E3E3"/><circle cx="437.5" cy="272.902" r="1.5" fill="#E3E3E3"/><circle cx="95.5" cy="290.902" r="1.5" fill="#E3E3E3"/><circle cx="113.5" cy="290.902" r="1.5" fill="#E3E3E3"/><circle cx="131.5" cy="290.902" r="1.5" fill="#E3E3E3"/><circle cx="149.5" cy="290.902" r="1.5" fill="#E3E3E3"/><circle cx="167.5" cy="290.902" r="1.5" fill="#E3E3E3"/><circle cx="185.5" cy="290.902" r="1.5" fill="#E3E3E3"/><circle cx="203.5" cy="290.902" r="1.5" fill="#E3E3E3"/><circle cx="221.5" cy="290.902" r="1.5" fill="#E3E3E3"/><circle cx="239.5" cy="290.902" r="1.5" fill="#E3E3E3"/><circle cx="257.5" cy="290.902" r="1.5" fill="#E3E3E3"/><circle cx="275.5" cy="290.902" r="1.5" fill="#E3E3E3"/><circle cx="293.5" cy="290.902" r="1.5" fill="#E3E3E3"/><circle cx="311.5" cy="290.902" r="1.5" fill="#E3E3E3"/><circle cx="329.5" cy="290.902" r="1.5" fill="#E3E3E3"/><circle cx="347.5" cy="290.902" r="1.5" fill="#E3E3E3"/><circle cx="365.5" cy="290.902" r="1.5" fill="#E3E3E3"/><circle cx="383.5" cy="290.902" r="1.5" fill="#E3E3E3"/><circle cx="401.5" cy="290.902" r="1.5" fill="#E3E3E3"/><circle cx="419.5" cy="290.902" r="1.5" fill="#E3E3E3"/><circle cx="437.5" cy="290.902" r="1.5" fill="#E3E3E3"/><circle cx="95.5" cy="308.902" r="1.5" fill="#E3E3E3"/><circle cx="113.5" cy="308.902" r="1.5" fill="#E3E3E3"/><circle cx="131.5" cy="308.902" r="1.5" fill="#E3E3E3"/><circle cx="149.5" cy="308.902" r="1.5" fill="#E3E3E3"/><circle cx="167.5" cy="308.902" r="1.5" fill="#E3E3E3"/><circle cx="185.5" cy="308.902" r="1.5" fill="#E3E3E3"/><circle cx="203.5" cy="308.902" r="1.5" fill="#E3E3E3"/><circle cx="221.5" cy="308.902" r="1.5" fill="#E3E3E3"/><circle cx="239.5" cy="308.902" r="1.5" fill="#E3E3E3"/><circle cx="257.5" cy="308.902" r="1.5" fill="#E3E3E3"/><circle cx="275.5" cy="308.902" r="1.5" fill="#E3E3E3"/><circle cx="293.5" cy="308.902" r="1.5" fill="#E3E3E3"/><circle cx="311.5" cy="308.902" r="1.5" fill="#E3E3E3"/><circle cx="329.5" cy="308.902" r="1.5" fill="#E3E3E3"/><circle cx="347.5" cy="308.902" r="1.5" fill="#E3E3E3"/><circle cx="365.5" cy="308.902" r="1.5" fill="#E3E3E3"/><circle cx="383.5" cy="308.902" r="1.5" fill="#E3E3E3"/><circle cx="401.5" cy="308.902" r="1.5" fill="#E3E3E3"/><circle cx="419.5" cy="308.902" r="1.5" fill="#E3E3E3"/><circle cx="437.5" cy="308.902" r="1.5" fill="#E3E3E3"/><circle cx="95.5" cy="326.902" r="1.5" fill="#E3E3E3"/><circle cx="113.5" cy="326.902" r="1.5" fill="#E3E3E3"/><circle cx="131.5" cy="326.902" r="1.5" fill="#E3E3E3"/><circle cx="149.5" cy="326.902" r="1.5" fill="#E3E3E3"/><circle cx="167.5" cy="326.902" r="1.5" fill="#E3E3E3"/><circle cx="185.5" cy="326.902" r="1.5" fill="#E3E3E3"/><circle cx="203.5" cy="326.902" r="1.5" fill="#E3E3E3"/><circle cx="221.5" cy="326.902" r="1.5" fill="#E3E3E3"/><circle cx="239.5" cy="326.902" r="1.5" fill="#E3E3E3"/><circle cx="257.5" cy="326.902" r="1.5" fill="#E3E3E3"/><circle cx="275.5" cy="326.902" r="1.5" fill="#E3E3E3"/><circle cx="293.5" cy="326.902" r="1.5" fill="#E3E3E3"/><circle cx="311.5" cy="326.902" r="1.5" fill="#E3E3E3"/><circle cx="329.5" cy="326.902" r="1.5" fill="#E3E3E3"/><circle cx="347.5" cy="326.902" r="1.5" fill="#E3E3E3"/><circle cx="365.5" cy="326.902" r="1.5" fill="#E3E3E3"/><circle cx="383.5" cy="326.902" r="1.5" fill="#E3E3E3"/><circle cx="401.5" cy="326.902" r="1.5" fill="#E3E3E3"/><circle cx="419.5" cy="326.902" r="1.5" fill="#E3E3E3"/><circle cx="437.5" cy="326.902" r="1.5" fill="#E3E3E3"/><circle cx="95.5" cy="344.902" r="1.5" fill="#E3E3E3"/><circle cx="113.5" cy="344.902" r="1.5" fill="#E3E3E3"/><circle cx="131.5" cy="344.902" r="1.5" fill="#E3E3E3"/><circle cx="149.5" cy="344.902" r="1.5" fill="#E3E3E3"/><circle cx="167.5" cy="344.902" r="1.5" fill="#E3E3E3"/><circle cx="185.5" cy="344.902" r="1.5" fill="#E3E3E3"/><circle cx="203.5" cy="344.902" r="1.5" fill="#E3E3E3"/><circle cx="221.5" cy="344.902" r="1.5" fill="#E3E3E3"/><circle cx="239.5" cy="344.902" r="1.5" fill="#E3E3E3"/><circle cx="257.5" cy="344.902" r="1.5" fill="#E3E3E3"/><circle cx="275.5" cy="344.902" r="1.5" fill="#E3E3E3"/><circle cx="293.5" cy="344.902" r="1.5" fill="#E3E3E3"/><circle cx="311.5" cy="344.902" r="1.5" fill="#E3E3E3"/><circle cx="329.5" cy="344.902" r="1.5" fill="#E3E3E3"/><circle cx="347.5" cy="344.902" r="1.5" fill="#E3E3E3"/><circle cx="365.5" cy="344.902" r="1.5" fill="#E3E3E3"/><circle cx="383.5" cy="344.902" r="1.5" fill="#E3E3E3"/><circle cx="401.5" cy="344.902" r="1.5" fill="#E3E3E3"/><circle cx="419.5" cy="344.902" r="1.5" fill="#E3E3E3"/><circle cx="437.5" cy="344.902" r="1.5" fill="#E3E3E3"/><path fill="url(#paint0_radial_27_1301)" d="M0 .402h453v348H0z"/><path d="M-11.57 292.32c-15.104-2.711-28.115-15.969-38.704-30.779-10.573-14.785-18.7-31.14-16.843-46.462 1.857-15.322 13.71-29.694 27.946-38.386 14.253-8.669 30.877-11.724 46.866-9.476 16.006 2.273 31.335 9.843 42.217 22.371 10.881 12.527 17.292 30.029 14.551 45.813-2.747 15.826-14.687 29.929-29.215 40.904-14.569 10.969-31.72 18.768-46.818 16.015z" fill="#FE840E"/></g><defs><radialGradient id="paint0_radial_27_1301" cx="0" cy="0" r="1" gradientUnits="userSpaceOnUse" gradientTransform="matrix(-218 0 0 -283.776 317.5 162.402)"><stop stop-color="#fff" stop-opacity="0"/><stop offset="1" stop-color="#fff"/></radialGradient></defs></svg>