<svg width="756" height="1071" fill="none" xmlns="http://www.w3.org/2000/svg"><path d="M767.988 687.597c-54.124 74.784-133.88 121.776-215.066 130.056-81.319 8.33-163.933-22.104-241.116-79.299-77.235-57.33-148.987-141.288-149.389-229.159-.453-88.006 70.175-179.822 151.935-210.71 81.576-30.971 174.417-1.065 270.419 27.481 95.952 28.412 195.148 55.279 230.516 119.842 35.285 64.747 6.876 167.138-47.299 241.789z" fill="#FE840E"/><path d="M277.209 372.003c67.89-12.189 142.789 5.882 197.457 51.994 54.532 46.149 88.832 120.338 82.42 189.844-6.462 69.593-53.636 134.502-114.368 171.492-60.781 37.076-135.02 46.061-201.813 26.55-66.793-19.51-126.091-67.603-150.425-129.456-24.333-61.853-13.478-137.455 22.284-196.597 35.799-59.006 96.642-101.589 164.445-113.827z" fill="#FEB447"/></svg>