<svg width="205" height="218" fill="none" xmlns="http://www.w3.org/2000/svg"><path d="M31.22 211.426S11.234 131.927 55.608 64.958c0 0 39.827-1.653 85.71 38.302 0 0-40.6 35.726-45.47 112.422 0 0-49.184 6.861-64.63-4.256z" fill="url(#paint0_linear_1_3840)"/><path d="M110.776 46.167L89.691 71.082a6.184 6.184 0 00.08 8.085c3.519 3.999 9.748 9.163 17.895 8.175 2.666-.323 5.007-1.938 6.312-4.286l12.774-23.015-15.976-13.874z" fill="url(#paint1_linear_1_3840)"/><path d="M14.134 190.557s-5.887-70.18 41.304-91.589l.17-34.011s-77.975 32.19-49.256 121.622l7.782 3.978z" fill="url(#paint2_linear_1_3840)"/><path d="M6.352 186.58s-1.583 10.741 8.638 11.961c10.765 1.284 9.116 14.628 18.905 11.727.72-.213 1.207-.884 1.145-1.632-.385-4.599-3.078-20.949-21.96-24.172l-6.728 2.116z" fill="url(#paint3_linear_1_3840)"/><path d="M141.021 102.922s-6.741 61.365 30.964 90.602l-1.711 7.383s-62.06-24.472-61.286-87.982l32.033-10.003z" fill="url(#paint4_linear_1_3840)"/><path d="M166.066 197.253c-1.201-3.112 1.199-6.523 4.524-6.273.164.011.332.028.505.05 5.55.712 11.274.362 13.485-.877.735-.411 1.705-.19 2.082.562.494.984-.107 2.522-5.591 4.346 0 0 11.266 5.605 21.073 1.984 9.557-3.529-5.764 18.34-32.649 4.756a6.119 6.119 0 01-2.937-3.272l-.492-1.276z" fill="url(#paint5_linear_1_3840)"/><path d="M141.318 26.399s4.207 37.058-11.585 41.732c-15.789 4.672-22.763-31.257-22.763-31.257S116.973 1.908 141.318 26.4z" fill="url(#paint6_linear_1_3840)"/><path d="M110.776 46.167c-.566.669-8.876 5.516-13.487-2.856-4.612-8.371-.054-13.731 7.415-14.113 0 0-4.507-2.953-1.178-6.744 3.33-3.79 6.811-.678 6.811-.678s2.585-27.943 25.653-20.522c23.07 7.42 17.83 20.568 15.741 24.478-2.088 3.912-13.836 8.806-26.32 1.415 0 0 2.924 3.971-.968 7.895-3.892 3.923-13.8 4.927-13.8 4.927l.133 6.198z" fill="url(#paint7_linear_1_3840)"/><path d="M115.886 47.023s-1.36-11.453-7.461-8.153c-7.864 4.253 4.148 11.45 4.148 11.45l3.313-3.297z" fill="url(#paint8_linear_1_3840)"/><defs><linearGradient id="paint0_linear_1_3840" x1="91.35" y1="181.848" x2="51.715" y2="-8.592" gradientUnits="userSpaceOnUse"><stop stop-color="#C81F56"/><stop offset="1" stop-color="#FEB447"/></linearGradient><linearGradient id="paint1_linear_1_3840" x1="88.226" y1="66.817" x2="126.751" y2="66.817" gradientUnits="userSpaceOnUse"><stop stop-color="#F9B776"/><stop offset="1" stop-color="#F47960"/></linearGradient><linearGradient id="paint2_linear_1_3840" x1="44.272" y1="191.645" x2="4.637" y2="1.204" gradientUnits="userSpaceOnUse"><stop stop-color="#C81F56"/><stop offset="1" stop-color="#FEB447"/></linearGradient><linearGradient id="paint3_linear_1_3840" x1="6.265" y1="197.571" x2="35.045" y2="197.571" gradientUnits="userSpaceOnUse"><stop stop-color="#F9B776"/><stop offset="1" stop-color="#F47960"/></linearGradient><linearGradient id="paint4_linear_1_3840" x1="135.746" y1="170.774" x2="150.629" y2="-3.629" gradientUnits="userSpaceOnUse"><stop stop-color="#C81F56"/><stop offset="1" stop-color="#FEB447"/></linearGradient><linearGradient id="paint5_linear_1_3840" x1="165.752" y1="198.123" x2="205.001" y2="198.123" gradientUnits="userSpaceOnUse"><stop stop-color="#F9B776"/><stop offset="1" stop-color="#F47960"/></linearGradient><linearGradient id="paint6_linear_1_3840" x1="137.38" y1="53.888" x2="104.51" y2="16.078" gradientUnits="userSpaceOnUse"><stop stop-color="#F9B776"/><stop offset="1" stop-color="#F47960"/></linearGradient><linearGradient id="paint7_linear_1_3840" x1="95.434" y1="24.085" x2="153.752" y2="24.085" gradientUnits="userSpaceOnUse"><stop stop-color="#C81F56"/><stop offset="1" stop-color="#F06C46"/></linearGradient><linearGradient id="paint8_linear_1_3840" x1="127.424" y1="62.537" x2="94.559" y2="24.732" gradientUnits="userSpaceOnUse"><stop stop-color="#F9B776"/><stop offset="1" stop-color="#F47960"/></linearGradient></defs></svg>