<svg width="222" height="204" fill="none" xmlns="http://www.w3.org/2000/svg"><path d="M31.817 91.725s37.381-9.378 76.88-3.723c11.111 1.592 20.955 8.057 26.95 17.548 10.806 17.099 26.083 47.57 22.852 79.351l-16.961 4.194s-11.721-37.714-24.913-53.064c0 0-15.624 35.611-14.832 55.167.021.553.057 1.093.106 1.62 1.793 19.132-74.996 3.569-74.996 3.569l4.914-104.662z" fill="url(#paint0_linear_1_3816)"/><path d="M61.982 59.588l1.706 26.515c.158 2.467 1.756 4.557 3.993 5.22 5.155 1.525 14.89 3.366 24.435-.48 1.745-.703 2.642-2.772 2.055-4.658L81.55 45.64 61.982 59.588z" fill="url(#paint1_linear_1_3816)"/><path d="M57.716 21.186s-8.063 18.522-8.606 28.245c-.542 9.722-2.636 16.03 8.606 17.988 11.242 1.959 20.711-3.642 25.84-13.326 0 0 8.04-14.923 6.236-21.033-1.801-6.112-32.076-11.874-32.076-11.874z" fill="url(#paint2_linear_1_3816)"/><path d="M79.716 47.13h-1.42s5.854-12.01.709-14.12c-5.144-2.11-25.524-6.267-29.92-13.497-4.24-6.972-.458-15.976 5.197-18.496.357-.16.781.008.963.355l.467.887c.32.607 1.218.516 1.408-.144.183-.627 1.026-.762 1.37-.21 1.346 2.162 4.99 5.68 14.766 7.483 13.87 2.559 23.038 8.173 23.265 17.76.013.606.663.942 1.181.625 1.026-.624 2.663-.916 4.854.925 3.81 3.203 2.25 11.51-6.098 18.342-.397.325-.395.945.035 1.225 1.513.986 3.768 3.328-2.077 6.456-5.98 3.196-9.519 2.848-10.856 2.505a.762.762 0 01-.578-.79l.526-8.496a.764.764 0 00-.763-.81h-3.029z" fill="url(#paint3_linear_1_3816)"/><path d="M79.368 48.908s3.076-11.833 8.382-8.515c5.305 3.319-2.753 13.258-7.019 13.701l-1.363-5.186z" fill="url(#paint4_linear_1_3816)"/><path d="M32.05 167.964c-1.655-11.692 10.453-28.881 15.463-35.403a10.846 10.846 0 002.253-6.498c.146-16.561-6.806-27.195-17.948-34.337 0 0-40.436 47.107-30.14 83.341 1.112 3.91 2.833 7.27 5.017 10.156 1.622-13.651 17.404-16.629 25.355-17.259z" fill="url(#paint5_linear_1_3816)"/><path d="M32.805 163.441l-1.541-.176c1.306-11.467 11.366-25.623 15.633-31.176l1.23.945c-4.186 5.451-14.06 19.327-15.322 30.407z" fill="url(#paint6_linear_1_3816)"/><path d="M32.366 169.583a13.37 13.37 0 01-.316-1.62c-7.951.631-23.734 3.608-25.356 17.261 18.046 23.865 67.781 15.255 67.781 15.255v-9.285c.001 0-38.198-7.097-42.109-21.611z" fill="url(#paint7_linear_1_3816)"/><path d="M69.695 197.916s7.343-17.329 20.283-11.182c12.942 6.146 11.923 10.168 11.923 10.168l-32.206 1.014z" fill="url(#paint8_linear_1_3816)"/><path d="M68.046 201.511a2.459 2.459 0 002.534 2.264l67.055-2.339a2.458 2.458 0 002.26-1.723l1.947-6.228a2.458 2.458 0 00-2.215-3.186l-24.452-1.298a2.425 2.425 0 00-.663.055l-44.547 9.866a2.452 2.452 0 00-1.92 2.589z" fill="url(#paint9_linear_1_3816)"/><path d="M112.993 199.064l1.845-8.597 25.118 1.199-1.652 7.132-25.311.266z" fill="url(#paint10_linear_1_3816)"/><path d="M100.116 106.524c-1.422 11.616-7.817 58.81-9.648 72.293a3.096 3.096 0 003.162 3.509l108.48-3.105a3.1 3.1 0 002.939-2.427l16.875-75.999a3.1 3.1 0 00-3.207-3.766l-115.708 6.778a3.098 3.098 0 00-2.893 2.717z" fill="url(#paint11_linear_1_3816)"/><path d="M143.722 154.182l-16.032 45.507 37.282.791 3.104-46.023a3.576 3.576 0 00-3.805-3.81l-17.411 1.156a3.58 3.58 0 00-3.138 2.379z" fill="url(#paint12_linear_1_3816)"/><path d="M112.575 200.337a1.938 1.938 0 001.841 2.541H172.8c1.07 0 1.936-.866 1.936-1.936v-2.504a1.935 1.935 0 00-2.018-1.934l-58.384 2.503a1.939 1.939 0 00-1.759 1.33z" fill="url(#paint13_linear_1_3816)"/><path d="M98.479 154.535l-.771-.098 5.33-42.035a5.475 5.475 0 015.098-4.772l99.988-6.039.046.775-99.988 6.039a4.696 4.696 0 00-4.373 4.096l-5.33 42.034zm-1.509 11.973l-.772-.099-1.17 9.097.77.099 1.171-9.097z" fill="#FEB447"/><defs><linearGradient id="paint0_linear_1_3816" x1="57.751" y1="115.671" x2="153.15" y2="258.77" gradientUnits="userSpaceOnUse"><stop stop-color="#FEB447"/><stop offset="1" stop-color="#D93C65"/></linearGradient><linearGradient id="paint1_linear_1_3816" x1="78.869" y1="121.18" x2="78.093" y2="68.437" gradientUnits="userSpaceOnUse"><stop stop-color="#F9B776"/><stop offset="1" stop-color="#F47960"/></linearGradient><linearGradient id="paint2_linear_1_3816" x1="56.027" y1="37.489" x2="102.123" y2="72.76" gradientUnits="userSpaceOnUse"><stop stop-color="#F9B776"/><stop offset="1" stop-color="#F47960"/></linearGradient><linearGradient id="paint3_linear_1_3816" x1="88.413" y1="9.645" x2="46.671" y2="63.388" gradientUnits="userSpaceOnUse"><stop stop-color="#CB236D"/><stop offset="1" stop-color="#F06C46"/></linearGradient><linearGradient id="paint4_linear_1_3816" x1="61.744" y1="30.02" x2="107.838" y2="65.288" gradientUnits="userSpaceOnUse"><stop stop-color="#F9B776"/><stop offset="1" stop-color="#F47960"/></linearGradient><linearGradient id="paint5_linear_1_3816" x1="22.026" y1="139.488" x2="117.425" y2="282.585" gradientUnits="userSpaceOnUse"><stop stop-color="#FEB447"/><stop offset="1" stop-color="#D93C65"/></linearGradient><linearGradient id="paint6_linear_1_3816" x1="50.001" y1="131.776" x2="31" y2="166.276" gradientUnits="userSpaceOnUse"><stop stop-color="#FDF53F"/><stop offset="1" stop-color="#FEB447"/></linearGradient><linearGradient id="paint7_linear_1_3816" x1="27.798" y1="154.559" x2="57.273" y2="232.123" gradientUnits="userSpaceOnUse"><stop stop-color="#F9B776"/><stop offset="1" stop-color="#F47960"/></linearGradient><linearGradient id="paint8_linear_1_3816" x1="64.368" y1="140.662" x2="93.842" y2="218.226" gradientUnits="userSpaceOnUse"><stop stop-color="#F9B776"/><stop offset="1" stop-color="#F47960"/></linearGradient><linearGradient id="paint9_linear_1_3816" x1="128.339" y1="168.828" x2="113.085" y2="188.477" gradientUnits="userSpaceOnUse"><stop stop-color="#F5FA72"/><stop offset="1" stop-color="#C81F56"/></linearGradient><linearGradient id="paint10_linear_1_3816" x1="139.736" y1="177.676" x2="124.482" y2="197.325" gradientUnits="userSpaceOnUse"><stop stop-color="#FEB447"/><stop offset="1" stop-color="#FE840E"/></linearGradient><linearGradient id="paint11_linear_1_3816" x1="144.896" y1="110.723" x2="172.043" y2="180.142" gradientUnits="userSpaceOnUse"><stop stop-color="#C81F56"/><stop offset="1" stop-color="#F73866"/></linearGradient><linearGradient id="paint12_linear_1_3816" x1="141.63" y1="138.322" x2="157.143" y2="233.726" gradientUnits="userSpaceOnUse"><stop stop-color="#C81F56"/><stop offset="1" stop-color="#F73865"/></linearGradient><linearGradient id="paint13_linear_1_3816" x1="134.645" y1="193.815" x2="180.409" y2="223.807" gradientUnits="userSpaceOnUse"><stop stop-color="#C81F56"/><stop offset="1" stop-color="#C81F56"/></linearGradient></defs></svg>