<svg width="196" height="132" viewBox="0 0 196 132" fill="none" xmlns="http://www.w3.org/2000/svg">
<path d="M2.0166 2.40234H20.0597C22.4535 2.40234 24.7679 3.26106 26.5824 4.82246L85.042 55.1285C86.8564 56.6899 89.1708 57.5486 91.5646 57.5486H104.722C107.115 57.5486 109.43 56.6899 111.244 55.1285L169.704 4.82246C171.518 3.26105 173.833 2.40234 176.227 2.40234H194.27" stroke="#E3E3E3" stroke-width="3" stroke-linecap="round" stroke-linejoin="round"/>
<path d="M194.269 130.402L176.225 130.402C173.832 130.402 171.517 129.544 169.703 127.982L111.243 77.6762C109.429 76.1148 107.114 75.2561 104.721 75.2561L91.5636 75.2561C89.1698 75.2561 86.8554 76.1148 85.0409 77.6762L26.5813 127.982C24.7669 129.544 22.4525 130.402 20.0587 130.402L2.01557 130.402" stroke="#E3E3E3" stroke-width="3" stroke-linecap="round" stroke-linejoin="round"/>
<circle cx="98.1422" cy="66.1494" r="2.54743" stroke="#C81F56" stroke-width="3"/>
<circle cx="116.356" cy="66.1494" r="2.54743" stroke="#C81F56" stroke-width="3"/>
<circle cx="134.569" cy="66.1494" r="2.54743" stroke="#C81F56" stroke-width="3"/>
<circle cx="153.794" cy="66.1494" r="2.54743" stroke="#C81F56" stroke-width="3"/>
<circle cx="172.008" cy="66.1494" r="2.54743" stroke="#C81F56" stroke-width="3"/>
<circle cx="190.221" cy="66.1494" r="2.54743" stroke="#C81F56" stroke-width="3"/>
<circle cx="79.9293" cy="66.1494" r="2.54743" stroke="#C81F56" stroke-width="3"/>
<circle cx="61.7154" cy="66.1495" r="2.54743" stroke="#C81F56" stroke-width="3"/>
<circle cx="61.7154" cy="50.9714" r="2.54743" stroke="#C81F56" stroke-width="3"/>
<circle cx="61.7154" cy="81.3275" r="2.54743" stroke="#C81F56" stroke-width="3"/>
<circle cx="42.4898" cy="66.1496" r="2.54743" stroke="#F06C46" stroke-width="3"/>
<circle cx="42.4898" cy="50.9716" r="2.54743" stroke="#F06C46" stroke-width="3"/>
<circle cx="42.4898" cy="81.3276" r="2.54743" stroke="#F06C46" stroke-width="3"/>
<circle cx="42.4898" cy="35.7938" r="2.54743" stroke="#F06C46" stroke-width="3"/>
<circle cx="42.4898" cy="96.5057" r="2.54743" stroke="#F06C46" stroke-width="3"/>
<circle cx="6.06306" cy="66.1492" r="2.54743" stroke="#FEB447" stroke-width="3"/>
<circle cx="6.06306" cy="50.9713" r="2.54743" stroke="#FEB447" stroke-width="3"/>
<circle cx="6.06306" cy="81.3272" r="2.54743" stroke="#FEB447" stroke-width="3"/>
<circle cx="6.06306" cy="35.7936" r="2.54743" stroke="#FEB447" stroke-width="3"/>
<circle cx="6.06306" cy="96.5052" r="2.54743" stroke="#FEB447" stroke-width="3"/>
<circle cx="6.06403" cy="20.6157" r="2.54743" stroke="#FEB447" stroke-width="3"/>
<circle cx="6.06306" cy="111.683" r="2.54743" stroke="#FEB447" stroke-width="3"/>
<circle cx="24.2769" cy="66.1492" r="2.54743" stroke="#FE840E" stroke-width="3"/>
<circle cx="24.2769" cy="50.9713" r="2.54743" stroke="#FE840E" stroke-width="3"/>
<circle cx="24.2769" cy="81.3272" r="2.54743" stroke="#FE840E" stroke-width="3"/>
<circle cx="24.2769" cy="35.7936" r="2.54743" stroke="#FE840E" stroke-width="3"/>
<circle cx="24.2769" cy="96.5052" r="2.54743" stroke="#FE840E" stroke-width="3"/>
<circle cx="24.2769" cy="20.6157" r="2.54743" stroke="#FE840E" stroke-width="3"/>
<circle cx="24.2769" cy="111.683" r="2.54743" stroke="#FE840E" stroke-width="3"/>
</svg>
