<svg width="453" height="349" viewBox="0 0 453 349" fill="none" xmlns="http://www.w3.org/2000/svg">
<mask id="mask0_1_3672" style="mask-type:alpha" maskUnits="userSpaceOnUse" x="0" y="0" width="453" height="349">
<rect y="0.402344" width="453" height="348" rx="20" fill="#FE840E"/>
</mask>
<g mask="url(#mask0_1_3672)">
<rect y="0.402344" width="453" height="348" fill="url(#paint0_linear_1_3672)"/>
<path d="M392.648 616.976C327.038 605.198 270.524 547.61 224.525 483.281C178.603 419.057 143.301 348.016 151.366 281.463C159.431 214.91 210.921 152.482 272.757 114.724C334.669 77.0693 406.878 63.7981 476.327 73.5658C545.853 83.438 612.437 116.321 659.704 170.736C706.972 225.151 734.817 301.173 722.913 369.737C710.98 438.481 659.116 499.739 596.012 547.411C532.726 595.056 458.23 628.935 392.648 616.976Z" fill="#C81F56"/>
<path d="M366.929 327.553H381.19L403.608 261.613L341.298 257.831L366.929 327.553Z" fill="url(#paint1_linear_1_3672)"/>
<path d="M441.536 139.108C441.603 144.675 441.603 253.641 386.29 271.335C330.973 289.029 305.991 196.833 307.971 131.17L441.536 139.108Z" fill="url(#paint2_linear_1_3672)"/>
<path d="M418.278 337.555H329.844V348.291H418.278V337.555Z" fill="url(#paint3_linear_1_3672)"/>
<path d="M329.844 337.555H418.278L395.894 325.548H352.224L329.844 337.555Z" fill="url(#paint4_linear_1_3672)"/>
<path d="M447.945 123.645C452.802 123.94 456.775 127.536 456.775 131.632V140.016C456.775 144.113 452.799 147.253 447.939 146.992L296.34 138.835C291.484 138.574 287.507 135.006 287.507 130.91V121.336C287.507 117.239 291.481 114.126 296.337 114.422L447.945 123.645Z" fill="url(#paint5_linear_1_3672)"/>
<path d="M347.12 279.996C350.65 279.996 353.698 277.763 354.11 274.737C354.55 271.483 351.773 268.543 347.91 268.17C347.178 268.097 296.302 262.724 291.477 234.881C290.662 230.187 290.754 224.052 295.804 221.493C299.968 219.377 306.79 220.051 311.668 223.055C314.439 224.762 317.477 227.752 316.186 232.307C315.281 235.493 317.619 238.691 321.402 239.451C325.185 240.214 328.986 238.245 329.893 235.059C332.237 226.804 328.531 218.737 319.987 213.478C310.496 207.635 297.563 206.749 288.527 211.328C283.247 214.004 274.801 220.844 277.529 236.591C280.227 252.159 293.227 264.63 315.125 272.658C330.847 278.421 345.68 279.897 346.304 279.956C346.578 279.984 346.849 279.996 347.12 279.996Z" fill="url(#paint6_linear_1_3672)"/>
<path d="M399.881 279.996C396.347 279.996 393.3 277.763 392.894 274.737C392.448 271.483 395.225 268.543 399.088 268.17C399.826 268.097 450.698 262.724 455.524 234.881C456.336 230.187 456.243 224.052 451.2 221.493C447.032 219.377 440.208 220.051 435.333 223.055C432.562 224.762 429.523 227.752 430.815 232.307C431.719 235.493 429.382 238.691 425.599 239.451C421.816 240.214 418.012 238.245 417.107 235.059C414.767 226.804 418.467 218.737 427.011 213.478C436.505 207.635 449.44 206.749 458.47 211.328C463.751 214.004 472.199 220.844 469.471 236.591C466.771 252.159 453.774 264.63 431.876 272.658C416.151 278.421 401.317 279.897 400.693 279.956C400.419 279.984 400.149 279.996 399.881 279.996Z" fill="url(#paint7_linear_1_3672)"/>
</g>
<defs>
<linearGradient id="paint0_linear_1_3672" x1="453" y1="348.402" x2="9.50003" y2="0.402334" gradientUnits="userSpaceOnUse">
<stop stop-color="#FEB447"/>
<stop offset="1" stop-color="#FE840E"/>
</linearGradient>
<linearGradient id="paint1_linear_1_3672" x1="351.436" y1="257.761" x2="515.887" y2="468.491" gradientUnits="userSpaceOnUse">
<stop stop-color="#FEB447"/>
<stop offset="1" stop-color="#FE840E"/>
</linearGradient>
<linearGradient id="paint2_linear_1_3672" x1="318.354" y1="106.683" x2="435.246" y2="318.412" gradientUnits="userSpaceOnUse">
<stop stop-color="#FEB447"/>
<stop offset="1" stop-color="#FE840E"/>
</linearGradient>
<linearGradient id="paint3_linear_1_3672" x1="373.219" y1="329.11" x2="378.463" y2="414.997" gradientUnits="userSpaceOnUse">
<stop stop-color="#FEB447"/>
<stop offset="1" stop-color="#FE840E"/>
</linearGradient>
<linearGradient id="paint4_linear_1_3672" x1="334.805" y1="294.675" x2="392.728" y2="352.598" gradientUnits="userSpaceOnUse">
<stop stop-color="#FEB447"/>
<stop offset="1" stop-color="#FE840E"/>
</linearGradient>
<linearGradient id="paint5_linear_1_3672" x1="297.402" y1="69.7407" x2="466.123" y2="194.806" gradientUnits="userSpaceOnUse">
<stop stop-color="#FEB447"/>
<stop offset="1" stop-color="#FE840E"/>
</linearGradient>
<linearGradient id="paint6_linear_1_3672" x1="277.169" y1="200.238" x2="420.812" y2="379.977" gradientUnits="userSpaceOnUse">
<stop stop-color="#FEB447"/>
<stop offset="1" stop-color="#FE840E"/>
</linearGradient>
<linearGradient id="paint7_linear_1_3672" x1="393.015" y1="200.238" x2="536.66" y2="379.974" gradientUnits="userSpaceOnUse">
<stop stop-color="#FEB447"/>
<stop offset="1" stop-color="#FE840E"/>
</linearGradient>
</defs>
</svg>
