<svg width="129" height="128" viewBox="0 0 129 128" fill="none" xmlns="http://www.w3.org/2000/svg">
<g clip-path="url(#clip0_1_3691)">
<path d="M48.4033 13.4818V1.66455H100.294L127.739 29.0911V114.89H105.712" stroke="#C81F56" stroke-width="3" stroke-miterlimit="10" stroke-linecap="round" stroke-linejoin="round"/>
<path d="M100.314 29.0911H127.739L100.314 1.66455V29.0911Z" stroke="#C81F56" stroke-width="3" stroke-miterlimit="10" stroke-linecap="round" stroke-linejoin="round"/>
<path d="M78.8525 78.7822H114.018" stroke="#C81F56" stroke-width="3" stroke-miterlimit="10" stroke-linecap="round" stroke-linejoin="round"/>
<path d="M73.4072 66.7429H114.018" stroke="#C81F56" stroke-width="3" stroke-miterlimit="10" stroke-linecap="round" stroke-linejoin="round"/>
<path d="M78.8525 54.707H114.018" stroke="#C81F56" stroke-width="3" stroke-miterlimit="10" stroke-linecap="round" stroke-linejoin="round"/>
<path d="M95.5426 126.135C95.5426 126.135 95.5426 97.9085 81.5771 90.3824L58.8789 79.0952" stroke="#FE840E" stroke-width="3" stroke-miterlimit="10" stroke-linecap="round" stroke-linejoin="round"/>
<path d="M1.2627 126.135C1.2627 126.135 1.2627 97.9085 15.229 90.3824L37.9264 79.0952" stroke="#FE840E" stroke-width="3" stroke-miterlimit="10" stroke-linecap="round" stroke-linejoin="round"/>
<path d="M65.8605 82.8555L67.6126 97.9086C56.2584 94.9024 51.8916 86.6223 51.8916 86.6223" stroke="#FE840E" stroke-width="3" stroke-miterlimit="10" stroke-linecap="round" stroke-linejoin="round"/>
<path d="M30.9439 82.8555L29.1943 97.9086C40.5477 94.9024 44.9144 86.6223 44.9144 86.6223" stroke="#FE840E" stroke-width="3" stroke-miterlimit="10" stroke-linecap="round" stroke-linejoin="round"/>
<path d="M51.8926 86.6223C51.8926 86.6223 56.0885 93.3988 51.8926 97.9086C51.8926 97.9086 55.39 120.117 55.39 126.14" stroke="#FE840E" stroke-width="3" stroke-miterlimit="10" stroke-linecap="round" stroke-linejoin="round"/>
<path d="M41.416 126.14C41.416 120.116 44.9135 97.9086 44.9135 97.9086C40.7158 93.3988 44.9135 86.6223 44.9135 86.6223" stroke="#FE840E" stroke-width="3" stroke-miterlimit="10" stroke-linecap="round" stroke-linejoin="round"/>
<path d="M55.3904 73.4479C65.1616 68.9372 66.3869 59.337 67.4355 49.9312C67.9631 44.8484 68.139 39.3921 65.8618 34.6879C63.7689 30.3564 59.9264 27.3451 55.738 25.8416C53.4675 24.8992 51.0253 24.5273 48.4047 24.5273C45.7833 24.5273 43.3411 24.8992 41.069 25.8416C36.8797 27.346 33.0398 30.3564 30.9451 34.6879C28.6688 39.3921 28.8472 44.8493 29.3714 49.9312C30.4209 59.337 31.4669 68.9372 41.4174 73.4479" stroke="#FE840E" stroke-width="3" stroke-miterlimit="10" stroke-linecap="round" stroke-linejoin="round"/>
<path d="M58.8796 71.5674V75.3292C58.8796 81.542 54.1636 86.6223 48.404 86.6223C42.6419 86.6223 37.9268 81.542 37.9268 75.3292V71.5674" stroke="#FE840E" stroke-width="3" stroke-miterlimit="10" stroke-linecap="round" stroke-linejoin="round"/>
</g>
<defs>
<clipPath id="clip0_1_3691">
<rect width="129" height="127" fill="white" transform="translate(0 0.402344)"/>
</clipPath>
</defs>
</svg>
