<svg width="237" height="129" viewBox="0 0 237 129" fill="none" xmlns="http://www.w3.org/2000/svg">
<rect x="215.161" y="0.402344" width="2.64828" height="128" rx="1.32414" fill="#E3E3E3"/>
<rect x="151.603" y="0.402344" width="2.64828" height="128" rx="1.32414" fill="#E3E3E3"/>
<rect x="88.0439" y="0.402344" width="2.64828" height="128" rx="1.32414" fill="#E3E3E3"/>
<rect x="24.4854" y="0.402344" width="2.64828" height="128" rx="1.32414" fill="#E3E3E3"/>
<path d="M2.41699 71.6976C8.21083 71.6976 12.4206 63.7871 16.4895 56.1335C21.0409 47.5763 25.7207 38.7621 33.6163 39.6979C43.6986 40.9399 47.5605 57.2578 51.6481 74.5329C54.8183 87.932 58.413 103.117 64.5237 103.721C70.098 104.22 74.548 91.9258 78.414 81.0279C82.9447 68.2563 87.2248 56.1914 95.1556 55.6946C102.527 55.2342 106.781 63.6479 110.908 71.7833C115.037 79.923 119.267 88.3753 126.051 87.7114C132.867 87.0776 136.744 70.7297 140.162 56.307C144.14 39.5245 147.899 23.6755 157.192 23.6755C167.212 23.6755 170.273 42.3683 173.818 64.012C176.866 82.6191 180.32 103.71 188.147 103.71C193.622 103.71 198.757 90.4182 202.884 79.7367C207.868 66.8344 212.173 55.6903 219.104 55.6903C223.989 55.6903 226.681 60.6799 229.058 65.0827C230.812 68.3356 232.628 71.6976 234.583 71.6976" stroke="url(#paint0_linear_1_3749)" stroke-width="3" stroke-linecap="round" stroke-linejoin="round"/>
<defs>
<linearGradient id="paint0_linear_1_3749" x1="137.336" y1="23.6755" x2="137.336" y2="103.736" gradientUnits="userSpaceOnUse">
<stop stop-color="#FE840E"/>
<stop offset="1" stop-color="#C81F56"/>
</linearGradient>
</defs>
</svg>
