<svg width="118" height="147" viewBox="0 0 118 147" fill="none" xmlns="http://www.w3.org/2000/svg">
<circle cx="58.659" cy="59.0614" r="57.159" stroke="url(#paint0_linear_1_3765)" stroke-width="3"/>
<path d="M54.7151 145.403H64.5578L62.5295 89.7168L61.2559 54.7513L60.2497 27.1243L59.6365 10.2891L59.2434 21.0809L58.3472 45.6862L57.3566 72.8816L56.4132 98.7819L54.7151 145.403Z" fill="white"/>
<path d="M33.6875 145.403H85.138M18.0286 60.3974L30.1083 72.4771M56.4132 98.7819L54.7151 145.403H64.5578L62.5295 89.7168M56.4132 98.7819L57.3566 72.8816M56.4132 98.7819L35.0297 77.3984M100.797 51.4495L89.1646 63.0818M62.5295 89.7168L61.2559 54.7513M62.5295 89.7168L73.5057 78.7406M40.3984 55.9234L49.3464 64.8713M57.3566 72.8816L58.3472 45.6862M57.3566 72.8816L49.3464 64.8713M75.2953 40.712L69.3941 46.6132M61.2559 54.7513L60.2497 27.1243M61.2559 54.7513L69.3941 46.6132M83.7958 32.2115L79.5456 36.4617M38.1615 25.5005L47.5568 34.8958M58.3472 45.6862L59.2434 21.0809M58.3472 45.6862L47.5568 34.8958M70.8214 16.5526L60.2497 27.1243M60.2497 27.1243L59.6365 10.2891L59.2434 21.0809M52.9255 14.763L59.2434 21.0809M33.6875 34.8958H47.5568M49.3464 51.4495V64.8713M77.5323 54.7513L69.3941 46.6132M89.1646 51.4495V63.0818M89.1646 63.0818L73.5057 78.7406M100.797 69.3453H83.7958M81.5588 86.7937L73.5057 78.7406M30.1083 60.3974V72.4771M30.1083 72.4771L35.0297 77.3984M13.5547 77.3984H19.8182M26.0818 77.3984H35.0297" stroke="url(#paint1_linear_1_3765)" stroke-width="3" stroke-linecap="round" stroke-linejoin="round"/>
<defs>
<linearGradient id="paint0_linear_1_3765" x1="58.659" y1="0.402344" x2="58.659" y2="117.72" gradientUnits="userSpaceOnUse">
<stop stop-color="#C81F56"/>
<stop offset="1" stop-color="#FE840E"/>
</linearGradient>
<linearGradient id="paint1_linear_1_3765" x1="57.1758" y1="10.2891" x2="57.1758" y2="145.403" gradientUnits="userSpaceOnUse">
<stop stop-color="#C81F56"/>
<stop offset="1" stop-color="#FE840E"/>
</linearGradient>
</defs>
</svg>
