<svg width="213" height="111" viewBox="0 0 213 111" fill="none" xmlns="http://www.w3.org/2000/svg">
<path opacity="0.2" d="M13.5544 7.46188V103.343C13.5544 106.413 11.0653 108.902 7.99496 108.902C4.92458 108.902 2.43555 106.413 2.43555 103.343V7.46189C2.43555 4.39151 4.92458 1.90247 7.99496 1.90247C11.0653 1.90247 13.5544 4.3915 13.5544 7.46188Z" stroke="#9EA7B3" stroke-width="3"/>
<path opacity="0.2" d="M35.5222 7.46188V103.343C35.5222 106.413 33.0331 108.902 29.9627 108.902C26.8924 108.902 24.4033 106.413 24.4033 103.343V7.46189C24.4033 4.39151 26.8924 1.90247 29.9627 1.90247C33.0331 1.90247 35.5222 4.3915 35.5222 7.46188Z" stroke="#9EA7B3" stroke-width="3"/>
<path opacity="0.2" d="M57.486 7.46188V103.343C57.486 106.413 54.997 108.902 51.9266 108.902C48.8562 108.902 46.3672 106.413 46.3672 103.343V7.46189C46.3672 4.39151 48.8562 1.90247 51.9266 1.90247C54.997 1.90247 57.486 4.3915 57.486 7.46188Z" stroke="#9EA7B3" stroke-width="3"/>
<path opacity="0.2" d="M79.4577 7.46189V103.343C79.4577 106.413 76.9687 108.902 73.8983 108.902C70.8279 108.902 68.3389 106.413 68.3389 103.343V7.46189C68.3389 4.39151 70.8279 1.90247 73.8983 1.90247C76.9687 1.90247 79.4577 4.3915 79.4577 7.46189Z" stroke="#9EA7B3" stroke-width="3"/>
<path opacity="0.2" d="M101.422 7.46188V103.343C101.422 106.413 98.9325 108.902 95.8622 108.902C92.7918 108.902 90.3027 106.413 90.3027 103.343V7.46189C90.3027 4.39151 92.7918 1.90247 95.8622 1.90247C98.9325 1.90247 101.422 4.3915 101.422 7.46188Z" stroke="#9EA7B3" stroke-width="3"/>
<path opacity="0.2" d="M123.385 7.46188V103.343C123.385 106.413 120.896 108.902 117.826 108.902C114.756 108.902 112.267 106.413 112.267 103.343V7.46189C112.267 4.39151 114.756 1.90247 117.826 1.90247C120.896 1.90247 123.385 4.3915 123.385 7.46188Z" stroke="#9EA7B3" stroke-width="3"/>
<path opacity="0.2" d="M145.35 7.46188V103.343C145.35 106.413 142.861 108.902 139.791 108.902C136.72 108.902 134.231 106.413 134.231 103.343V7.46189C134.231 4.39151 136.72 1.90247 139.791 1.90247C142.861 1.90247 145.35 4.3915 145.35 7.46188Z" stroke="#9EA7B3" stroke-width="3"/>
<path opacity="0.2" d="M167.324 7.46188V103.343C167.324 106.413 164.835 108.902 161.764 108.902C158.694 108.902 156.205 106.413 156.205 103.343V7.46189C156.205 4.39151 158.694 1.90247 161.764 1.90247C164.835 1.90247 167.324 4.3915 167.324 7.46188Z" stroke="#9EA7B3" stroke-width="3"/>
<path opacity="0.2" d="M189.289 7.46188V103.343C189.289 106.413 186.8 108.902 183.729 108.902C180.659 108.902 178.17 106.413 178.17 103.343V7.46189C178.17 4.39151 180.659 1.90247 183.729 1.90247C186.8 1.90247 189.289 4.3915 189.289 7.46188Z" stroke="#9EA7B3" stroke-width="3"/>
<path opacity="0.2" d="M211.254 7.46188V103.343C211.254 106.413 208.765 108.902 205.694 108.902C202.624 108.902 200.135 106.413 200.135 103.343V7.46189C200.135 4.39151 202.624 1.90247 205.694 1.90247C208.765 1.90247 211.254 4.3915 211.254 7.46188Z" stroke="#9EA7B3" stroke-width="3"/>
<path d="M13.5544 84.0611V103.325C13.5544 106.396 11.0653 108.885 7.99496 108.885C4.92458 108.885 2.43555 106.396 2.43555 103.325V84.0611C2.43555 80.9907 4.92458 78.5017 7.99496 78.5017C11.0653 78.5017 13.5544 80.9907 13.5544 84.0611Z" stroke="#C81F56" stroke-width="3"/>
<path d="M35.5222 56.2627V103.33C35.5222 106.401 33.0331 108.89 29.9627 108.89C26.8924 108.89 24.4033 106.401 24.4033 103.33V56.2627C24.4033 53.1923 26.8924 50.7032 29.9627 50.7032C33.0331 50.7032 35.5222 53.1923 35.5222 56.2627Z" stroke="#FE840E" stroke-width="3"/>
<path d="M57.486 19.6753V103.341C57.486 106.411 54.997 108.9 51.9266 108.9C48.8562 108.9 46.3672 106.411 46.3672 103.341V19.6753C46.3672 16.6049 48.8562 14.1158 51.9266 14.1158C54.997 14.1158 57.486 16.6049 57.486 19.6753Z" stroke="#FEB447" stroke-width="3"/>
<path d="M79.4567 84.0611V103.325C79.4567 106.396 76.9677 108.885 73.8973 108.885C70.8269 108.885 68.3379 106.396 68.3379 103.325V84.0611C68.3379 80.9907 70.8269 78.5017 73.8973 78.5017C76.9677 78.5017 79.4567 80.9907 79.4567 84.0611Z" stroke="#FE840E" stroke-width="3"/>
<path d="M101.422 64.3596V103.341C101.422 106.412 98.9325 108.901 95.8622 108.901C92.7918 108.901 90.3027 106.412 90.3027 103.341V64.3596C90.3027 61.2892 92.7918 58.8002 95.8622 58.8002C98.9325 58.8002 101.422 61.2892 101.422 64.3596Z" stroke="#C81F56" stroke-width="3"/>
<path d="M123.386 19.6753V103.341C123.386 106.411 120.897 108.9 117.827 108.9C114.757 108.9 112.268 106.411 112.268 103.341V19.6753C112.268 16.6049 114.757 14.1158 117.827 14.1158C120.897 14.1158 123.386 16.6049 123.386 19.6753Z" stroke="#FE840E" stroke-width="3"/>
<path d="M145.35 87.1089V103.331C145.35 106.401 142.861 108.89 139.791 108.89C136.72 108.89 134.231 106.401 134.231 103.331V87.1089C134.231 84.0385 136.72 81.5494 139.791 81.5494C142.861 81.5494 145.35 84.0385 145.35 87.1089Z" stroke="#FEB447" stroke-width="3"/>
<path d="M167.324 37.7539V103.325C167.324 106.396 164.835 108.885 161.764 108.885C158.694 108.885 156.205 106.396 156.205 103.325V37.7539C156.205 34.6835 158.694 32.1945 161.764 32.1945C164.835 32.1945 167.324 34.6835 167.324 37.7539Z" stroke="#FE840E" stroke-width="3"/>
<path d="M189.289 64.3596V103.341C189.289 106.412 186.8 108.901 183.729 108.901C180.659 108.901 178.17 106.412 178.17 103.341V64.3596C178.17 61.2892 180.659 58.8002 183.729 58.8002C186.8 58.8002 189.289 61.2892 189.289 64.3596Z" stroke="#C81F56" stroke-width="3"/>
<path d="M211.254 84.0611V103.325C211.254 106.396 208.765 108.885 205.694 108.885C202.624 108.885 200.135 106.396 200.135 103.325V84.0611C200.135 80.9907 202.624 78.5017 205.694 78.5017C208.765 78.5017 211.254 80.9907 211.254 84.0611Z" stroke="#FE840E" stroke-width="3"/>
</svg>
