<svg width="176" height="235" viewBox="0 0 176 235" fill="none" xmlns="http://www.w3.org/2000/svg">
<path d="M89.9293 213.553H104.19L126.608 147.613L64.2979 143.831L89.9293 213.553Z" fill="url(#paint0_linear_1_3679)"/>
<path d="M164.536 25.1084C164.603 30.6751 164.603 139.641 109.29 157.335C53.9731 175.029 28.9906 82.8332 30.9713 17.1704L164.536 25.1084Z" fill="url(#paint1_linear_1_3679)"/>
<path d="M141.278 223.555H52.8438V234.291H141.278V223.555Z" fill="url(#paint2_linear_1_3679)"/>
<path d="M52.8438 223.555H141.278L118.894 211.548H75.2244L52.8438 223.555Z" fill="url(#paint3_linear_1_3679)"/>
<path d="M170.945 9.64525C175.802 9.9405 179.775 13.5358 179.775 17.6324V26.0164C179.775 30.113 175.799 33.2531 170.939 32.9917L19.3398 24.8354C14.4835 24.5739 10.5068 21.0063 10.5068 16.9097V7.33554C10.5068 3.23893 14.4805 0.12648 19.3368 0.421731L170.945 9.64525Z" fill="url(#paint4_linear_1_3679)"/>
<path d="M70.1195 165.996C73.6502 165.996 76.6979 163.763 77.1101 160.737C77.5499 157.483 74.7727 154.543 70.9098 154.17C70.1778 154.097 19.3023 148.724 14.4768 120.881C13.6617 116.187 13.754 110.052 18.804 107.493C22.9683 105.377 29.7899 106.051 34.6677 109.055C37.4387 110.762 40.4773 113.752 39.1856 118.307C38.2814 121.493 40.619 124.691 44.4019 125.451C48.1848 126.214 51.9861 124.245 52.8934 121.059C55.2369 112.804 51.5309 104.737 42.9871 99.4781C33.4959 93.6345 20.5633 92.7488 11.5274 97.3283C6.24666 100.004 -2.19873 106.844 0.529274 122.591C3.22652 138.159 16.2268 150.63 38.1246 158.658C53.8468 164.421 68.6801 165.897 69.3045 165.956C69.5782 165.984 69.8489 165.996 70.1195 165.996Z" fill="url(#paint5_linear_1_3679)"/>
<path d="M122.881 165.996C119.347 165.996 116.3 163.763 115.894 160.737C115.448 157.483 118.225 154.543 122.088 154.17C122.826 154.097 173.698 148.724 178.524 120.881C179.336 116.187 179.243 110.052 174.2 107.493C170.032 105.377 163.208 106.051 158.333 109.055C155.562 110.762 152.523 113.752 153.815 118.307C154.719 121.493 152.382 124.691 148.599 125.451C144.816 126.214 141.012 124.245 140.107 121.059C137.767 112.804 141.467 104.737 150.011 99.4781C159.505 93.6345 172.44 92.7488 181.47 97.3283C186.751 100.004 195.199 106.844 192.471 122.591C189.771 138.159 176.774 150.63 154.876 158.658C139.151 164.421 124.317 165.897 123.693 165.956C123.419 165.984 123.149 165.996 122.881 165.996Z" fill="url(#paint6_linear_1_3679)"/>
<defs>
<linearGradient id="paint0_linear_1_3679" x1="74.4359" y1="143.761" x2="238.887" y2="354.491" gradientUnits="userSpaceOnUse">
<stop stop-color="#FEB447"/>
<stop offset="1" stop-color="#FE840E"/>
</linearGradient>
<linearGradient id="paint1_linear_1_3679" x1="41.3536" y1="-7.31695" x2="158.246" y2="204.412" gradientUnits="userSpaceOnUse">
<stop stop-color="#FEB447"/>
<stop offset="1" stop-color="#FE840E"/>
</linearGradient>
<linearGradient id="paint2_linear_1_3679" x1="96.2189" y1="215.11" x2="101.463" y2="300.997" gradientUnits="userSpaceOnUse">
<stop stop-color="#FEB447"/>
<stop offset="1" stop-color="#FE840E"/>
</linearGradient>
<linearGradient id="paint3_linear_1_3679" x1="57.8046" y1="180.675" x2="115.728" y2="238.598" gradientUnits="userSpaceOnUse">
<stop stop-color="#FEB447"/>
<stop offset="1" stop-color="#FE840E"/>
</linearGradient>
<linearGradient id="paint4_linear_1_3679" x1="20.4015" y1="-44.2593" x2="189.123" y2="80.8062" gradientUnits="userSpaceOnUse">
<stop stop-color="#FEB447"/>
<stop offset="1" stop-color="#FE840E"/>
</linearGradient>
<linearGradient id="paint5_linear_1_3679" x1="0.168817" y1="86.2379" x2="143.812" y2="265.977" gradientUnits="userSpaceOnUse">
<stop stop-color="#FEB447"/>
<stop offset="1" stop-color="#FE840E"/>
</linearGradient>
<linearGradient id="paint6_linear_1_3679" x1="116.015" y1="86.2379" x2="259.66" y2="265.974" gradientUnits="userSpaceOnUse">
<stop stop-color="#FEB447"/>
<stop offset="1" stop-color="#FE840E"/>
</linearGradient>
</defs>
</svg>
