<svg width="140" height="157" viewBox="0 0 140 157" fill="none" xmlns="http://www.w3.org/2000/svg">
<path d="M46.4045 64.3815L46.4044 64.3812C45.4553 61.5986 44.9177 58.1262 45.0888 54.6676C45.2594 51.217 46.1429 47.6557 48.1612 44.8024L46.4045 64.3815ZM46.4045 64.3815C48.4571 70.3952 52.0684 75.3655 55.7275 80.4017L55.7884 80.4856C59.2603 85.2655 63.7157 93.6799 67.1951 103.483C70.6746 113.287 73.1295 124.344 72.7136 134.423L72.7127 134.447M46.4045 64.3815L72.7127 134.447M72.7127 134.447L72.7124 134.472M72.7127 134.447L72.7124 134.472M72.7124 134.472L72.5254 154.902H31.3365V134.275C31.3365 124.219 30.263 117.444 28.5185 112.187C26.7783 106.943 24.3939 103.293 21.9417 99.5389L21.916 99.4996C21.2309 98.4498 20.3073 96.5236 19.2487 93.9929C18.2028 91.4926 17.0622 88.4938 15.9366 85.3621C13.6846 79.0963 11.5121 72.3536 10.2997 68.1044C5.8485 52.5038 7.80429 38.7374 15.7212 28.1277C23.9847 17.0544 38.5711 10.1826 56.395 9.12732L57.8063 9.04376M72.7124 134.472L57.8063 9.04376M57.8063 9.04376V7.62995M57.8063 9.04376V7.62995M57.8063 7.62995V5.44859M57.8063 7.62995V5.44859M57.8063 5.44859C57.8063 4.2923 58.362 3.21358 59.2898 2.55101M57.8063 5.44859L59.2898 2.55101M59.2898 2.55101C60.2168 1.88902 61.4014 1.72306 62.4689 2.10242M59.2898 2.55101L62.4689 2.10242M62.4689 2.10242C62.4689 2.10242 62.4689 2.10243 62.4689 2.10243M62.4689 2.10242L62.4689 2.10243M62.4689 2.10243L98.6407 14.959M62.4689 2.10243L98.6407 14.959M98.6407 14.959C100.038 15.4565 100.984 16.7935 100.984 18.3054V35.4487C100.984 37.4184 99.4026 38.9948 97.4813 38.9948H61.3089C55.5029 38.9948 50.9527 40.8535 48.1615 44.802L98.6407 14.959Z" fill="white" stroke="#FEB447" stroke-width="3"/>
<path d="M85.5491 96.8901L85.5492 96.8905C87.5344 102.696 91.0263 107.494 94.5587 112.348L94.6199 112.432L94.6202 112.432L94.6221 112.435C94.6222 112.435 94.6224 112.435 94.6225 112.436C101.487 121.87 109.048 132.274 108.246 151.677L108.112 154.902H68.3861V151.537C68.3861 141.837 67.3489 135.299 65.6616 130.223C63.9786 125.16 61.6725 121.635 59.3045 118.016L59.2789 117.977L59.2784 117.976L59.2691 117.962L59.269 117.962C56.3214 113.453 53.0711 108.475 50.7762 100.446C46.481 85.418 48.3696 72.1639 56.0036 61.9508C63.9728 51.29 78.0446 44.6687 95.2493 43.6518L96.6608 43.5684V42.1544V40.0512C96.6608 38.9547 97.1887 37.931 98.0711 37.3019C98.953 36.6732 100.08 36.5154 101.096 36.8759C101.096 36.8759 101.096 36.8759 101.096 36.8759L136.031 49.2718C136.031 49.2718 136.032 49.2718 136.032 49.2718C136.032 49.2719 136.032 49.2719 136.032 49.272C137.362 49.7448 138.26 51.0139 138.26 52.4473V68.9763C138.26 70.8437 136.757 72.3415 134.928 72.3415H99.9924C94.3749 72.3415 89.9619 74.1373 87.2533 77.9624C85.296 80.7244 84.4408 84.1697 84.2756 87.5037C84.11 90.8456 84.6302 94.2005 85.5491 96.8901Z" fill="white" stroke="#C81F56" stroke-width="3"/>
<path d="M30.6377 112.74L30.6376 112.74C29.8934 110.558 29.4737 107.844 29.6075 105.139C29.7408 102.443 30.4317 99.6332 32.0339 97.3681L30.6377 112.74ZM30.6377 112.74C32.2335 117.416 35.0378 121.275 37.8431 125.136L37.9037 125.22L37.9041 125.22M30.6377 112.74L37.9041 125.22M37.9041 125.22L37.9054 125.222L37.9041 125.22ZM40.0821 70.3879L38.6707 70.4714C25.0314 71.279 13.9195 76.5341 7.64016 84.9484M40.0821 70.3879L37.9059 125.223C43.1908 132.499 48.9542 140.445 48.7397 154.895L17.5518 154.747C17.4516 147.798 16.6453 142.963 15.3771 139.141C14.0243 135.064 12.1694 132.225 10.2852 129.34L10.2594 129.301L10.2593 129.301L10.2518 129.289C10.2518 129.289 10.2517 129.289 10.2517 129.289C7.90703 125.696 5.33982 121.757 3.52521 115.397C0.124173 103.477 1.62808 93.0053 7.64016 84.9484M40.0821 70.3879V68.9741M40.0821 70.3879V68.9741M7.64016 84.9484L6.43801 84.0513L7.64016 84.9484ZM40.0821 68.9741V67.2961M40.0821 68.9741V67.2961M40.0821 67.2961C40.0821 66.5177 40.4562 65.7932 41.0782 65.3489M40.0821 67.2961L41.0782 65.3489M41.0782 65.3489C41.6995 64.9053 42.4924 64.7945 43.2066 65.0483M41.0782 65.3489L43.2066 65.0483M43.2066 65.0483C43.2066 65.0483 43.2066 65.0484 43.2066 65.0484M43.2066 65.0483L43.2066 65.0484M43.2066 65.0484L71.0309 74.9379L43.2066 65.0484ZM72.6033 77.1859C72.6033 76.1682 71.9672 75.2714 71.0315 74.9381L72.6033 77.1859ZM72.6033 77.1859V90.3729M72.6033 77.1859V90.3729M72.6033 90.3729C72.6033 91.6996 71.5391 92.7544 70.2552 92.7544M72.6033 90.3729L70.2552 92.7544M70.2552 92.7544H42.4302M70.2552 92.7544H42.4302M42.4302 92.7544C37.8896 92.7544 34.2654 94.2116 32.0343 97.3676L42.4302 92.7544Z" fill="white" stroke="#FE840E" stroke-width="3"/>
</svg>
